<?xml version="1.0" encoding="UTF-8" standalone="no"?>
<!-- Created with Inkscape (http://www.inkscape.org/) -->

<svg
   version="1.1"
   id="svg1"
   width="62.719997"
   height="128"
   viewBox="0 0 62.719997 128"
   xmlns="http://www.w3.org/2000/svg"
   xmlns:svg="http://www.w3.org/2000/svg">
  <defs
     id="defs1">
    <clipPath
       clipPathUnits="userSpaceOnUse"
       id="clipPath2">
      <path
         d="M 0,0 H 195.01953 V 399.02344 H 0 Z"
         transform="scale(0.31999999)"
         clip-rule="evenodd"
         id="path2" />
    </clipPath>
    <clipPath
       clipPathUnits="userSpaceOnUse"
       id="clipPath4">
      <path
         d="M 56.25,118.75 H 137.5 V 278.125 H 56.25 Z"
         transform="matrix(0.86636136,0,0,0.86636136,37.830093,1053.4123)"
         clip-rule="evenodd"
         id="path4" />
    </clipPath>
    <clipPath
       clipPathUnits="userSpaceOnUse"
       id="clipPath6">
      <path
         d="M 56.25,118.75 H 137.5 V 278.125 H 56.25 Z"
         transform="matrix(0.86636136,0,0,0.86636136,37.830093,1053.4123)"
         clip-rule="evenodd"
         id="path6" />
    </clipPath>
    <clipPath
       clipPathUnits="userSpaceOnUse"
       id="clipPath8">
      <path
         d="M 56.25,118.75 H 137.5 V 278.125 H 56.25 Z"
         transform="matrix(0.86636136,0,0,0.86636136,38.330097,1053.9122)"
         clip-rule="evenodd"
         id="path8" />
    </clipPath>
    <clipPath
       clipPathUnits="userSpaceOnUse"
       id="clipPath9">
      <path
         d="M 56.25,118.75 H 137.5 V 278.125 H 56.25 Z"
         transform="matrix(0.86636136,0,0,0.86636136,-53.669903,-234.0878)"
         clip-rule="evenodd"
         id="path9" />
    </clipPath>
  </defs>
  <g
     id="g1">
    <path
       id="path1"
       d="M 0,0 H 62 V 128 H 0 Z"
       style="fill:#ffffff;fill-opacity:1;fill-rule:nonzero;stroke:none"
       clip-path="url(#clipPath2)" />
    <path
       id="path3"
       d="m 127.78,1173.75 c -1e-5,1.8234 -0.31719,3.5773 -0.95152,5.2617 -0.63434,1.6845 -1.53756,3.1714 -2.70965,4.4608 -1.17211,1.2892 -2.52388,2.2828 -4.05531,2.9806 -1.53142,0.6979 -3.12593,1.0468 -4.78352,1.0469 -1.65762,-10e-5 -3.25213,-0.349 -4.78355,-1.0469 -1.53143,-0.6978 -2.88319,-1.6914 -4.05529,-2.9806 -1.17211,-1.2894 -2.07533,-2.7763 -2.70967,-4.4608 -0.63434,-1.6844 -0.9515,-3.4383 -0.95149,-5.2617 -1e-5,-1.8235 0.31715,-3.5775 0.95148,-5.2621 0.63434,-1.6844 1.53756,-3.1714 2.70967,-4.4607 1.17209,-1.2893 2.52386,-2.2828 4.0553,-2.9807 1.53142,-0.6976 3.12593,-1.0465 4.78355,-1.0465 1.65759,0 3.2521,0.3489 4.78353,1.0465 1.53143,0.6979 2.88319,1.6914 4.0553,2.9807 1.17209,1.2893 2.07531,2.7763 2.70965,4.4607 0.63433,1.6846 0.95151,3.4386 0.95152,5.2621 z"
       style="fill:none;stroke:#000000;stroke-width:1;stroke-linecap:butt;stroke-linejoin:miter;stroke-miterlimit:10;stroke-dasharray:none;stroke-opacity:1"
       transform="matrix(0.36936087,0,0,0.36936087,-13.972956,-389.08928)"
       clip-path="url(#clipPath4)" />
    <path
       id="path5"
       d="m 115.28,1187.5 v 45.83 m 0,-36.66 H 90.279999 m 25.000001,0 h 25 m -25,36.66 -25.000001,36.67 m 25.000001,-36.67 25,36.67"
       style="fill:none;stroke:#000000;stroke-width:1;stroke-linecap:butt;stroke-linejoin:miter;stroke-miterlimit:10;stroke-dasharray:none;stroke-opacity:1"
       transform="matrix(0.36936087,0,0,0.36936087,-13.972956,-389.08928)"
       clip-path="url(#clipPath6)" />
    <path
       id="path7"
       d="m 92,1277 h 61 v 14 H 92 Z"
       style="fill:#ffffff;fill-opacity:1;fill-rule:nonzero;stroke:none"
       transform="matrix(0.36936087,0,0,0.36936087,-14.157638,-389.27393)"
       clip-path="url(#clipPath8)" />
    <text
       id="text8"
       xml:space="preserve"
       transform="matrix(0.36936087,0,0,0.36936087,19.823562,86.462872)"
       clip-path="url(#clipPath9)"><tspan
         id="tspan8"
         style="font-variant:normal;font-weight:normal;font-size:12px;font-family:Arial;writing-mode:lr-tb;fill:#000000;fill-opacity:1;fill-rule:nonzero;stroke:none"
         x="0"
         y="0">actor-name</tspan></text>
  </g>
</svg>
