<?xml version="1.0" encoding="UTF-8" standalone="no"?>
<!-- Created with Inkscape (http://www.inkscape.org/) -->

<svg
   version="1.1"
   id="svg1"
   width="348.16"
   height="34.560001"
   viewBox="0 0 348.16 34.560001"
   xmlns="http://www.w3.org/2000/svg"
   xmlns:svg="http://www.w3.org/2000/svg">
  <defs
     id="defs1">
    <clipPath
       clipPathUnits="userSpaceOnUse"
       id="clipPath2">
      <path
         d="M 0,0 H 1089 V 108.00781 H 0 Z"
         transform="scale(0.31999999)"
         clip-rule="evenodd"
         id="path2" />
    </clipPath>
    <clipPath
       clipPathUnits="userSpaceOnUse"
       id="clipPath4">
      <path
         d="m 56.25,3.125 h 975 V 106.25 h -975 z"
         transform="matrix(0.37413413,0,0,0.37413413,304.75975,3039.6616)"
         clip-rule="evenodd"
         id="path4" />
    </clipPath>
    <clipPath
       clipPathUnits="userSpaceOnUse"
       id="clipPath5">
      <path
         d="m 56.25,3.125 h 975 V 106.25 h -975 z"
         transform="matrix(0.37413413,0,0,0.37413413,-24.709005,-25.338303)"
         clip-rule="evenodd"
         id="path5" />
    </clipPath>
    <clipPath
       clipPathUnits="userSpaceOnUse"
       id="clipPath7">
      <path
         d="m 56.25,3.125 h 975 V 106.25 h -975 z"
         transform="matrix(0.37413413,0,0,0.37413413,304.75975,3039.6616)"
         clip-rule="evenodd"
         id="path7" />
    </clipPath>
    <clipPath
       clipPathUnits="userSpaceOnUse"
       id="clipPath8">
      <path
         d="m 56.25,3.125 h 975 V 106.25 h -975 z"
         transform="matrix(0.37413413,0,0,0.37413413,-285.20901,-26.338303)"
         clip-rule="evenodd"
         id="path8" />
    </clipPath>
    <clipPath
       clipPathUnits="userSpaceOnUse"
       id="clipPath10">
      <path
         d="m 56.25,3.125 h 975 V 106.25 h -975 z"
         transform="matrix(0.37413413,0,0,0.37413413,304.25977,3039.1617)"
         clip-rule="evenodd"
         id="path10" />
    </clipPath>
    <clipPath
       clipPathUnits="userSpaceOnUse"
       id="clipPath12">
      <path
         d="m 56.25,3.125 h 975 V 106.25 h -975 z"
         transform="matrix(0.37413413,0,0,0.37413413,304.25977,3039.1617)"
         clip-rule="evenodd"
         id="path12" />
    </clipPath>
    <clipPath
       clipPathUnits="userSpaceOnUse"
       id="clipPath14">
      <path
         d="m 56.25,3.125 h 975 V 106.25 h -975 z"
         transform="matrix(0.37413413,0,0,0.37413413,304.75975,3039.6616)"
         clip-rule="evenodd"
         id="path14" />
    </clipPath>
    <clipPath
       clipPathUnits="userSpaceOnUse"
       id="clipPath15">
      <path
         d="m 56.25,3.125 h 975 V 106.25 h -975 z"
         transform="matrix(0.37413413,0,0,0.37413413,-149.53714,-16.338303)"
         clip-rule="evenodd"
         id="path15" />
    </clipPath>
  </defs>
  <g
     id="g1">
    <path
       id="path1"
       d="M 0,0 H 348 V 35 H 0 Z"
       style="fill:#ffffff;fill-opacity:1;fill-rule:nonzero;stroke:none"
       clip-path="url(#clipPath2)" />
    <path
       id="path3"
       d="m 329,3054 h 97 v 15 h -97 z"
       style="fill:#ffffff;fill-opacity:1;fill-rule:nonzero;stroke:none"
       transform="matrix(0.85530819,0,0,0.85530819,-260.66351,-2599.8475)"
       clip-path="url(#clipPath4)" />
    <text
       id="text4"
       xml:space="preserve"
       transform="matrix(0.85530819,0,0,0.85530819,21.133814,21.672058)"
       clip-path="url(#clipPath5)"><tspan
         id="tspan4"
         style="font-variant:normal;font-weight:normal;font-size:12px;font-family:Arial;writing-mode:lr-tb;fill:#000000;fill-opacity:1;fill-rule:nonzero;stroke:none"
         x="0"
         y="0">&amp;action-flow-node</tspan></text>
    <path
       id="path6"
       d="m 590,3055 h 96 v 15 h -96 z"
       style="fill:#ffffff;fill-opacity:1;fill-rule:nonzero;stroke:none"
       transform="matrix(0.85530819,0,0,0.85530819,-260.66351,-2599.8475)"
       clip-path="url(#clipPath7)" />
    <text
       id="text7"
       xml:space="preserve"
       transform="matrix(0.85530819,0,0,0.85530819,243.9416,22.527366)"
       clip-path="url(#clipPath8)"><tspan
         id="tspan7"
         style="font-variant:normal;font-weight:normal;font-size:12px;font-family:Arial;writing-mode:lr-tb;fill:#000000;fill-opacity:1;fill-rule:nonzero;stroke:none"
         x="0"
         y="0">&amp;action-flow-node</tspan></text>
    <path
       id="path9"
       d="m 427.99313,3060.5 2.99994,0.019 -0.006,1 -2.99994,-0.019 m 6.00616,-0.9624 2.99994,0.019 -0.006,1 -2.99994,-0.019 m 6.00617,-0.9624 2.99994,0.019 -0.006,1 -2.99994,-0.019 m 6.00617,-0.9622 2.99994,0.019 -0.006,1 -2.99994,-0.019 m 6.00617,-0.9624 2.99996,0.019 -0.006,1 -2.99997,-0.019 m 6.00619,-0.9624 2.99994,0.019 -0.006,1 -2.99994,-0.019 m 6.00616,-0.9624 2.99994,0.019 -0.006,1 -2.99993,-0.019 m 6.00616,-0.9624 2.99994,0.019 -0.006,1 -2.99994,-0.019 m 6.00617,-0.9621 2.99994,0.019 -0.006,1 -2.99994,-0.019 m 6.00617,-0.9624 2.99993,0.019 -0.006,1 -2.99994,-0.019 m 6.00616,-0.9624 2.99994,0.019 -0.006,1 -2.99994,-0.019 m 6.00616,-0.9624 2.99997,0.019 -0.006,1 -2.99997,-0.019 m 6.0062,-0.9622 2.99994,0.019 -0.006,1 -2.99994,-0.019 m 6.00617,-0.9624 2.99994,0.019 -0.006,1 -2.99994,-0.019 m 6.00617,-0.9624 2.9999,0.019 -0.006,1 -2.99997,-0.019 m 6.00613,-0.9624 2.99994,0.019 -0.006,1 -2.99994,-0.019 m 6.0061,-0.9624 2.99994,0.019 -0.006,1 -2.99993,-0.019 m 6.0061,-0.9622 2.99994,0.019 -0.006,1 -2.99994,-0.019 m 6.00611,-0.9624 2.99994,0.019 -0.006,1 -2.99994,-0.019 m 6.0061,-0.9624 2.99994,0.019 -0.006,1 -2.99994,-0.019 m 6.0061,-0.9624 2.99994,0.019 -0.006,1 -2.99994,-0.019 m 6.0061,-0.9624 2.99994,0.019 -0.006,1 -2.99993,-0.019 m 6.0061,-0.9621 2.99994,0.019 -0.006,1 -2.99994,-0.019 m 6.00617,-0.9624 2.99988,0.019 -0.006,1 -2.99988,-0.019 m 6.00611,-0.9624 2.99987,0.019 -0.006,1 -2.99988,-0.019 m 6.0061,-0.9624 2.99988,0.019 -0.006,1 -2.99988,-0.019 m 6.0061,-0.9624 1.77307,0.011 -0.006,1 -1.77307,-0.011"
       style="fill:#000000;fill-opacity:1;fill-rule:nonzero;stroke:none"
       transform="matrix(0.85530819,0,0,0.85530819,-260.23587,-2599.4199)"
       clip-path="url(#clipPath10)" />
    <path
       id="path11"
       d="m 579.85999,3065.45 7.02001,-3.46 -6.97998,-3.54"
       style="fill:none;stroke:#000000;stroke-width:1;stroke-linecap:butt;stroke-linejoin:miter;stroke-miterlimit:10;stroke-dasharray:none;stroke-opacity:1"
       transform="matrix(0.85530819,0,0,0.85530819,-260.23587,-2599.4199)"
       clip-path="url(#clipPath12)" />
    <path
       id="path13"
       d="m 454,3045 h 100 v 15 H 454 Z"
       style="fill:#ffffff;fill-opacity:1;fill-rule:nonzero;stroke:none"
       transform="matrix(0.85530819,0,0,0.85530819,-260.66351,-2599.8475)"
       clip-path="url(#clipPath14)" />
    <text
       id="text14"
       xml:space="preserve"
       transform="matrix(0.85530819,0,0,0.85530819,127.90034,13.974284)"
       clip-path="url(#clipPath15)"><tspan
         id="tspan14"
         style="font-variant:normal;font-weight:normal;font-size:12px;font-family:Arial;writing-mode:lr-tb;fill:#000000;fill-opacity:1;fill-rule:nonzero;stroke:none"
         x="0"
         y="0">guard-expression?</tspan></text>
  </g>
</svg>
