<?xml version="1.0" encoding="UTF-8" standalone="no"?>
<!-- Created with Inkscape (http://www.inkscape.org/) -->

<svg
   version="1.1"
   id="svg1"
   width="317.44"
   height="121.28"
   viewBox="0 0 317.44 121.28"
   xmlns="http://www.w3.org/2000/svg"
   xmlns:svg="http://www.w3.org/2000/svg">
  <defs
     id="defs1">
    <clipPath
       clipPathUnits="userSpaceOnUse"
       id="clipPath2">
      <path
         d="M 0,0 H 993 V 380 H 0 Z"
         transform="scale(0.31999999)"
         clip-rule="evenodd"
         id="path2" />
    </clipPath>
    <clipPath
       clipPathUnits="userSpaceOnUse"
       id="clipPath4">
      <path
         d="M 56.25,18.75 H 937.5 V 362.5 H 56.25 Z"
         transform="matrix(0.37945078,0,0,0.37945078,55.950937,2243.3645)"
         clip-rule="evenodd"
         id="path4" />
    </clipPath>
    <clipPath
       clipPathUnits="userSpaceOnUse"
       id="clipPath5">
      <path
         d="M 56.25,18.75 H 937.5 V 362.5 H 56.25 Z"
         transform="matrix(0.37945078,0,0,0.37945078,-99.50219,-45.135595)"
         clip-rule="evenodd"
         id="path5" />
    </clipPath>
    <clipPath
       clipPathUnits="userSpaceOnUse"
       id="clipPath6">
      <path
         d="M 56.25,18.75 H 937.5 V 362.5 H 56.25 Z"
         transform="matrix(0.37945078,0,0,0.37945078,-142.86157,-73.135596)"
         clip-rule="evenodd"
         id="path6" />
    </clipPath>
    <clipPath
       clipPathUnits="userSpaceOnUse"
       id="clipPath7">
      <path
         d="M 56.25,18.75 H 937.5 V 362.5 H 56.25 Z"
         transform="matrix(0.37945078,0,0,0.37945078,-134.51781,-102.1356)"
         clip-rule="evenodd"
         id="path7" />
    </clipPath>
    <clipPath
       clipPathUnits="userSpaceOnUse"
       id="clipPath9">
      <path
         d="M 56.25,18.75 H 937.5 V 362.5 H 56.25 Z"
         transform="matrix(0.37945078,0,0,0.37945078,56.450936,2243.8644)"
         clip-rule="evenodd"
         id="path9" />
    </clipPath>
    <clipPath
       clipPathUnits="userSpaceOnUse"
       id="clipPath10">
      <path
         d="M 56.25,18.75 H 937.5 V 362.5 H 56.25 Z"
         transform="matrix(0.37945078,0,0,0.37945078,-26.861565,-72.135596)"
         clip-rule="evenodd"
         id="path10" />
    </clipPath>
    <clipPath
       clipPathUnits="userSpaceOnUse"
       id="clipPath12">
      <path
         d="M 56.25,18.75 H 937.5 V 362.5 H 56.25 Z"
         transform="matrix(0.37945078,0,0,0.37945078,56.450936,2243.8644)"
         clip-rule="evenodd"
         id="path12" />
    </clipPath>
    <clipPath
       clipPathUnits="userSpaceOnUse"
       id="clipPath13">
      <path
         d="M 56.25,18.75 H 937.5 V 362.5 H 56.25 Z"
         transform="matrix(0.37945078,0,0,0.37945078,-300.20531,-72.135596)"
         clip-rule="evenodd"
         id="path13" />
    </clipPath>
    <clipPath
       clipPathUnits="userSpaceOnUse"
       id="clipPath15">
      <path
         d="M 56.25,18.75 H 937.5 V 362.5 H 56.25 Z"
         transform="matrix(0.37945078,0,0,0.37945078,56.450936,2243.8644)"
         clip-rule="evenodd"
         id="path15" />
    </clipPath>
    <clipPath
       clipPathUnits="userSpaceOnUse"
       id="clipPath16">
      <path
         d="M 56.25,18.75 H 937.5 V 362.5 H 56.25 Z"
         transform="matrix(0.37945078,0,0,0.37945078,-156.53345,-126.1356)"
         clip-rule="evenodd"
         id="path16" />
    </clipPath>
    <clipPath
       clipPathUnits="userSpaceOnUse"
       id="clipPath18">
      <path
         d="M 56.25,18.75 H 937.5 V 362.5 H 56.25 Z"
         transform="matrix(0.37945078,0,0,0.37945078,56.450936,2243.8644)"
         clip-rule="evenodd"
         id="path18" />
    </clipPath>
    <clipPath
       clipPathUnits="userSpaceOnUse"
       id="clipPath19">
      <path
         d="M 56.25,18.75 H 937.5 V 362.5 H 56.25 Z"
         transform="matrix(0.37945078,0,0,0.37945078,-151.20532,-19.135596)"
         clip-rule="evenodd"
         id="path19" />
    </clipPath>
  </defs>
  <g
     id="g1">
    <path
       id="path1"
       d="M 0,0 H 318 V 122 H 0 Z"
       style="fill:#ffffff;fill-opacity:1;fill-rule:nonzero;stroke:none"
       clip-path="url(#clipPath2)" />
    <path
       id="path3"
       d="M 116.96,2260.6399 H 366.74 V 2366.2 H 116.96 Z"
       style="fill:#ffffff;fill-opacity:1;fill-rule:nonzero;stroke:#000000;stroke-width:1;stroke-linecap:butt;stroke-linejoin:miter;stroke-miterlimit:10;stroke-dasharray:none;stroke-opacity:1"
       transform="matrix(0.84332409,0,0,0.84332409,-47.184773,-1891.8833)"
       clip-path="url(#clipPath4)" />
    <text
       id="text4"
       xml:space="preserve"
       transform="matrix(0.84332409,0,0,0.84332409,83.912594,38.063935)"
       clip-path="url(#clipPath5)"><tspan
         id="tspan4"
         style="font-variant:normal;font-weight:normal;font-size:12px;font-family:Arial;writing-mode:lr-tb;fill:#000000;fill-opacity:1;fill-rule:nonzero;stroke:none"
         x="0"
         y="0">analysis-def-name-compartment</tspan></text>
    <text
       id="text5"
       xml:space="preserve"
       transform="matrix(0.84332409,0,0,0.84332409,120.4786,61.67701)"
       clip-path="url(#clipPath6)"><tspan
         id="tspan5"
         style="font-variant:normal;font-weight:normal;font-size:12px;font-family:Arial;writing-mode:lr-tb;fill:#000000;fill-opacity:1;fill-rule:nonzero;stroke:none"
         x="0"
         y="0">action-flow-view</tspan></text>
    <text
       id="text6"
       xml:space="preserve"
       transform="matrix(0.84332409,0,0,0.84332409,113.44211,86.133409)"
       clip-path="url(#clipPath7)"><tspan
         id="tspan6"
         style="font-variant:normal;font-weight:normal;font-size:12px;font-family:Arial;writing-mode:lr-tb;fill:#000000;fill-opacity:1;fill-rule:nonzero;stroke:none"
         x="0"
         y="0">compartment-stack</tspan></text>
    <path
       id="path8"
       d="m 83,2305 h 46 v 15 H 83 Z"
       style="fill:#ffffff;fill-opacity:1;fill-rule:nonzero;stroke:none"
       transform="matrix(0.84332409,0,0,0.84332409,-47.606434,-1892.3049)"
       clip-path="url(#clipPath9)" />
    <text
       id="text9"
       xml:space="preserve"
       transform="matrix(0.84332409,0,0,0.84332409,22.653005,60.833686)"
       clip-path="url(#clipPath10)"><tspan
         id="tspan9"
         style="font-variant:normal;font-weight:normal;font-size:12px;font-family:Arial;writing-mode:lr-tb;fill:#000000;fill-opacity:1;fill-rule:nonzero;stroke:none"
         x="0"
         y="0">param-l*</tspan></text>
    <path
       id="path11"
       d="m 357,2305 h 46 v 15 h -46 z"
       style="fill:#ffffff;fill-opacity:1;fill-rule:nonzero;stroke:none"
       transform="matrix(0.84332409,0,0,0.84332409,-47.606434,-1892.3049)"
       clip-path="url(#clipPath12)" />
    <text
       id="text12"
       xml:space="preserve"
       transform="matrix(0.84332409,0,0,0.84332409,253.17037,60.833686)"
       clip-path="url(#clipPath13)"><tspan
         id="tspan12"
         style="font-variant:normal;font-weight:normal;font-size:12px;font-family:Arial;writing-mode:lr-tb;fill:#000000;fill-opacity:1;fill-rule:nonzero;stroke:none"
         x="0"
         y="0">param-r*</tspan></text>
    <path
       id="path14"
       d="m 213,2359 h 56 v 15 h -56 z"
       style="fill:#ffffff;fill-opacity:1;fill-rule:nonzero;stroke:none"
       transform="matrix(0.84332409,0,0,0.84332409,-47.606434,-1892.3049)"
       clip-path="url(#clipPath15)" />
    <g
       id="g15" />
    <g
       id="g16" />
    <text
       id="text16"
       xml:space="preserve"
       transform="matrix(0.84332409,0,0,0.84332409,132.00843,106.37319)"
       clip-path="url(#clipPath16)"><tspan
         id="tspan16"
         style="font-variant:normal;font-weight:normal;font-size:12px;font-family:Arial;writing-mode:lr-tb;fill:#000000;fill-opacity:1;fill-rule:nonzero;stroke:none"
         x="0"
         y="0"> param-b* </tspan></text>
    <path
       id="path17"
       d="m 208,2252 h 52 v 15 h -52 z"
       style="fill:#ffffff;fill-opacity:1;fill-rule:nonzero;stroke:none"
       transform="matrix(0.84332409,0,0,0.84332409,-47.606434,-1892.3049)"
       clip-path="url(#clipPath18)" />
    <g
       id="g18" />
    <g
       id="g19" />
    <text
       id="text19"
       xml:space="preserve"
       transform="matrix(0.84332409,0,0,0.84332409,127.51509,16.137509)"
       clip-path="url(#clipPath19)"><tspan
         id="tspan19"
         style="font-variant:normal;font-weight:normal;font-size:12px;font-family:Arial;writing-mode:lr-tb;fill:#000000;fill-opacity:1;fill-rule:nonzero;stroke:none"
         x="0"
         y="0"> param-t* </tspan></text>
  </g>
</svg>
