<?xml version="1.0" encoding="UTF-8" standalone="no"?>
<!-- Created with Inkscape (http://www.inkscape.org/) -->

<svg
   version="1.1"
   id="svg1"
   width="286.72"
   height="128"
   viewBox="0 0 286.72 128"
   xmlns="http://www.w3.org/2000/svg"
   xmlns:svg="http://www.w3.org/2000/svg">
  <defs
     id="defs1">
    <clipPath
       clipPathUnits="userSpaceOnUse"
       id="clipPath2">
      <path
         d="M 0,0 H 893.99414 V 399.02344 H 0 Z"
         transform="scale(0.31999999)"
         clip-rule="evenodd"
         id="path2" />
    </clipPath>
    <clipPath
       clipPathUnits="userSpaceOnUse"
       id="clipPath4">
      <path
         d="M 56.25,21.875 H 837.5 V 375 H 56.25 Z"
         transform="matrix(0.3843779,0,0,0.3843779,375.65943,2637.8907)"
         clip-rule="evenodd"
         id="path4" />
    </clipPath>
    <clipPath
       clipPathUnits="userSpaceOnUse"
       id="clipPath5">
      <path
         d="M 56.25,21.875 H 837.5 V 375 H 56.25 Z"
         transform="matrix(0.3843779,0,0,0.3843779,-81.465574,-65.609659)"
         clip-rule="evenodd"
         id="path5" />
    </clipPath>
    <clipPath
       clipPathUnits="userSpaceOnUse"
       id="clipPath6">
      <path
         d="M 56.25,21.875 H 837.5 V 375 H 56.25 Z"
         transform="matrix(0.3843779,0,0,0.3843779,-104.46557,-94.609658)"
         clip-rule="evenodd"
         id="path6" />
    </clipPath>
    <clipPath
       clipPathUnits="userSpaceOnUse"
       id="clipPath8">
      <path
         d="M 56.25,21.875 H 837.5 V 375 H 56.25 Z"
         transform="matrix(0.3843779,0,0,0.3843779,376.15942,2638.3903)"
         clip-rule="evenodd"
         id="path8" />
    </clipPath>
    <clipPath
       clipPathUnits="userSpaceOnUse"
       id="clipPath9">
      <path
         d="M 56.25,21.875 H 837.5 V 375 H 56.25 Z"
         transform="matrix(0.3843779,0,0,0.3843779,-26.153075,-78.609658)"
         clip-rule="evenodd"
         id="path9" />
    </clipPath>
    <clipPath
       clipPathUnits="userSpaceOnUse"
       id="clipPath11">
      <path
         d="M 56.25,21.875 H 837.5 V 375 H 56.25 Z"
         transform="matrix(0.3843779,0,0,0.3843779,376.15942,2638.3903)"
         clip-rule="evenodd"
         id="path11" />
    </clipPath>
    <clipPath
       clipPathUnits="userSpaceOnUse"
       id="clipPath12">
      <path
         d="M 56.25,21.875 H 837.5 V 375 H 56.25 Z"
         transform="matrix(0.3843779,0,0,0.3843779,-269.49682,-78.609658)"
         clip-rule="evenodd"
         id="path12" />
    </clipPath>
    <clipPath
       clipPathUnits="userSpaceOnUse"
       id="clipPath14">
      <path
         d="M 56.25,21.875 H 837.5 V 375 H 56.25 Z"
         transform="matrix(0.3843779,0,0,0.3843779,376.15942,2638.3903)"
         clip-rule="evenodd"
         id="path14" />
    </clipPath>
    <clipPath
       clipPathUnits="userSpaceOnUse"
       id="clipPath15">
      <path
         d="M 56.25,21.875 H 837.5 V 375 H 56.25 Z"
         transform="matrix(0.3843779,0,0,0.3843779,-141.82495,-133.60966)"
         clip-rule="evenodd"
         id="path15" />
    </clipPath>
    <clipPath
       clipPathUnits="userSpaceOnUse"
       id="clipPath17">
      <path
         d="M 56.25,21.875 H 837.5 V 375 H 56.25 Z"
         transform="matrix(0.3843779,0,0,0.3843779,376.15942,2638.3903)"
         clip-rule="evenodd"
         id="path17" />
    </clipPath>
    <clipPath
       clipPathUnits="userSpaceOnUse"
       id="clipPath18">
      <path
         d="M 56.25,21.875 H 837.5 V 375 H 56.25 Z"
         transform="matrix(0.3843779,0,0,0.3843779,-143.49683,-25.609658)"
         clip-rule="evenodd"
         id="path18" />
    </clipPath>
  </defs>
  <g
     id="g1">
    <path
       id="path1"
       d="M 0,0 H 286 V 128 H 0 Z"
       style="fill:#ffffff;fill-opacity:1;fill-rule:nonzero;stroke:none"
       clip-path="url(#clipPath2)" />
    <path
       id="path3"
       d="m 460.13998,2661.03 h 172.47001 c 1.61395,0 3.21234,0.1575 4.79528,0.4722 1.58295,0.3147 3.11994,0.781 4.61103,1.3987 1.49109,0.6174 2.90765,1.3745 4.24963,2.2712 1.34186,0.8967 2.58344,1.9158 3.72473,3.0571 1.14118,1.1414 2.1601,2.3829 3.05676,3.7247 0.89667,1.3418 1.65387,2.7583 2.27149,4.2495 0.61761,1.4909 1.08392,3.028 1.3988,4.6113 0.31488,1.5828 0.47229,3.1814 0.47229,4.7954 v 57.71 c 0,1.6137 -0.15741,3.2121 -0.47229,4.7951 -0.31488,1.5828 -0.78119,3.1199 -1.3988,4.6111 -0.61762,1.491 -1.37476,2.9077 -2.27142,4.2498 -0.89667,1.342 -1.91565,2.5835 -3.05683,3.7246 -1.14129,1.1413 -2.38287,2.1601 -3.72473,3.0564 -1.34198,0.8967 -2.75854,1.6538 -4.24963,2.2715 -1.49109,0.6176 -3.02808,1.0839 -4.61103,1.3991 -1.58294,0.3147 -3.18133,0.4722 -4.79528,0.4724 H 460.13998 c -1.61395,-2e-4 -3.2124,-0.1577 -4.79531,-0.4726 -1.58295,-0.315 -3.11997,-0.7813 -4.61106,-1.3987 -1.49109,-0.6177 -2.90762,-1.3747 -4.24957,-2.2715 -1.34195,-0.8965 -2.58356,-1.9153 -3.72476,-3.0566 -1.14124,-1.1411 -2.16019,-2.3826 -3.05689,-3.7246 -0.89663,-1.3421 -1.65378,-2.7588 -2.27142,-4.2498 -0.61762,-1.4912 -1.08386,-3.0283 -1.39871,-4.6111 -0.31485,-1.583 -0.47226,-3.1814 -0.47226,-4.7951 v -57.71 c 0,-1.614 0.15741,-3.2126 0.47226,-4.7956 0.31485,-1.5831 0.78109,-3.1202 1.39871,-4.6111 0.61764,-1.4912 1.37482,-2.9077 2.27145,-4.2495 0.8967,-1.3418 1.91565,-2.5833 3.05689,-3.7247 1.1412,-1.1413 2.38281,-2.1604 3.72476,-3.0571 1.34195,-0.8967 2.75845,-1.6538 4.24954,-2.2712 1.49109,-0.6177 3.02811,-1.0838 4.61106,-1.3985 1.58291,-0.3149 3.18136,-0.4724 4.79531,-0.4724 z"
       style="fill:#ffffff;fill-opacity:1;fill-rule:nonzero;stroke:#000000;stroke-width:1;stroke-linecap:butt;stroke-linejoin:miter;stroke-miterlimit:10;stroke-dasharray:none;stroke-opacity:1"
       transform="matrix(0.83251401,0,0,0.83251401,-312.74174,-2196.081)"
       clip-path="url(#clipPath4)" />
    <text
       id="text4"
       xml:space="preserve"
       transform="matrix(0.83251401,0,0,0.83251401,67.821232,54.62096)"
       clip-path="url(#clipPath5)"><tspan
         id="tspan4"
         style="font-variant:normal;font-weight:normal;font-size:12px;font-family:Arial;writing-mode:lr-tb;fill:#000000;fill-opacity:1;fill-rule:nonzero;stroke:none"
         x="0"
         y="0">assign-action-name-compartment</tspan></text>
    <text
       id="text5"
       xml:space="preserve"
       transform="matrix(0.83251401,0,0,0.83251401,86.969054,78.763866)"
       clip-path="url(#clipPath6)"><tspan
         id="tspan5"
         style="font-variant:normal;font-weight:normal;font-size:12px;font-family:Arial;writing-mode:lr-tb;fill:#000000;fill-opacity:1;fill-rule:nonzero;stroke:none"
         x="0"
         y="0">assign-action-expression</tspan></text>
    <path
       id="path7"
       d="m 402,2706 h 46 v 15 h -46 z"
       style="fill:#ffffff;fill-opacity:1;fill-rule:nonzero;stroke:none"
       transform="matrix(0.83251401,0,0,0.83251401,-313.15799,-2196.4969)"
       clip-path="url(#clipPath8)" />
    <text
       id="text8"
       xml:space="preserve"
       transform="matrix(0.83251401,0,0,0.83251401,21.772801,65.443642)"
       clip-path="url(#clipPath9)"><tspan
         id="tspan8"
         style="font-variant:normal;font-weight:normal;font-size:12px;font-family:Arial;writing-mode:lr-tb;fill:#000000;fill-opacity:1;fill-rule:nonzero;stroke:none"
         x="0"
         y="0">param-l*</tspan></text>
    <path
       id="path10"
       d="m 646,2706 h 46 v 15 h -46 z"
       style="fill:#ffffff;fill-opacity:1;fill-rule:nonzero;stroke:none"
       transform="matrix(0.83251401,0,0,0.83251401,-313.15799,-2196.4969)"
       clip-path="url(#clipPath11)" />
    <text
       id="text11"
       xml:space="preserve"
       transform="matrix(0.83251401,0,0,0.83251401,224.35988,65.443642)"
       clip-path="url(#clipPath12)"><tspan
         id="tspan11"
         style="font-variant:normal;font-weight:normal;font-size:12px;font-family:Arial;writing-mode:lr-tb;fill:#000000;fill-opacity:1;fill-rule:nonzero;stroke:none"
         x="0"
         y="0">param-r*</tspan></text>
    <path
       id="path13"
       d="m 518,2761 h 56 v 15 h -56 z"
       style="fill:#ffffff;fill-opacity:1;fill-rule:nonzero;stroke:none"
       transform="matrix(0.83251401,0,0,0.83251401,-313.15799,-2196.4969)"
       clip-path="url(#clipPath14)" />
    <g
       id="g14" />
    <g
       id="g15" />
    <text
       id="text15"
       xml:space="preserve"
       transform="matrix(0.83251401,0,0,0.83251401,118.07126,111.23191)"
       clip-path="url(#clipPath15)"><tspan
         id="tspan15"
         style="font-variant:normal;font-weight:normal;font-size:12px;font-family:Arial;writing-mode:lr-tb;fill:#000000;fill-opacity:1;fill-rule:nonzero;stroke:none"
         x="0"
         y="0"> param-b* </tspan></text>
    <path
       id="path16"
       d="m 520,2653 h 52 v 15 h -52 z"
       style="fill:#ffffff;fill-opacity:1;fill-rule:nonzero;stroke:none"
       transform="matrix(0.83251401,0,0,0.83251401,-313.15799,-2196.4969)"
       clip-path="url(#clipPath17)" />
    <g
       id="g17" />
    <g
       id="g18" />
    <text
       id="text18"
       xml:space="preserve"
       transform="matrix(0.83251401,0,0,0.83251401,119.46312,21.320399)"
       clip-path="url(#clipPath18)"><tspan
         id="tspan18"
         style="font-variant:normal;font-weight:normal;font-size:12px;font-family:Arial;writing-mode:lr-tb;fill:#000000;fill-opacity:1;fill-rule:nonzero;stroke:none"
         x="0"
         y="0"> param-t* </tspan></text>
  </g>
</svg>
