<?xml version="1.0" encoding="UTF-8" standalone="no"?>
<!-- Created with Inkscape (http://www.inkscape.org/) -->

<svg
   version="1.1"
   id="svg1"
   width="352"
   height="30.719999"
   viewBox="0 0 352 30.719999"
   xmlns="http://www.w3.org/2000/svg"
   xmlns:svg="http://www.w3.org/2000/svg">
  <defs
     id="defs1">
    <clipPath
       clipPathUnits="userSpaceOnUse"
       id="clipPath2">
      <path
         d="M 0,0 H 1100.9766 V 95.996094 H 0 Z"
         transform="scale(0.31999999)"
         clip-rule="evenodd"
         id="path2" />
    </clipPath>
    <clipPath
       clipPathUnits="userSpaceOnUse"
       id="clipPath4">
      <path
         d="m 56.25,3.125 h 987.5 V 93.75 H 56.25 Z"
         transform="matrix(0.37463412,0,0,0.37463412,87.2378,97.158539)"
         clip-rule="evenodd"
         id="path4" />
    </clipPath>
    <clipPath
       clipPathUnits="userSpaceOnUse"
       id="clipPath5">
      <path
         d="m 56.25,3.125 h 987.5 V 93.75 H 56.25 Z"
         transform="matrix(0.37463412,0,0,0.37463412,-210.96532,-14.341478)"
         clip-rule="evenodd"
         id="path5" />
    </clipPath>
    <clipPath
       clipPathUnits="userSpaceOnUse"
       id="clipPath6">
      <path
         d="m 56.25,3.125 h 987.5 V 93.75 H 56.25 Z"
         transform="matrix(0.37463412,0,0,0.37463412,-314.05908,-21.341479)"
         clip-rule="evenodd"
         id="path6" />
    </clipPath>
    <clipPath
       clipPathUnits="userSpaceOnUse"
       id="clipPath7">
      <path
         d="m 56.25,3.125 h 987.5 V 93.75 H 56.25 Z"
         transform="matrix(0.37463412,0,0,0.37463412,-34.55907,-21.341479)"
         clip-rule="evenodd"
         id="path7" />
    </clipPath>
  </defs>
  <g
     id="g1">
    <path
       id="path1"
       d="M 0,0 H 352 V 31 H 0 Z"
       style="fill:#ffffff;fill-opacity:1;fill-rule:nonzero;stroke:none"
       clip-path="url(#clipPath2)" />
    <path
       id="path3"
       d="M 204,114 H 404"
       style="fill:none;stroke:#000000;stroke-width:1;stroke-linecap:butt;stroke-linejoin:miter;stroke-miterlimit:10;stroke-dasharray:none;stroke-opacity:1"
       transform="matrix(0.85416668,0,0,0.85416668,-74.515622,-82.989587)"
       clip-path="url(#clipPath4)" />
    <text
       id="text4"
       xml:space="preserve"
       transform="matrix(0.85416668,0,0,0.85416668,180.19955,12.250013)"
       clip-path="url(#clipPath5)"><tspan
         id="tspan4"
         style="font-variant:normal;font-weight:normal;font-size:12px;font-family:Arial;writing-mode:lr-tb;fill:#000000;fill-opacity:1;fill-rule:nonzero;stroke:none"
         x="0"
         y="0">'='</tspan></text>
    <text
       id="text5"
       xml:space="preserve"
       transform="matrix(0.85416668,0,0,0.85416668,268.2588,18.22918)"
       clip-path="url(#clipPath6)"><tspan
         id="tspan5"
         style="font-variant:normal;font-weight:normal;font-size:12px;font-family:Arial;writing-mode:lr-tb;fill:#000000;fill-opacity:1;fill-rule:nonzero;stroke:none"
         x="0"
         y="0">&amp;usage-node</tspan></text>
    <text
       id="text6"
       xml:space="preserve"
       transform="matrix(0.85416668,0,0,0.85416668,29.519206,18.22918)"
       clip-path="url(#clipPath7)"><tspan
         id="tspan6"
         style="font-variant:normal;font-weight:normal;font-size:12px;font-family:Arial;writing-mode:lr-tb;fill:#000000;fill-opacity:1;fill-rule:nonzero;stroke:none"
         x="0"
         y="0">&amp;usage-node</tspan></text>
  </g>
</svg>
