<?xml version="1.0" encoding="UTF-8" standalone="no"?>
<!-- Created with Inkscape (http://www.inkscape.org/) -->

<svg
   version="1.1"
   id="svg1"
   width="558.71997"
   height="62.719997"
   viewBox="0 0 558.71997 62.719997"
   xmlns="http://www.w3.org/2000/svg"
   xmlns:svg="http://www.w3.org/2000/svg">
  <defs
     id="defs1">
    <clipPath
       clipPathUnits="userSpaceOnUse"
       id="clipPath2">
      <path
         d="M 0,0 H 1745.9961 V 195.01953 H 0 Z"
         transform="scale(0.31999999)"
         clip-rule="evenodd"
         id="path2" />
    </clipPath>
    <clipPath
       clipPathUnits="userSpaceOnUse"
       id="clipPath4">
      <path
         d="m 56.25,3.125 h 1634.375 v 187.5 H 56.25 Z"
         transform="matrix(0.35769293,0,0,0.35769293,58.194357,547.26441)"
         clip-rule="evenodd"
         id="path4" />
    </clipPath>
    <clipPath
       clipPathUnits="userSpaceOnUse"
       id="clipPath5">
      <path
         d="m 56.25,3.125 h 1634.375 v 187.5 H 56.25 Z"
         transform="matrix(0.35769293,0,0,0.35769293,-243.7744,-24.235597)"
         clip-rule="evenodd"
         id="path5" />
    </clipPath>
    <clipPath
       clipPathUnits="userSpaceOnUse"
       id="clipPath6">
      <path
         d="m 56.25,3.125 h 1634.375 v 187.5 H 56.25 Z"
         transform="matrix(0.35769293,0,0,0.35769293,-466.25877,-31.235597)"
         clip-rule="evenodd"
         id="path6" />
    </clipPath>
    <clipPath
       clipPathUnits="userSpaceOnUse"
       id="clipPath7">
      <path
         d="m 56.25,3.125 h 1634.375 v 187.5 H 56.25 Z"
         transform="matrix(0.35769293,0,0,0.35769293,-31.258771,-31.235597)"
         clip-rule="evenodd"
         id="path7" />
    </clipPath>
    <clipPath
       clipPathUnits="userSpaceOnUse"
       id="clipPath8">
      <path
         d="m 56.25,3.125 h 1634.375 v 187.5 H 56.25 Z"
         transform="matrix(0.35769293,0,0,0.35769293,-142.29003,-21.235597)"
         clip-rule="evenodd"
         id="path8" />
    </clipPath>
    <clipPath
       clipPathUnits="userSpaceOnUse"
       id="clipPath9">
      <path
         d="m 56.25,3.125 h 1634.375 v 187.5 H 56.25 Z"
         transform="matrix(0.35769293,0,0,0.35769293,-143.63378,-41.235597)"
         clip-rule="evenodd"
         id="path9" />
    </clipPath>
    <clipPath
       clipPathUnits="userSpaceOnUse"
       id="clipPath10">
      <path
         d="m 56.25,3.125 h 1634.375 v 187.5 H 56.25 Z"
         transform="matrix(0.35769293,0,0,0.35769293,-388.29003,-21.235597)"
         clip-rule="evenodd"
         id="path10" />
    </clipPath>
    <clipPath
       clipPathUnits="userSpaceOnUse"
       id="clipPath11">
      <path
         d="m 56.25,3.125 h 1634.375 v 187.5 H 56.25 Z"
         transform="matrix(0.35769293,0,0,0.35769293,-389.63378,-41.235597)"
         clip-rule="evenodd"
         id="path11" />
    </clipPath>
    <clipPath
       clipPathUnits="userSpaceOnUse"
       id="clipPath12">
      <path
         d="m 56.25,3.125 h 1634.375 v 187.5 H 56.25 Z"
         transform="matrix(0.35769293,0,0,0.35769293,-385.61815,-54.235597)"
         clip-rule="evenodd"
         id="path12" />
    </clipPath>
    <clipPath
       clipPathUnits="userSpaceOnUse"
       id="clipPath13">
      <path
         d="m 56.25,3.125 h 1634.375 v 187.5 H 56.25 Z"
         transform="matrix(0.35769293,0,0,0.35769293,-138.61814,-54.235597)"
         clip-rule="evenodd"
         id="path13" />
    </clipPath>
  </defs>
  <g
     id="g1">
    <path
       id="path1"
       d="M 0,0 H 559 V 62 H 0 Z"
       style="fill:#ffffff;fill-opacity:1;fill-rule:nonzero;stroke:none"
       clip-path="url(#clipPath2)" />
    <path
       id="path3"
       d="M 188,574 H 510"
       style="fill:none;stroke:#000000;stroke-width:1;stroke-linecap:butt;stroke-linejoin:miter;stroke-miterlimit:10;stroke-dasharray:none;stroke-opacity:1"
       transform="matrix(0.89462207,0,0,0.89462207,-52.061956,-489.59482)"
       clip-path="url(#clipPath4)" />
    <text
       id="text4"
       xml:space="preserve"
       transform="matrix(0.89462207,0,0,0.89462207,218.08596,21.6817)"
       clip-path="url(#clipPath5)"><tspan
         id="tspan4"
         style="font-variant:normal;font-weight:normal;font-size:12px;font-family:Arial;writing-mode:lr-tb;fill:#000000;fill-opacity:1;fill-rule:nonzero;stroke:none"
         x="0"
         y="0">connection-label?</tspan></text>
    <text
       id="text5"
       xml:space="preserve"
       transform="matrix(0.89462207,0,0,0.89462207,417.12539,27.944054)"
       clip-path="url(#clipPath6)"><tspan
         id="tspan5"
         style="font-variant:normal;font-weight:normal;font-size:12px;font-family:Arial;writing-mode:lr-tb;fill:#000000;fill-opacity:1;fill-rule:nonzero;stroke:none"
         x="0"
         y="0">&amp;connection-end</tspan></text>
    <text
       id="text6"
       xml:space="preserve"
       transform="matrix(0.89462207,0,0,0.89462207,27.964786,27.944054)"
       clip-path="url(#clipPath7)"><tspan
         id="tspan6"
         style="font-variant:normal;font-weight:normal;font-size:12px;font-family:Arial;writing-mode:lr-tb;fill:#000000;fill-opacity:1;fill-rule:nonzero;stroke:none"
         x="0"
         y="0">&amp;connection-end</tspan></text>
    <text
       id="text7"
       xml:space="preserve"
       transform="matrix(0.89462207,0,0,0.89462207,127.2958,18.997834)"
       clip-path="url(#clipPath8)"><tspan
         id="tspan7"
         style="font-variant:normal;font-weight:normal;font-size:12px;font-family:Arial;writing-mode:lr-tb;fill:#000000;fill-opacity:1;fill-rule:nonzero;stroke:none"
         x="0"
         y="0">rolename</tspan></text>
    <text
       id="text8"
       xml:space="preserve"
       transform="matrix(0.89462207,0,0,0.89462207,128.49795,36.890275)"
       clip-path="url(#clipPath9)"><tspan
         id="tspan8"
         style="font-variant:normal;font-weight:normal;font-size:12px;font-family:Arial;writing-mode:lr-tb;fill:#000000;fill-opacity:1;fill-rule:nonzero;stroke:none"
         x="0"
         y="0">multiplicity</tspan></text>
    <text
       id="text9"
       xml:space="preserve"
       transform="matrix(0.89462207,0,0,0.89462207,347.37283,18.997834)"
       clip-path="url(#clipPath10)"><tspan
         id="tspan9"
         style="font-variant:normal;font-weight:normal;font-size:12px;font-family:Arial;writing-mode:lr-tb;fill:#000000;fill-opacity:1;fill-rule:nonzero;stroke:none"
         x="0"
         y="0">rolename</tspan></text>
    <text
       id="text10"
       xml:space="preserve"
       transform="matrix(0.89462207,0,0,0.89462207,348.57498,36.890275)"
       clip-path="url(#clipPath11)"><tspan
         id="tspan10"
         style="font-variant:normal;font-weight:normal;font-size:12px;font-family:Arial;writing-mode:lr-tb;fill:#000000;fill-opacity:1;fill-rule:nonzero;stroke:none"
         x="0"
         y="0">multiplicity</tspan></text>
    <text
       id="text11"
       xml:space="preserve"
       transform="matrix(0.89462207,0,0,0.89462207,344.98251,48.520362)"
       clip-path="url(#clipPath12)"><tspan
         id="tspan11"
         style="font-variant:normal;font-weight:normal;font-size:12px;font-family:Arial;writing-mode:lr-tb;fill:#000000;fill-opacity:1;fill-rule:nonzero;stroke:none"
         x="0"
         y="0">c-adornment</tspan></text>
    <text
       id="text12"
       xml:space="preserve"
       transform="matrix(0.89462207,0,0,0.89462207,124.01085,48.520362)"
       clip-path="url(#clipPath13)"><tspan
         id="tspan12"
         style="font-variant:normal;font-weight:normal;font-size:12px;font-family:Arial;writing-mode:lr-tb;fill:#000000;fill-opacity:1;fill-rule:nonzero;stroke:none"
         x="0"
         y="0">c-adornment</tspan></text>
  </g>
</svg>
