<?xml version="1.0" encoding="UTF-8" standalone="no"?>
<!-- Created with Inkscape (http://www.inkscape.org/) -->

<svg
   version="1.1"
   id="svg1"
   width="539.84003"
   height="64"
   viewBox="0 0 539.84003 64"
   xmlns="http://www.w3.org/2000/svg"
   xmlns:svg="http://www.w3.org/2000/svg">
  <defs
     id="defs1">
    <clipPath
       clipPathUnits="userSpaceOnUse"
       id="clipPath2">
      <path
         d="M 0,0 H 1685.9863 V 200.97656 H 0 Z"
         transform="scale(0.31999999)"
         clip-rule="evenodd"
         id="path2" />
    </clipPath>
    <clipPath
       clipPathUnits="userSpaceOnUse"
       id="clipPath3">
      <path
         d="m 56.25,3.125 h 1571.875 v 193.75 H 56.25 Z"
         transform="matrix(0.35858538,0,0,0.35858538,-385.63743,-56.800854)"
         clip-rule="evenodd"
         id="path3" />
    </clipPath>
    <clipPath
       clipPathUnits="userSpaceOnUse"
       id="clipPath4">
      <path
         d="m 56.25,3.125 h 1571.875 v 193.75 H 56.25 Z"
         transform="matrix(0.35858538,0,0,0.35858538,-138.63743,-56.800854)"
         clip-rule="evenodd"
         id="path4" />
    </clipPath>
    <clipPath
       clipPathUnits="userSpaceOnUse"
       id="clipPath6">
      <path
         d="m 56.25,3.125 h 1571.875 v 193.75 H 56.25 Z"
         transform="matrix(0.35858538,0,0,0.35858538,78.175081,1144.6991)"
         clip-rule="evenodd"
         id="path6" />
    </clipPath>
    <clipPath
       clipPathUnits="userSpaceOnUse"
       id="clipPath8">
      <path
         d="m 56.25,3.125 h 1571.875 v 193.75 H 56.25 Z"
         transform="matrix(0.35858538,0,0,0.35858538,78.175081,1144.6991)"
         clip-rule="evenodd"
         id="path8" />
    </clipPath>
    <clipPath
       clipPathUnits="userSpaceOnUse"
       id="clipPath9">
      <path
         d="m 56.25,3.125 h 1571.875 v 193.75 H 56.25 Z"
         transform="matrix(0.35858538,0,0,0.35858538,-244.79368,-12.800854)"
         clip-rule="evenodd"
         id="path9" />
    </clipPath>
    <clipPath
       clipPathUnits="userSpaceOnUse"
       id="clipPath10">
      <path
         d="m 56.25,3.125 h 1571.875 v 193.75 H 56.25 Z"
         transform="matrix(0.35858538,0,0,0.35858538,-466.27806,-33.800855)"
         clip-rule="evenodd"
         id="path10" />
    </clipPath>
    <clipPath
       clipPathUnits="userSpaceOnUse"
       id="clipPath11">
      <path
         d="m 56.25,3.125 h 1571.875 v 193.75 H 56.25 Z"
         transform="matrix(0.35858538,0,0,0.35858538,-31.278051,-33.800855)"
         clip-rule="evenodd"
         id="path11" />
    </clipPath>
    <clipPath
       clipPathUnits="userSpaceOnUse"
       id="clipPath12">
      <path
         d="m 56.25,3.125 h 1571.875 v 193.75 H 56.25 Z"
         transform="matrix(0.35858538,0,0,0.35858538,-142.30931,-23.800854)"
         clip-rule="evenodd"
         id="path12" />
    </clipPath>
    <clipPath
       clipPathUnits="userSpaceOnUse"
       id="clipPath13">
      <path
         d="m 56.25,3.125 h 1571.875 v 193.75 H 56.25 Z"
         transform="matrix(0.35858538,0,0,0.35858538,-143.65305,-43.800855)"
         clip-rule="evenodd"
         id="path13" />
    </clipPath>
    <clipPath
       clipPathUnits="userSpaceOnUse"
       id="clipPath14">
      <path
         d="m 56.25,3.125 h 1571.875 v 193.75 H 56.25 Z"
         transform="matrix(0.35858538,0,0,0.35858538,-388.3093,-23.800854)"
         clip-rule="evenodd"
         id="path14" />
    </clipPath>
    <clipPath
       clipPathUnits="userSpaceOnUse"
       id="clipPath15">
      <path
         d="m 56.25,3.125 h 1571.875 v 193.75 H 56.25 Z"
         transform="matrix(0.35858538,0,0,0.35858538,-389.65306,-43.800855)"
         clip-rule="evenodd"
         id="path15" />
    </clipPath>
  </defs>
  <g
     id="g1">
    <path
       id="path1"
       d="M 0,0 H 540 V 64 H 0 Z"
       style="fill:#ffffff;fill-opacity:1;fill-rule:nonzero;stroke:none"
       clip-path="url(#clipPath2)" />
    <text
       id="text2"
       xml:space="preserve"
       transform="matrix(0.89239551,0,0,0.89239551,344.14111,50.688827)"
       clip-path="url(#clipPath3)"><tspan
         id="tspan2"
         style="font-variant:normal;font-weight:normal;font-size:12px;font-family:Arial;writing-mode:lr-tb;fill:#000000;fill-opacity:1;fill-rule:nonzero;stroke:none"
         x="0"
         y="0">c-adornment</tspan></text>
    <text
       id="text3"
       xml:space="preserve"
       transform="matrix(0.89239551,0,0,0.89239551,123.71942,50.688827)"
       clip-path="url(#clipPath4)"><tspan
         id="tspan3"
         style="font-variant:normal;font-weight:normal;font-size:12px;font-family:Arial;writing-mode:lr-tb;fill:#000000;fill-opacity:1;fill-rule:nonzero;stroke:none"
         x="0"
         y="0">c-adornment</tspan></text>
    <path
       id="path5"
       d="M 532.23999,1174.88 208,1174"
       style="fill:none;stroke:#000000;stroke-width:1;stroke-linecap:butt;stroke-linejoin:miter;stroke-miterlimit:10;stroke-dasharray:none;stroke-opacity:1"
       transform="matrix(0.89239551,0,0,0.89239551,-69.763091,-1021.5243)"
       clip-path="url(#clipPath6)" />
    <path
       id="path7"
       d="m 526.34998,1178.37 7.01001,-3.48 -6.98999,-3.52"
       style="fill:none;stroke:#000000;stroke-width:1;stroke-linecap:butt;stroke-linejoin:miter;stroke-miterlimit:10;stroke-dasharray:none;stroke-opacity:1"
       transform="matrix(0.89239551,0,0,0.89239551,-69.763091,-1021.5243)"
       clip-path="url(#clipPath8)" />
    <text
       id="text8"
       xml:space="preserve"
       transform="matrix(0.89239551,0,0,0.89239551,218.45278,11.423425)"
       clip-path="url(#clipPath9)"><tspan
         id="tspan8"
         style="font-variant:normal;font-weight:normal;font-size:12px;font-family:Arial;writing-mode:lr-tb;fill:#000000;fill-opacity:1;fill-rule:nonzero;stroke:none"
         x="0"
         y="0">connection-label?</tspan></text>
    <text
       id="text9"
       xml:space="preserve"
       transform="matrix(0.89239551,0,0,0.89239551,416.10445,30.163731)"
       clip-path="url(#clipPath10)"><tspan
         id="tspan9"
         style="font-variant:normal;font-weight:normal;font-size:12px;font-family:Arial;writing-mode:lr-tb;fill:#000000;fill-opacity:1;fill-rule:nonzero;stroke:none"
         x="0"
         y="0">&amp;connection-end</tspan></text>
    <text
       id="text10"
       xml:space="preserve"
       transform="matrix(0.89239551,0,0,0.89239551,27.912392,30.163731)"
       clip-path="url(#clipPath11)"><tspan
         id="tspan10"
         style="font-variant:normal;font-weight:normal;font-size:12px;font-family:Arial;writing-mode:lr-tb;fill:#000000;fill-opacity:1;fill-rule:nonzero;stroke:none"
         x="0"
         y="0">&amp;connection-end</tspan></text>
    <text
       id="text11"
       xml:space="preserve"
       transform="matrix(0.89239551,0,0,0.89239551,126.99619,21.239775)"
       clip-path="url(#clipPath12)"><tspan
         id="tspan11"
         style="font-variant:normal;font-weight:normal;font-size:12px;font-family:Arial;writing-mode:lr-tb;fill:#000000;fill-opacity:1;fill-rule:nonzero;stroke:none"
         x="0"
         y="0">rolename</tspan></text>
    <text
       id="text12"
       xml:space="preserve"
       transform="matrix(0.89239551,0,0,0.89239551,128.19534,39.087686)"
       clip-path="url(#clipPath13)"><tspan
         id="tspan12"
         style="font-variant:normal;font-weight:normal;font-size:12px;font-family:Arial;writing-mode:lr-tb;fill:#000000;fill-opacity:1;fill-rule:nonzero;stroke:none"
         x="0"
         y="0">multiplicity</tspan></text>
    <text
       id="text13"
       xml:space="preserve"
       transform="matrix(0.89239551,0,0,0.89239551,346.52548,21.239775)"
       clip-path="url(#clipPath14)"><tspan
         id="tspan13"
         style="font-variant:normal;font-weight:normal;font-size:12px;font-family:Arial;writing-mode:lr-tb;fill:#000000;fill-opacity:1;fill-rule:nonzero;stroke:none"
         x="0"
         y="0">rolename</tspan></text>
    <text
       id="text14"
       xml:space="preserve"
       transform="matrix(0.89239551,0,0,0.89239551,347.72464,39.087686)"
       clip-path="url(#clipPath15)"><tspan
         id="tspan14"
         style="font-variant:normal;font-weight:normal;font-size:12px;font-family:Arial;writing-mode:lr-tb;fill:#000000;fill-opacity:1;fill-rule:nonzero;stroke:none"
         x="0"
         y="0">multiplicity</tspan></text>
  </g>
</svg>
