<?xml version="1.0" encoding="UTF-8" standalone="no"?>
<!-- Created with Inkscape (http://www.inkscape.org/) -->

<svg
   version="1.1"
   id="svg1"
   width="45.439999"
   height="26.559999"
   viewBox="0 0 45.439999 26.559999"
   xmlns="http://www.w3.org/2000/svg"
   xmlns:svg="http://www.w3.org/2000/svg">
  <defs
     id="defs1">
    <clipPath
       clipPathUnits="userSpaceOnUse"
       id="clipPath2">
      <path
         d="M 0,0 H 141.01562 V 83.984375 H 0 Z"
         transform="scale(0.31999999)"
         clip-rule="evenodd"
         id="path2" />
    </clipPath>
    <clipPath
       clipPathUnits="userSpaceOnUse"
       id="clipPath4">
      <path
         d="M 56.25,31.25 H 84.375 V 53.125 H 56.25 Z"
         transform="matrix(2.210909,0,0,2.210909,396.70305,2836.9998)"
         clip-rule="evenodd"
         id="path4" />
    </clipPath>
    <clipPath
       clipPathUnits="userSpaceOnUse"
       id="clipPath6">
      <path
         d="M 56.25,31.25 H 84.375 V 53.125 H 56.25 Z"
         transform="matrix(2.210909,0,0,2.210909,396.70305,2836.9998)"
         clip-rule="evenodd"
         id="path6" />
    </clipPath>
    <clipPath
       clipPathUnits="userSpaceOnUse"
       id="clipPath7">
      <path
         d="M 56.25,31.25 H 84.375 V 53.125 H 56.25 Z"
         transform="matrix(2.210909,0,0,2.210909,-173.62508,-95.500047)"
         clip-rule="evenodd"
         id="path7" />
    </clipPath>
  </defs>
  <g
     id="g1">
    <path
       id="path1"
       d="M 0,0 H 45 V 27 H 0 Z"
       style="fill:#ffffff;fill-opacity:1;fill-rule:nonzero;stroke:none"
       clip-path="url(#clipPath2)" />
    <path
       id="path3"
       d="m 550.98999,2927 c 0,2.4851 -0.87866,4.6064 -2.63605,6.3638 -1.75738,1.7573 -3.87866,2.636 -6.36395,2.6362 -2.48529,-2e-4 -4.60663,-0.8789 -6.36395,-2.6362 -1.75739,-1.7574 -2.63605,-3.8787 -2.63605,-6.3638 0,-2.4854 0.87866,-4.6067 2.63605,-6.364 1.75732,-1.7573 3.87866,-2.636 6.36395,-2.636 2.48529,0 4.60657,0.8787 6.36395,2.636 1.75739,1.7573 2.63605,3.8786 2.63605,6.364 z"
       style="fill:#000000;fill-opacity:1;fill-rule:nonzero;stroke:#000000;stroke-width:1;stroke-linecap:butt;stroke-linejoin:miter;stroke-miterlimit:10;stroke-dasharray:none;stroke-opacity:1"
       transform="matrix(0.14473684,0,0,0.14473684,-57.417546,-410.61838)"
       clip-path="url(#clipPath4)" />
    <path
       id="path5"
       d="m 554.98999,2927 c -6e-5,1.7236 -0.32996,3.3816 -0.98968,4.9741 -0.65973,1.5928 -1.59906,2.9988 -2.818,4.2178 -1.21899,1.219 -2.62481,2.1582 -4.21753,2.8181 -1.59271,0.6597 -3.25097,0.9898 -4.97479,0.99 -1.72394,-2e-4 -3.38226,-0.3303 -4.97491,-0.99 -1.59272,-0.6599 -2.99854,-1.5991 -4.21753,-2.8181 -1.21906,-1.219 -2.15839,-2.625 -2.81806,-4.2178 -0.65973,-1.5925 -0.98956,-3.2505 -0.9895,-4.9741 -6e-5,-1.7241 0.32977,-3.3826 0.9895,-4.9753 0.65967,-1.5928 1.599,-2.9986 2.81806,-4.2176 1.21899,-1.219 2.62481,-2.1582 4.21753,-2.8178 1.59265,-0.6595 3.25097,-0.9893 4.97491,-0.9893 1.72382,0 3.38208,0.3298 4.97479,0.9893 1.59272,0.6596 2.99854,1.5988 4.21753,2.8178 1.21894,1.219 2.15827,2.6248 2.818,4.2176 0.65972,1.5927 0.98962,3.2512 0.98968,4.9753 z"
       style="fill:none;stroke:#000000;stroke-width:1;stroke-linecap:butt;stroke-linejoin:miter;stroke-miterlimit:10;stroke-dasharray:none;stroke-opacity:1"
       transform="matrix(0.14473684,0,0,0.14473684,-57.417546,-410.61838)"
       clip-path="url(#clipPath6)" />
    <g
       id="g6" />
    <text
       id="text6"
       xml:space="preserve"
       transform="matrix(0.14473684,0,0,0.14473684,25.129946,13.822375)"
       clip-path="url(#clipPath7)"><tspan
         id="tspan6"
         style="font-variant:normal;font-weight:normal;font-size:12px;font-family:Arial;writing-mode:lr-tb;fill:#000000;fill-opacity:1;fill-rule:nonzero;stroke:none"
         x="0"
         y="0"> </tspan></text>
  </g>
</svg>
