<?xml version="1.0" encoding="UTF-8" standalone="no"?>
<!-- Created with Inkscape (http://www.inkscape.org/) -->

<svg
   version="1.1"
   id="svg1"
   width="517.44"
   height="61.439999"
   viewBox="0 0 517.44 61.439999"
   xmlns="http://www.w3.org/2000/svg"
   xmlns:svg="http://www.w3.org/2000/svg">
  <defs
     id="defs1">
    <clipPath
       clipPathUnits="userSpaceOnUse"
       id="clipPath2">
      <path
         d="M 0,0 H 1616.9922 V 191.99219 H 0 Z"
         transform="scale(0.31999999)"
         clip-rule="evenodd"
         id="path2" />
    </clipPath>
    <clipPath
       clipPathUnits="userSpaceOnUse"
       id="clipPath3">
      <path
         d="M 56.25,6.25 H 1559.375 V 187.5 H 56.25 Z"
         transform="matrix(0.36044346,0,0,0.36044346,-49.424682,-54.379155)"
         clip-rule="evenodd"
         id="path3" />
    </clipPath>
    <clipPath
       clipPathUnits="userSpaceOnUse"
       id="clipPath5">
      <path
         d="M 56.25,6.25 H 1559.375 V 187.5 H 56.25 Z"
         transform="matrix(0.36044346,0,0,0.36044346,-2.955931,156.12084)"
         clip-rule="evenodd"
         id="path5" />
    </clipPath>
    <clipPath
       clipPathUnits="userSpaceOnUse"
       id="clipPath7">
      <path
         d="M 56.25,6.25 H 1559.375 V 187.5 H 56.25 Z"
         transform="matrix(0.36044346,0,0,0.36044346,-2.955931,156.12084)"
         clip-rule="evenodd"
         id="path7" />
    </clipPath>
    <clipPath
       clipPathUnits="userSpaceOnUse"
       id="clipPath9">
      <path
         d="M 56.25,6.25 H 1559.375 V 187.5 H 56.25 Z"
         transform="matrix(0.36044346,0,0,0.36044346,-2.4559322,156.62085)"
         clip-rule="evenodd"
         id="path9" />
    </clipPath>
    <clipPath
       clipPathUnits="userSpaceOnUse"
       id="clipPath10">
      <path
         d="M 56.25,6.25 H 1559.375 V 187.5 H 56.25 Z"
         transform="matrix(0.36044346,0,0,0.36044346,-262.83093,-35.379155)"
         clip-rule="evenodd"
         id="path10" />
    </clipPath>
    <clipPath
       clipPathUnits="userSpaceOnUse"
       id="clipPath11">
      <path
         d="M 56.25,6.25 H 1559.375 V 187.5 H 56.25 Z"
         transform="matrix(0.36044346,0,0,0.36044346,-447.42468,-54.379155)"
         clip-rule="evenodd"
         id="path11" />
    </clipPath>
    <clipPath
       clipPathUnits="userSpaceOnUse"
       id="clipPath13">
      <path
         d="M 56.25,6.25 H 1559.375 V 187.5 H 56.25 Z"
         transform="matrix(0.36044346,0,0,0.36044346,-2.4559322,156.62085)"
         clip-rule="evenodd"
         id="path13" />
    </clipPath>
    <clipPath
       clipPathUnits="userSpaceOnUse"
       id="clipPath14">
      <path
         d="M 56.25,6.25 H 1559.375 V 187.5 H 56.25 Z"
         transform="matrix(0.36044346,0,0,0.36044346,-262.45593,-21.379154)"
         clip-rule="evenodd"
         id="path14" />
    </clipPath>
  </defs>
  <g
     id="g1">
    <path
       id="path1"
       d="M 0,0 H 517 V 61 H 0 Z"
       style="fill:#ffffff;fill-opacity:1;fill-rule:nonzero;stroke:none"
       clip-path="url(#clipPath2)" />
    <text
       id="text2"
       xml:space="preserve"
       transform="matrix(0.88779523,0,0,0.88779523,43.878997,48.277554)"
       clip-path="url(#clipPath3)"><tspan
         id="tspan2"
         style="font-variant:normal;font-weight:normal;font-size:12px;font-family:Arial;writing-mode:lr-tb;fill:#000000;fill-opacity:1;fill-rule:nonzero;stroke:none"
         x="0"
         y="0">&amp;flow-end-node</tspan></text>
    <path
       id="path4"
       d="M 135,206 H 430.88"
       style="fill:none;stroke:#000000;stroke-width:1;stroke-linecap:butt;stroke-linejoin:miter;stroke-miterlimit:10;stroke-dasharray:none;stroke-opacity:1"
       transform="matrix(0.88779523,0,0,0.88779523,2.6242614,-138.60334)"
       clip-path="url(#clipPath5)" />
    <path
       id="path6"
       d="m 439.88,206 -9,4.5 v -9 z"
       style="fill:#000000;fill-opacity:1;fill-rule:nonzero;stroke:#000000;stroke-width:1;stroke-linecap:butt;stroke-linejoin:miter;stroke-miterlimit:10;stroke-dasharray:none;stroke-opacity:1"
       transform="matrix(0.88779523,0,0,0.88779523,2.6242614,-138.60334)"
       clip-path="url(#clipPath7)" />
    <path
       id="path8"
       d="m 260,177 h 43 v 19 h -43 z"
       style="fill:#ffffff;fill-opacity:1;fill-rule:nonzero;stroke:none"
       transform="matrix(0.88779523,0,0,0.88779523,2.1803649,-139.04724)"
       clip-path="url(#clipPath9)" />
    <text
       id="text9"
       xml:space="preserve"
       transform="matrix(0.88779523,0,0,0.88779523,233.34005,31.409445)"
       clip-path="url(#clipPath10)"><tspan
         id="tspan9"
         style="font-variant:normal;font-weight:normal;font-size:10px;font-family:Arial;writing-mode:lr-tb;fill:#000000;fill-opacity:1;fill-rule:nonzero;stroke:none"
         x="0"
         y="0">flow-label</tspan></text>
    <text
       id="text10"
       xml:space="preserve"
       transform="matrix(0.88779523,0,0,0.88779523,397.2215,48.277554)"
       clip-path="url(#clipPath11)"><tspan
         id="tspan10"
         style="font-variant:normal;font-weight:normal;font-size:12px;font-family:Arial;writing-mode:lr-tb;fill:#000000;fill-opacity:1;fill-rule:nonzero;stroke:none"
         x="0"
         y="0">&amp;flow-end-node</tspan></text>
    <path
       id="path12"
       d="m 260,169 h 38 v 11 h -38 z"
       style="fill:#f8f9fa;fill-opacity:1;fill-rule:nonzero;stroke:none"
       transform="matrix(0.88779523,0,0,0.88779523,2.1803649,-139.04724)"
       clip-path="url(#clipPath13)" />
    <text
       id="text13"
       xml:space="preserve"
       transform="matrix(0.88779523,0,0,0.88779523,233.00712,18.980311)"
       clip-path="url(#clipPath14)"><tspan
         id="tspan13"
         style="font-variant:normal;font-weight:normal;font-size:10px;font-family:Arial;writing-mode:lr-tb;fill:#000000;fill-opacity:1;fill-rule:nonzero;stroke:none"
         x="0"
         y="0">'«flow»'?</tspan></text>
  </g>
</svg>
