<?xml version="1.0" encoding="UTF-8" standalone="no"?>
<!-- Created with Inkscape (http://www.inkscape.org/) -->

<svg
   version="1.1"
   id="svg1"
   width="372.16"
   height="30.719999"
   viewBox="0 0 372.16 30.719999"
   xmlns="http://www.w3.org/2000/svg"
   xmlns:svg="http://www.w3.org/2000/svg">
  <defs
     id="defs1">
    <clipPath
       clipPathUnits="userSpaceOnUse"
       id="clipPath2">
      <path
         d="M 0,0 H 1160.9863 V 95.996094 H 0 Z"
         transform="scale(0.31999999)"
         clip-rule="evenodd"
         id="path2" />
    </clipPath>
    <clipPath
       clipPathUnits="userSpaceOnUse"
       id="clipPath3">
      <path
         d="M 56.25,3.125 H 1103.125 V 93.75 H 56.25 Z"
         transform="matrix(0.37139897,0,0,0.37139897,-344.93944,-21.32124)"
         clip-rule="evenodd"
         id="path3" />
    </clipPath>
    <clipPath
       clipPathUnits="userSpaceOnUse"
       id="clipPath4">
      <path
         d="M 56.25,3.125 H 1103.125 V 93.75 H 56.25 Z"
         transform="matrix(0.37139897,0,0,0.37139897,-31.43944,-21.32124)"
         clip-rule="evenodd"
         id="path4" />
    </clipPath>
    <clipPath
       clipPathUnits="userSpaceOnUse"
       id="clipPath6">
      <path
         d="M 56.25,3.125 H 1103.125 V 93.75 H 56.25 Z"
         transform="matrix(0.37139897,0,0,0.37139897,17.373057,319.17874)"
         clip-rule="evenodd"
         id="path6" />
    </clipPath>
    <clipPath
       clipPathUnits="userSpaceOnUse"
       id="clipPath8">
      <path
         d="M 56.25,3.125 H 1103.125 V 93.75 H 56.25 Z"
         transform="matrix(0.37139897,0,0,0.37139897,17.373057,319.17874)"
         clip-rule="evenodd"
         id="path8" />
    </clipPath>
    <clipPath
       clipPathUnits="userSpaceOnUse"
       id="clipPath9">
      <path
         d="M 56.25,3.125 H 1103.125 V 93.75 H 56.25 Z"
         transform="matrix(0.37139897,0,0,0.37139897,-200.76757,-21.32124)"
         clip-rule="evenodd"
         id="path9" />
    </clipPath>
  </defs>
  <g
     id="g1">
    <path
       id="path1"
       d="M 0,0 H 372 V 31 H 0 Z"
       style="fill:#ffffff;fill-opacity:1;fill-rule:nonzero;stroke:none"
       clip-path="url(#clipPath2)" />
    <text
       id="text2"
       xml:space="preserve"
       transform="matrix(0.8616071,0,0,0.8616071,297.20227,18.370532)"
       clip-path="url(#clipPath3)"><tspan
         id="tspan2"
         style="font-variant:normal;font-weight:normal;font-size:12px;font-family:Arial;writing-mode:lr-tb;fill:#000000;fill-opacity:1;fill-rule:nonzero;stroke:none"
         x="0"
         y="0">&amp;port-node</tspan></text>
    <text
       id="text3"
       xml:space="preserve"
       transform="matrix(0.8616071,0,0,0.8616071,27.088445,18.370532)"
       clip-path="url(#clipPath4)"><tspan
         id="tspan3"
         style="font-variant:normal;font-weight:normal;font-size:12px;font-family:Arial;writing-mode:lr-tb;fill:#000000;fill-opacity:1;fill-rule:nonzero;stroke:none"
         x="0"
         y="0">&amp;port-node</tspan></text>
    <path
       id="path5"
       d="M 114,338 H 360"
       style="fill:none;stroke:#000000;stroke-width:1;stroke-linecap:butt;stroke-linejoin:miter;stroke-miterlimit:10;stroke-dasharray:none;stroke-opacity:1"
       transform="matrix(0.8616071,0,0,0.8616071,-14.968749,-275.00667)"
       clip-path="url(#clipPath6)" />
    <path
       id="path7"
       d="m 217,327 h 60 v 20 h -60 z"
       style="fill:#ffffff;fill-opacity:1;fill-rule:nonzero;stroke:none"
       transform="matrix(0.8616071,0,0,0.8616071,-14.968749,-275.00667)"
       clip-path="url(#clipPath8)" />
    <text
       id="text8"
       xml:space="preserve"
       transform="matrix(0.8616071,0,0,0.8616071,172.98276,18.370532)"
       clip-path="url(#clipPath9)"><tspan
         id="tspan8"
         style="font-variant:normal;font-weight:normal;font-size:12px;font-family:Arial;writing-mode:lr-tb;fill:#000000;fill-opacity:1;fill-rule:nonzero;stroke:none"
         x="0"
         y="0">flow-node*</tspan></text>
  </g>
</svg>
