<?xml version="1.0" encoding="UTF-8" standalone="no"?>
<!-- Created with Inkscape (http://www.inkscape.org/) -->

<svg
   version="1.1"
   id="svg1"
   width="256"
   height="104"
   viewBox="0 0 256 104"
   xmlns="http://www.w3.org/2000/svg"
   xmlns:svg="http://www.w3.org/2000/svg">
  <defs
     id="defs1">
    <clipPath
       clipPathUnits="userSpaceOnUse"
       id="clipPath2">
      <path
         d="M 0,0 H 800.97656 V 326 H 0 Z"
         transform="scale(0.31999999)"
         clip-rule="evenodd"
         id="path2" />
    </clipPath>
    <clipPath
       clipPathUnits="userSpaceOnUse"
       id="clipPath4">
      <path
         d="m 56.25,21.875 h 687.5 V 306.25 H 56.25 Z"
         transform="matrix(0.39200169,0,0,0.39200169,53.987604,1760.23)"
         clip-rule="evenodd"
         id="path4" />
    </clipPath>
    <clipPath
       clipPathUnits="userSpaceOnUse"
       id="clipPath5">
      <path
         d="m 56.25,21.875 h 687.5 V 306.25 H 56.25 Z"
         transform="matrix(0.39200169,0,0,0.39200169,-62.809274,-53.269836)"
         clip-rule="evenodd"
         id="path5" />
    </clipPath>
    <clipPath
       clipPathUnits="userSpaceOnUse"
       id="clipPath6">
      <path
         d="m 56.25,21.875 h 687.5 V 306.25 H 56.25 Z"
         transform="matrix(0.39200169,0,0,0.39200169,-104.49677,-82.269836)"
         clip-rule="evenodd"
         id="path6" />
    </clipPath>
  </defs>
  <g
     id="g1">
    <path
       id="path1"
       d="M 0,0 H 256 V 105 H 0 Z"
       style="fill:#ffffff;fill-opacity:1;fill-rule:nonzero;stroke:none"
       clip-path="url(#clipPath2)" />
    <path
       id="path3"
       d="m 102.86,1771.03 h 215.28001 c 1.61393,0 3.21238,0.1574 4.79529,0.4722 1.58292,0.3148 3.11994,0.7811 4.61103,1.3987 1.49108,0.6177 2.90762,1.3747 4.24957,2.2713 1.34195,0.8968 2.58353,1.9157 3.72476,3.0569 1.14121,1.1413 2.16016,2.3828 3.05682,3.7248 0.89664,1.3419 1.65378,2.7584 2.27143,4.2495 0.61764,1.4911 1.08389,3.0282 1.39874,4.6111 0.31491,1.583 0.47235,3.1815 0.47235,4.7955 v 57.7101 c 0,1.6139 -0.15744,3.2121 -0.47235,4.795 -0.31485,1.5829 -0.7811,3.1199 -1.39874,4.611 -0.61765,1.4911 -1.37479,2.9076 -2.27143,4.2495 -0.89666,1.3419 -1.91561,2.5836 -3.05682,3.725 -1.14123,1.1411 -2.38281,2.16 -3.72476,3.0567 -1.34195,0.8966 -2.75849,1.6538 -4.24957,2.2715 -1.49109,0.6177 -3.02811,1.084 -4.61103,1.3988 -1.58291,0.315 -3.18136,0.4724 -4.79529,0.4724 H 102.86 c -1.61395,0 -3.212394,-0.1574 -4.795326,-0.4724 -1.582939,-0.3148 -3.119949,-0.7811 -4.611038,-1.3988 -1.491096,-0.6177 -2.907615,-1.3749 -4.249557,-2.2715 -1.341942,-0.8967 -2.583535,-1.9156 -3.72477,-3.0567 -1.141235,-1.1414 -2.160179,-2.3831 -3.056839,-3.725 -0.89666,-1.3419 -1.653809,-2.7583 -2.271439,-4.2494 -0.61763,-1.4911 -1.083877,-3.0281 -1.398742,-4.611 -0.314865,-1.5829 -0.472298,-3.1812 -0.47229,-4.7951 V 1795.61 c -8e-6,-1.614 0.157425,-3.2125 0.47229,-4.7954 0.314865,-1.583 0.781112,-3.1201 1.398742,-4.6112 0.61763,-1.4911 1.374779,-2.9075 2.271439,-4.2493 0.89666,-1.342 1.915604,-2.5836 3.056839,-3.7249 1.141235,-1.1412 2.382828,-2.1602 3.724777,-3.0568 1.341942,-0.8966 2.758454,-1.6538 4.24955,-2.2714 1.491089,-0.6176 3.028099,-1.0839 4.611031,-1.3987 1.582939,-0.3148 3.181383,-0.4723 4.795333,-0.4723 z"
       style="fill:#ffffff;fill-opacity:1;fill-rule:nonzero;stroke:#000000;stroke-width:1;stroke-linecap:butt;stroke-linejoin:miter;stroke-miterlimit:10;stroke-dasharray:none;stroke-opacity:1"
       transform="matrix(0.81632297,0,0,0.81632297,-44.071321,-1436.9162)"
       clip-path="url(#clipPath4)" />
    <text
       id="text4"
       xml:space="preserve"
       transform="matrix(0.81632297,0,0,0.81632297,51.272653,43.485391)"
       clip-path="url(#clipPath5)"><tspan
         id="tspan4"
         style="font-variant:normal;font-weight:normal;font-size:12px;font-family:Arial;writing-mode:lr-tb;fill:#000000;fill-opacity:1;fill-rule:nonzero;stroke:none"
         x="0"
         y="0">frame-concern-name-compartment</tspan></text>
    <text
       id="text5"
       xml:space="preserve"
       transform="matrix(0.81632297,0,0,0.81632297,85.303117,67.158757)"
       clip-path="url(#clipPath6)"><tspan
         id="tspan5"
         style="font-variant:normal;font-weight:normal;font-size:12px;font-family:Arial;writing-mode:lr-tb;fill:#000000;fill-opacity:1;fill-rule:nonzero;stroke:none"
         x="0"
         y="0">compartment-stack</tspan></text>
  </g>
</svg>
