<?xml version="1.0" encoding="UTF-8" standalone="no"?>
<!-- Created with Inkscape (http://www.inkscape.org/) -->

<svg
   version="1.1"
   id="svg1"
   width="155.84"
   height="90.559998"
   viewBox="0 0 155.84 90.559998"
   xmlns="http://www.w3.org/2000/svg"
   xmlns:svg="http://www.w3.org/2000/svg">
  <defs
     id="defs1">
    <clipPath
       clipPathUnits="userSpaceOnUse"
       id="clipPath2">
      <path
         d="M 0,0 H 488 V 281.98242 H 0 Z"
         transform="scale(0.31999999)"
         clip-rule="evenodd"
         id="path2" />
    </clipPath>
    <clipPath
       clipPathUnits="userSpaceOnUse"
       id="clipPath4">
      <path
         d="m 56.25,31.25 h 375 V 250 h -375 z"
         transform="matrix(0.44035492,0,0,0.44035492,452.84896,52.862795)"
         clip-rule="evenodd"
         id="path4" />
    </clipPath>
    <clipPath
       clipPathUnits="userSpaceOnUse"
       id="clipPath5">
      <path
         d="m 56.25,31.25 h 375 V 250 h -375 z"
         transform="matrix(0.44035492,0,0,0.44035492,-73.463563,-76.637203)"
         clip-rule="evenodd"
         id="path5" />
    </clipPath>
    <clipPath
       clipPathUnits="userSpaceOnUse"
       id="clipPath7">
      <path
         d="m 56.25,31.25 h 375 V 250 h -375 z"
         transform="matrix(0.44035492,0,0,-0.44035492,452.84896,107.13719)"
         clip-rule="evenodd"
         id="path7" />
    </clipPath>
    <clipPath
       clipPathUnits="userSpaceOnUse"
       id="clipPath19">
      <path
         d="m 56.25,31.25 h 375 V 250 h -375 z"
         transform="matrix(0.44035492,0,0,0.44035492,-28.651064,-30.637203)"
         clip-rule="evenodd"
         id="path19" />
    </clipPath>
  </defs>
  <g
     id="g1">
    <path
       id="path1"
       d="M 0,0 H 156 V 90 H 0 Z"
       style="fill:#ffffff;fill-opacity:1;fill-rule:nonzero;stroke:none"
       clip-path="url(#clipPath2)" />
    <path
       id="path3"
       d="m 500,90.5 h 10 v 1 h -10 z m 20,0 h 10 v 1 h -10 z m 20,0 h 10 v 1 h -10 z m 20,0 h 10 v 1 h -10 z m 20,0 h 10 v 1 h -10 z m 20,0 h 10 v 1 h -10 z m 20,0 h 10 v 1 h -10 z m 20.5,0.5 v 10 h -1 V 91 Z m 0,20 v 10 h -1 v -10 z m 0,20 v 10 h -1 v -10 z m 0,20 v 10 h -1 V 151 Z M 630,161.5 h -10 v -1 h 10 z m -20,0 h -10 v -1 h 10 z m -20,0 h -10 v -1 h 10 z m -20,0 h -10 v -1 h 10 z m -20,0 h -10 v -1 h 10 z m -20,0 h -10 v -1 h 10 z m -20,0 h -10 v -1 h 10 z m -20,0 h -10 v -1 h 10 z M 479.5,151 v -10 h 1 v 10 z m 0,-20 v -10 h 1 v 10 z m 0,-20 v -10 h 1 v 10 z M 480,90.5 h 10 v 1 h -10 z"
       style="fill:#000000;fill-opacity:1;fill-rule:nonzero;stroke:none"
       transform="matrix(0.72668653,0,0,0.72668653,-329.07924,-38.414681)"
       clip-path="url(#clipPath4)" />
    <text
       id="text4"
       xml:space="preserve"
       transform="matrix(0.72668653,0,0,0.72668653,53.384982,55.691223)"
       clip-path="url(#clipPath5)"><tspan
         id="tspan4"
         style="font-variant:normal;font-weight:normal;font-size:12px;font-family:Arial;writing-mode:lr-tb;fill:#000000;fill-opacity:1;fill-rule:nonzero;stroke:none"
         x="0"
         y="0">Identification</tspan></text>
    <path
       id="path6"
       d="m 500,68.5 h 10 v 1 h -10 z m 20,0 h 10 v 1 h -10 z m 20,0 h 10 v 1 h -10 z m 20,0 h 10 v 1 h -10 z m 14.5,6.5 v 10 h -1 V 75 Z M 570,91.5 h -10 v -1 h 10 z m -20,0 h -10 v -1 h 10 z m -20,0 h -10 v -1 h 10 z m -20,0 h -10 v -1 h 10 z m -20,0 h -10 v -1 h 10 z M 479.5,81 V 71 h 1 V 81 Z M 480,68.5 h 10 v 1 h -10 z"
       style="fill:#000000;fill-opacity:1;fill-rule:nonzero;stroke:none"
       transform="matrix(0.72668653,0,0,-0.72668653,-329.07924,77.855152)"
       clip-path="url(#clipPath7)" />
    <g
       id="g7" />
    <g
       id="g8" />
    <g
       id="g9" />
    <g
       id="g10" />
    <g
       id="g11" />
    <g
       id="g12" />
    <g
       id="g13" />
    <g
       id="g14" />
    <g
       id="g15" />
    <g
       id="g16" />
    <g
       id="g17" />
    <g
       id="g18" />
    <g
       id="g19" />
    <text
       id="text19"
       xml:space="preserve"
       transform="matrix(0.72668653,0,0,0.72668653,20.820342,22.263643)"
       clip-path="url(#clipPath19)"><tspan
         id="tspan19"
         style="font-variant:normal;font-weight:700;font-size:12px;font-family:Arial;writing-mode:lr-tb;fill:#000000;fill-opacity:1;fill-rule:nonzero;stroke:none"
         x="0"
         y="0">                        </tspan></text>
  </g>
</svg>
