<?xml version="1.0" encoding="UTF-8" standalone="no"?>
<!-- Created with Inkscape (http://www.inkscape.org/) -->

<svg
   version="1.1"
   id="svg1"
   width="272"
   height="16"
   viewBox="0 0 272 16"
   xmlns="http://www.w3.org/2000/svg"
   xmlns:svg="http://www.w3.org/2000/svg">
  <defs
     id="defs1">
    <clipPath
       clipPathUnits="userSpaceOnUse"
       id="clipPath2">
      <path
         d="M 0,0 H 849.02344 V 50.976563 H 0 Z"
         transform="scale(0.31999999)"
         clip-rule="evenodd"
         id="path2" />
    </clipPath>
    <clipPath
       clipPathUnits="userSpaceOnUse"
       id="clipPath4">
      <path
         d="M 56.25,0 H 790.625 V 50 H 56.25 Z"
         transform="matrix(0.38900557,0,0,0.38900557,55.850001,3917.7842)"
         clip-rule="evenodd"
         id="path4" />
    </clipPath>
    <clipPath
       clipPathUnits="userSpaceOnUse"
       id="clipPath6">
      <path
         d="M 56.25,0 H 790.625 V 50 H 56.25 Z"
         transform="matrix(0.38900557,0,0,0.38900557,56.349993,3918.284)"
         clip-rule="evenodd"
         id="path6" />
    </clipPath>
    <clipPath
       clipPathUnits="userSpaceOnUse"
       id="clipPath7">
      <path
         d="M 56.25,0 H 790.625 V 50 H 56.25 Z"
         transform="matrix(0.38900557,0,0,0.38900557,-134.50939,-13.715988)"
         clip-rule="evenodd"
         id="path7" />
    </clipPath>
    <clipPath
       clipPathUnits="userSpaceOnUse"
       id="clipPath8">
      <path
         d="M 56.25,0 H 790.625 V 50 H 56.25 Z"
         transform="matrix(0.38900557,0,0,0.38900557,-154.15,-13.715988)"
         clip-rule="evenodd"
         id="path8" />
    </clipPath>
    <clipPath
       clipPathUnits="userSpaceOnUse"
       id="clipPath9">
      <path
         d="M 56.25,0 H 790.625 V 50 H 56.25 Z"
         transform="matrix(0.38900557,0,0,0.38900557,-191.50938,-13.715988)"
         clip-rule="evenodd"
         id="path9" />
    </clipPath>
  </defs>
  <g
     id="g1">
    <path
       id="path1"
       d="M 0,0 H 272 V 16 H 0 Z"
       style="fill:#ffffff;fill-opacity:1;fill-rule:nonzero;stroke:none"
       clip-path="url(#clipPath2)" />
    <path
       id="path3"
       d="M 80,3920 H 360"
       style="fill:none;stroke:#000000;stroke-width:1;stroke-linecap:butt;stroke-linejoin:miter;stroke-miterlimit:10;stroke-dasharray:none;stroke-opacity:1"
       transform="matrix(0.8226103,0,0,0.8226103,-45.942786,-3222.8096)"
       clip-path="url(#clipPath4)" />
    <path
       id="path5"
       d="m 191,3921 h 59 v 14 h -59 z"
       style="fill:#ffffff;fill-opacity:1;fill-rule:nonzero;stroke:none"
       transform="matrix(0.8226103,0,0,0.8226103,-46.354085,-3223.2208)"
       clip-path="url(#clipPath6)" />
    <g
       id="g6" />
    <text
       id="text6"
       xml:space="preserve"
       transform="matrix(0.8226103,0,0,0.8226103,110.64881,11.282913)"
       clip-path="url(#clipPath7)"><tspan
         id="tspan6"
         style="font-variant:normal;font-weight:normal;font-size:12px;font-family:Arial;writing-mode:lr-tb;fill:#000000;fill-opacity:1;fill-rule:nonzero;stroke:none"
         x="0"
         y="0">'for </tspan></text>
    <text
       id="text7"
       xml:space="preserve"
       transform="matrix(0.8226103,0,0,0.8226103,126.80538,11.282913)"
       clip-path="url(#clipPath8)"><tspan
         id="tspan7"
         style="font-variant:normal;font-weight:normal;font-size:12px;font-family:Arial;writing-mode:lr-tb;fill:#000000;fill-opacity:1;fill-rule:nonzero;stroke:none"
         x="0"
         y="0">iterator</tspan></text>
    <text
       id="text8"
       xml:space="preserve"
       transform="matrix(0.8226103,0,0,0.8226103,157.53759,11.282913)"
       clip-path="url(#clipPath9)"><tspan
         id="tspan8"
         style="font-variant:normal;font-weight:normal;font-size:12px;font-family:Arial;writing-mode:lr-tb;fill:#000000;fill-opacity:1;fill-rule:nonzero;stroke:none"
         x="0"
         y="0">'</tspan></text>
  </g>
</svg>
