<?xml version="1.0" encoding="UTF-8" standalone="no"?>
<!-- Created with Inkscape (http://www.inkscape.org/) -->

<svg
   version="1.1"
   id="svg1"
   width="61.439999"
   height="6.7199998"
   viewBox="0 0 61.439999 6.7199998"
   xmlns="http://www.w3.org/2000/svg"
   xmlns:svg="http://www.w3.org/2000/svg">
  <defs
     id="defs1">
    <clipPath
       clipPathUnits="userSpaceOnUse"
       id="clipPath2">
      <path
         d="M 0,0 H 191.99219 V 20.996094 H 0 Z"
         transform="scale(0.31999999)"
         clip-rule="evenodd"
         id="path2" />
    </clipPath>
    <clipPath
       clipPathUnits="userSpaceOnUse"
       id="clipPath4">
      <path
         d="m 56.25,3.125 h 78.125 V 18.75 H 56.25 Z"
         transform="matrix(0,-0.89342285,0.89342285,0,331.65611,3027.4916)"
         clip-rule="evenodd"
         id="path4" />
    </clipPath>
  </defs>
  <g
     id="g1">
    <path
       id="path1"
       d="M 0,0 H 61 V 7 H 0 Z"
       style="fill:#ffffff;fill-opacity:1;fill-rule:nonzero;stroke:none"
       clip-path="url(#clipPath2)" />
    <path
       id="path3"
       d="m 338.48999,2911.25 h 3.5 c 0.5,0 0.75,0.25 0.75,0.75 v 61 c 0,0.5 -0.25,0.75 -0.75,0.75 h -3.5 c -0.5,0 -0.75,-0.25 -0.75,-0.75 v -61 c 0,-0.5 0.25,-0.75 0.75,-0.75 z"
       style="fill:#000000;fill-opacity:1;fill-rule:nonzero;stroke:none"
       transform="matrix(0,0.35817305,-0.35817305,0,1084.3659,-118.79028)"
       clip-path="url(#clipPath4)" />
  </g>
</svg>
