<?xml version="1.0" encoding="UTF-8" standalone="no"?>
<!-- Created with Inkscape (http://www.inkscape.org/) -->

<svg
   version="1.1"
   id="svg1"
   width="80"
   height="50.559998"
   viewBox="0 0 80 50.559998"
   xmlns="http://www.w3.org/2000/svg"
   xmlns:svg="http://www.w3.org/2000/svg">
  <defs
     id="defs1">
    <clipPath
       clipPathUnits="userSpaceOnUse"
       id="clipPath2">
      <path
         d="M 0,0 H 249.02344 V 158.98437 H 0 Z"
         transform="scale(0.31999999)"
         clip-rule="evenodd"
         id="path2" />
    </clipPath>
    <clipPath
       clipPathUnits="userSpaceOnUse"
       id="clipPath4">
      <path
         d="M 56.25,34.375 H 190.625 V 125 H 56.25 Z"
         transform="matrix(0.64702526,0,0,0.64702526,9.5826893,507.73661)"
         clip-rule="evenodd"
         id="path4" />
    </clipPath>
    <clipPath
       clipPathUnits="userSpaceOnUse"
       id="clipPath5">
      <path
         d="M 56.25,34.375 H 190.625 V 125 H 56.25 Z"
         transform="matrix(0.64702526,0,0,0.64702526,-46.417311,-42.2634)"
         clip-rule="evenodd"
         id="path5" />
    </clipPath>
    <clipPath
       clipPathUnits="userSpaceOnUse"
       id="clipPath6">
      <path
         d="M 56.25,34.375 H 190.625 V 125 H 56.25 Z"
         transform="matrix(0.64702526,0,0,0.64702526,-41.886061,-57.2634)"
         clip-rule="evenodd"
         id="path6" />
    </clipPath>
    <clipPath
       clipPathUnits="userSpaceOnUse"
       id="clipPath8">
      <path
         d="M 56.25,34.375 H 190.625 V 125 H 56.25 Z"
         transform="matrix(0.64702526,0,0,0.64702526,9.08269,507.2366)"
         clip-rule="evenodd"
         id="path8" />
    </clipPath>
    <clipPath
       clipPathUnits="userSpaceOnUse"
       id="clipPath10">
      <path
         d="M 56.25,34.375 H 190.625 V 125 H 56.25 Z"
         transform="matrix(0.64702526,0,0,0.64702526,9.08269,507.2366)"
         clip-rule="evenodd"
         id="path10" />
    </clipPath>
    <clipPath
       clipPathUnits="userSpaceOnUse"
       id="clipPath12">
      <path
         d="M 56.25,34.375 H 190.625 V 125 H 56.25 Z"
         transform="matrix(0.64702526,0,0,0.64702526,9.08269,507.2366)"
         clip-rule="evenodd"
         id="path12" />
    </clipPath>
  </defs>
  <g
     id="g1">
    <path
       id="path1"
       d="M 0,0 H 80 V 51 H 0 Z"
       style="fill:#ffffff;fill-opacity:1;fill-rule:nonzero;stroke:none"
       clip-path="url(#clipPath2)" />
    <path
       id="path3"
       d="m 56,541 h 61 v 11 H 56 Z"
       style="fill:#f8f9fa;fill-opacity:1;fill-rule:nonzero;stroke:none"
       transform="matrix(0.49457109,0,0,0.49457109,-4.7393211,-251.11185)"
       clip-path="url(#clipPath4)" />
    <text
       id="text4"
       xml:space="preserve"
       transform="matrix(0.49457109,0,0,0.49457109,22.95666,20.902256)"
       clip-path="url(#clipPath5)"><tspan
         id="tspan4"
         style="font-variant:normal;font-weight:normal;font-size:10px;font-family:Arial;writing-mode:lr-tb;fill:#000000;fill-opacity:1;fill-rule:nonzero;stroke:none"
         x="0"
         y="0">'«message»'?</tspan></text>
    <text
       id="text5"
       xml:space="preserve"
       transform="matrix(0.49457109,0,0,0.49457109,20.715635,28.320822)"
       clip-path="url(#clipPath6)"><tspan
         id="tspan5"
         style="font-variant:normal;font-weight:normal;font-size:10px;font-family:Arial;writing-mode:lr-tb;fill:#000000;fill-opacity:1;fill-rule:nonzero;stroke:none"
         x="0"
         y="0">message-label</tspan></text>
    <path
       id="path7"
       d="M 110.97,574.14001 93.940002,574"
       style="fill:none;stroke:#000000;stroke-width:1;stroke-linecap:butt;stroke-linejoin:miter;stroke-miterlimit:10;stroke-dasharray:none;stroke-opacity:1"
       transform="matrix(0.49457109,0,0,0.49457109,-4.4920359,-250.86456)"
       clip-path="url(#clipPath8)" />
    <path
       id="path9"
       d="M 68.07,574.48999 87.629997,574.13"
       style="fill:none;stroke:#000000;stroke-width:1;stroke-linecap:butt;stroke-linejoin:miter;stroke-miterlimit:10;stroke-dasharray:none;stroke-opacity:1"
       transform="matrix(0.49457109,0,0,0.49457109,-4.4920359,-250.86456)"
       clip-path="url(#clipPath10)" />
    <path
       id="path11"
       d="m 93.629997,574.02002 -7.93,4.14996 1.93,-4.03998 -2.069999,-3.96002 z"
       style="fill:none;stroke:#000000;stroke-width:1;stroke-linecap:butt;stroke-linejoin:miter;stroke-miterlimit:10;stroke-dasharray:none;stroke-opacity:1"
       transform="matrix(0.49457109,0,0,0.49457109,-4.4920359,-250.86456)"
       clip-path="url(#clipPath12)" />
  </g>
</svg>
