<?xml version="1.0" encoding="UTF-8" standalone="no"?>
<!-- Created with Inkscape (http://www.inkscape.org/) -->

<svg
   version="1.1"
   id="svg1"
   width="85.440002"
   height="30.719999"
   viewBox="0 0 85.440002 30.719999"
   xmlns="http://www.w3.org/2000/svg"
   xmlns:svg="http://www.w3.org/2000/svg">
  <defs
     id="defs1">
    <clipPath
       clipPathUnits="userSpaceOnUse"
       id="clipPath2">
      <path
         d="M 0,0 H 266.99219 V 95.996094 H 0 Z"
         transform="scale(0.31999999)"
         clip-rule="evenodd"
         id="path2" />
    </clipPath>
    <clipPath
       clipPathUnits="userSpaceOnUse"
       id="clipPath4">
      <path
         d="M 56.25,18.75 H 209.375 V 78.125 H 56.25 Z"
         transform="matrix(0.60179106,0,0,0.60179106,96.765864,751.33584)"
         clip-rule="evenodd"
         id="path4" />
    </clipPath>
    <clipPath
       clipPathUnits="userSpaceOnUse"
       id="clipPath5">
      <path
         d="M 56.25,18.75 H 209.375 V 78.125 H 56.25 Z"
         transform="matrix(0.60179106,0,0,0.60179106,-39.71852,-32.164193)"
         clip-rule="evenodd"
         id="path5" />
    </clipPath>
  </defs>
  <g
     id="g1">
    <path
       id="path1"
       d="M 0,0 H 85 V 31 H 0 Z"
       style="fill:#ffffff;fill-opacity:1;fill-rule:nonzero;stroke:none"
       clip-path="url(#clipPath2)" />
    <path
       id="path3"
       d="m 212,776 c -2e-5,0.79559 -0.15228,1.56091 -0.45677,2.29602 -0.30449,0.73505 -0.73802,1.38391 -1.30062,1.94659 -0.56262,0.56257 -1.21147,0.9961 -1.94654,1.3006 -0.73508,0.30451 -1.50043,0.45673 -2.29607,0.45679 -0.79567,-6e-5 -1.56104,-0.15228 -2.29613,-0.45679 -0.73509,-0.3045 -1.38392,-0.73803 -1.94653,-1.3006 -0.56262,-0.56268 -0.99617,-1.21154 -1.30064,-1.94659 C 200.15221,777.56091 199.99998,776.79559 200,776 c -2e-5,-0.79572 0.15221,-1.5611 0.45668,-2.2962 0.30449,-0.73511 0.73804,-1.38398 1.30066,-1.94654 0.56261,-0.56262 1.21146,-0.99615 1.94655,-1.30066 C 204.43896,770.15222 205.20433,770 206,770 c 0.79564,0 1.56099,0.15222 2.29607,0.4566 0.73507,0.30451 1.38392,0.73804 1.94654,1.30066 0.5626,0.56256 0.99614,1.21143 1.30063,1.94654 0.30449,0.7351 0.45674,1.50048 0.45676,2.2962 z"
       style="fill:#000000;fill-opacity:1;fill-rule:nonzero;stroke:#000000;stroke-width:1;stroke-linecap:butt;stroke-linejoin:miter;stroke-miterlimit:10;stroke-dasharray:none;stroke-opacity:1"
       transform="matrix(0.531746,0,0,0.531746,-51.454861,-399.51983)"
       clip-path="url(#clipPath4)" />
    <text
       id="text4"
       xml:space="preserve"
       transform="matrix(0.531746,0,0,0.531746,21.120164,17.103181)"
       clip-path="url(#clipPath5)"><tspan
         id="tspan4"
         style="font-variant:normal;font-weight:normal;font-size:12px;font-family:Arial;writing-mode:lr-tb;fill:#000000;fill-opacity:1;fill-rule:nonzero;stroke:none"
         x="0"
         y="0">cdot-label</tspan></text>
  </g>
</svg>
