<?xml version="1.0" encoding="UTF-8" standalone="no"?>
<!-- Created with Inkscape (http://www.inkscape.org/) -->

<svg
   version="1.1"
   id="svg1"
   width="97.279999"
   height="146.56"
   viewBox="0 0 97.279999 146.56"
   xmlns="http://www.w3.org/2000/svg"
   xmlns:svg="http://www.w3.org/2000/svg">
  <defs
     id="defs1">
    <clipPath
       clipPathUnits="userSpaceOnUse"
       id="clipPath2">
      <path
         d="M 0,0 H 305 V 458.98438 H 0 Z"
         transform="scale(0.31999999)"
         clip-rule="evenodd"
         id="path2" />
    </clipPath>
    <clipPath
       clipPathUnits="userSpaceOnUse"
       id="clipPath4">
      <path
         d="M 56.25,87.5 H 250 V 371.875 H 56.25 Z"
         transform="matrix(0.54834819,0,0,0.54834819,352.9281,2210.3061)"
         clip-rule="evenodd"
         id="path4" />
    </clipPath>
    <clipPath
       clipPathUnits="userSpaceOnUse"
       id="clipPath6">
      <path
         d="M 56.25,87.5 H 250 V 371.875 H 56.25 Z"
         transform="matrix(0,0.54834819,-0.54834819,0,596.3136,2236.2464)"
         clip-rule="evenodd"
         id="path6" />
    </clipPath>
    <clipPath
       clipPathUnits="userSpaceOnUse"
       id="clipPath7">
      <path
         d="M 56.25,87.5 H 250 V 371.875 H 56.25 Z"
         transform="matrix(0,0.54834819,-0.54834819,0,166.00109,-112.75361)"
         clip-rule="evenodd"
         id="path7" />
    </clipPath>
    <clipPath
       clipPathUnits="userSpaceOnUse"
       id="clipPath9">
      <path
         d="M 56.25,87.5 H 250 V 371.875 H 56.25 Z"
         transform="matrix(0.54834819,0,0,0.54834819,353.42809,2210.806)"
         clip-rule="evenodd"
         id="path9" />
    </clipPath>
    <clipPath
       clipPathUnits="userSpaceOnUse"
       id="clipPath10">
      <path
         d="M 56.25,87.5 H 250 V 371.875 H 56.25 Z"
         transform="matrix(0.54834819,0,0,0.54834819,-51.884418,-133.19395)"
         clip-rule="evenodd"
         id="path10" />
    </clipPath>
    <clipPath
       clipPathUnits="userSpaceOnUse"
       id="clipPath12">
      <path
         d="M 56.25,87.5 H 250 V 371.875 H 56.25 Z"
         transform="matrix(0.54834819,0,0,0.54834819,353.42809,2210.806)"
         clip-rule="evenodd"
         id="path12" />
    </clipPath>
    <clipPath
       clipPathUnits="userSpaceOnUse"
       id="clipPath13">
      <path
         d="M 56.25,87.5 H 250 V 371.875 H 56.25 Z"
         transform="matrix(0.54834819,0,0,0.54834819,-91.556299,-92.193955)"
         clip-rule="evenodd"
         id="path13" />
    </clipPath>
    <clipPath
       clipPathUnits="userSpaceOnUse"
       id="clipPath15">
      <path
         d="M 56.25,87.5 H 250 V 371.875 H 56.25 Z"
         transform="matrix(0.54834819,0,0,0.54834819,352.9281,2210.3061)"
         clip-rule="evenodd"
         id="path15" />
    </clipPath>
  </defs>
  <g
     id="g1">
    <path
       id="path1"
       d="M 0,0 H 98 V 147 H 0 Z"
       style="fill:#ffffff;fill-opacity:1;fill-rule:nonzero;stroke:none"
       clip-path="url(#clipPath2)" />
    <path
       id="path3"
       d="m 439.75,2288 h 31.5 c 0.89505,0 1.75607,0.1711 2.58304,0.5134 0.82696,0.3428 1.55694,0.8306 2.18991,1.4634 0.6329,0.6326 1.12064,1.3626 1.4632,2.1897 0.34255,0.8269 0.51382,1.6882 0.51385,2.5835 v 89.5 c -3e-5,0.8948 -0.1713,1.7559 -0.51385,2.583 -0.34256,0.8269 -0.8303,1.5569 -1.4632,2.1899 -0.63297,0.6329 -1.36295,1.1207 -2.18991,1.4632 -0.82697,0.3425 -1.68799,0.5137 -2.58304,0.5139 h -31.5 c -0.89514,-2e-4 -1.7562,-0.1714 -2.58316,-0.5139 -0.82697,-0.3425 -1.55692,-0.8303 -2.18982,-1.4632 -0.63296,-0.633 -1.1207,-1.363 -1.46326,-2.1899 -0.34256,-0.8271 -0.51379,-1.6882 -0.51376,-2.583 v -89.5 c -3e-5,-0.8953 0.1712,-1.7566 0.51376,-2.5835 0.34256,-0.8271 0.8303,-1.5571 1.46326,-2.1897 0.6329,-0.6328 1.36285,-1.1206 2.18982,-1.4634 0.82696,-0.3423 1.68802,-0.5134 2.58316,-0.5134 z"
       style="fill:#ffffff;fill-opacity:1;fill-rule:nonzero;stroke:#000000;stroke-width:1;stroke-linecap:butt;stroke-linejoin:miter;stroke-miterlimit:10;stroke-dasharray:none;stroke-opacity:1"
       transform="matrix(0.58357079,0,0,0.58357079,-205.95853,-1289.8701)"
       clip-path="url(#clipPath4)" />
    <path
       id="path5"
       d="m 430,2338 h 64 v 15 h -64 z"
       style="fill:#ffffff;fill-opacity:1;fill-rule:nonzero;stroke:none"
       transform="matrix(0,-0.58357079,0.58357079,0,-1305.0081,347.9912)"
       clip-path="url(#clipPath6)" />
    <text
       id="text6"
       xml:space="preserve"
       transform="matrix(0,-0.58357079,0.58357079,0,65.799716,96.873389)"
       clip-path="url(#clipPath7)"><tspan
         id="tspan6"
         style="font-variant:normal;font-weight:normal;font-size:12px;font-family:Arial;writing-mode:lr-tb;fill:#000000;fill-opacity:1;fill-rule:nonzero;stroke:none"
         x="0"
         y="0">param-label</tspan></text>
    <path
       id="path8"
       d="m 405,2333 h 46 v 15 h -46 z"
       style="fill:#ffffff;fill-opacity:1;fill-rule:nonzero;stroke:none"
       transform="matrix(0.58357079,0,0,0.58357079,-206.25031,-1290.1618)"
       clip-path="url(#clipPath9)" />
    <text
       id="text9"
       xml:space="preserve"
       transform="matrix(0.58357079,0,0,0.58357079,30.278231,77.728101)"
       clip-path="url(#clipPath10)"><tspan
         id="tspan9"
         style="font-variant:normal;font-weight:normal;font-size:12px;font-family:Arial;writing-mode:lr-tb;fill:#000000;fill-opacity:1;fill-rule:nonzero;stroke:none"
         x="0"
         y="0">param-l*</tspan></text>
    <path
       id="path11"
       d="m 445,2292 h 20 v 15 h -20 z"
       style="fill:#ffffff;fill-opacity:1;fill-rule:nonzero;stroke:none"
       transform="matrix(0.58357079,0,0,0.58357079,-206.25031,-1290.1618)"
       clip-path="url(#clipPath12)" />
    <text
       id="text12"
       xml:space="preserve"
       transform="matrix(0.58357079,0,0,0.58357079,53.429582,53.801699)"
       clip-path="url(#clipPath13)"><tspan
         id="tspan12"
         style="font-variant:normal;font-weight:normal;font-size:12px;font-family:Arial;writing-mode:lr-tb;fill:#000000;fill-opacity:1;fill-rule:nonzero;stroke:none"
         x="0"
         y="0">pdh</tspan></text>
    <path
       id="path14"
       d="M 478,2411 V 2261"
       style="fill:none;stroke:#000000;stroke-width:1;stroke-linecap:butt;stroke-linejoin:miter;stroke-miterlimit:10;stroke-dasharray:none;stroke-opacity:1"
       transform="matrix(0.58357079,0,0,0.58357079,-205.95853,-1289.8701)"
       clip-path="url(#clipPath15)" />
  </g>
</svg>
