<?xml version="1.0" encoding="UTF-8" standalone="no"?>
<!-- Created with Inkscape (http://www.inkscape.org/) -->

<svg
   version="1.1"
   id="svg1"
   width="121.28"
   height="80"
   viewBox="0 0 121.28 80"
   xmlns="http://www.w3.org/2000/svg"
   xmlns:svg="http://www.w3.org/2000/svg">
  <defs
     id="defs1">
    <clipPath
       clipPathUnits="userSpaceOnUse"
       id="clipPath2">
      <path
         d="M 0,0 H 380 V 251 H 0 Z"
         transform="scale(0.31999999)"
         clip-rule="evenodd"
         id="path2" />
    </clipPath>
    <clipPath
       clipPathUnits="userSpaceOnUse"
       id="clipPath3">
      <path
         d="M 56.25,37.5 H 325 V 215.625 H 56.25 Z"
         transform="matrix(0.48844481,0,0,0.48844481,-82.069552,-38.843131)"
         clip-rule="evenodd"
         id="path3" />
    </clipPath>
    <clipPath
       clipPathUnits="userSpaceOnUse"
       id="clipPath5">
      <path
         d="M 56.25,37.5 H 325 V 215.625 H 56.25 Z"
         transform="matrix(0.48844481,0,0,0.48844481,92.742951,2354.657)"
         clip-rule="evenodd"
         id="path5" />
    </clipPath>
    <clipPath
       clipPathUnits="userSpaceOnUse"
       id="clipPath7">
      <path
         d="M 56.25,37.5 H 325 V 215.625 H 56.25 Z"
         transform="matrix(0,-0.48844481,0.48844481,0,99.906931,2490.5069)"
         clip-rule="evenodd"
         id="path7" />
    </clipPath>
    <clipPath
       clipPathUnits="userSpaceOnUse"
       id="clipPath9">
      <path
         d="M 56.25,37.5 H 325 V 215.625 H 56.25 Z"
         transform="matrix(0.48844481,0,0,0.48844481,93.242947,2355.1569)"
         clip-rule="evenodd"
         id="path9" />
    </clipPath>
    <clipPath
       clipPathUnits="userSpaceOnUse"
       id="clipPath10">
      <path
         d="M 56.25,37.5 H 325 V 215.625 H 56.25 Z"
         transform="matrix(0.48844481,0,0,0.48844481,-61.069552,-64.843132)"
         clip-rule="evenodd"
         id="path10" />
    </clipPath>
  </defs>
  <g
     id="g1">
    <path
       id="path1"
       d="M 0,0 H 122 V 81 H 0 Z"
       style="fill:#ffffff;fill-opacity:1;fill-rule:nonzero;stroke:none"
       clip-path="url(#clipPath2)" />
    <text
       id="text2"
       xml:space="preserve"
       transform="matrix(0.65514052,0,0,0.65514052,53.767089,25.447709)"
       clip-path="url(#clipPath3)"><tspan
         id="tspan2"
         style="font-variant:normal;font-weight:normal;font-size:12px;font-family:Arial;writing-mode:lr-tb;fill:#000000;fill-opacity:1;fill-rule:nonzero;stroke:none"
         x="0"
         y="0">param-label</tspan></text>
    <path
       id="path4"
       d="m 122.75,2436.5 h 78"
       style="fill:none;stroke:#000000;stroke-width:1;stroke-linecap:butt;stroke-linejoin:miter;stroke-miterlimit:10;stroke-dasharray:none;stroke-opacity:1"
       transform="matrix(0.65514052,0,0,0.65514052,-60.759665,-1542.6312)"
       clip-path="url(#clipPath5)" />
    <path
       id="path6"
       d="m 152,2401.5 h 24.5 c 0.69618,0 1.36586,0.1333 2.00906,0.3997 0.64321,0.2663 1.21094,0.6455 1.70324,1.1379 0.49226,0.4922 0.87161,1.0598 1.13804,1.7031 0.26644,0.6433 0.39964,1.313 0.39966,2.0093 v 24.5 c -2e-5,0.696 -0.13322,1.3657 -0.39966,2.0088 -0.26643,0.6433 -0.64578,1.2109 -1.13804,1.7034 -0.4923,0.4921 -1.06003,0.8715 -1.70324,1.1379 -0.6432,0.2664 -1.31288,0.3997 -2.00906,0.3999 H 152 c -0.69621,-2e-4 -1.36591,-0.1335 -2.00911,-0.3999 -0.6432,-0.2664 -1.21095,-0.6458 -1.70322,-1.1379 -0.49228,-0.4925 -0.87162,-1.0601 -1.13806,-1.7034 -0.26642,-0.6431 -0.39963,-1.3128 -0.39961,-2.0088 v -24.5 c -2e-5,-0.6963 0.13319,-1.366 0.39961,-2.0093 0.26644,-0.6433 0.64578,-1.2109 1.13806,-1.7031 0.49227,-0.4924 1.06002,-0.8716 1.70322,-1.1379 0.6432,-0.2664 1.3129,-0.3997 2.00911,-0.3997 z"
       style="fill:#ffffff;fill-opacity:1;fill-rule:nonzero;stroke:#000000;stroke-width:1;stroke-linecap:butt;stroke-linejoin:miter;stroke-miterlimit:10;stroke-dasharray:none;stroke-opacity:1"
       transform="matrix(0,0.65514052,-0.65514052,0,1631.632,-65.453079)"
       clip-path="url(#clipPath7)" />
    <path
       id="path8"
       d="m 154,2409 h 20 v 15 h -20 z"
       style="fill:#ffffff;fill-opacity:1;fill-rule:nonzero;stroke:none"
       transform="matrix(0.65514052,0,0,0.65514052,-61.087233,-1542.9587)"
       clip-path="url(#clipPath9)" />
    <text
       id="text9"
       xml:space="preserve"
       transform="matrix(0.65514052,0,0,0.65514052,40.009138,42.481363)"
       clip-path="url(#clipPath10)"><tspan
         id="tspan9"
         style="font-variant:normal;font-weight:normal;font-size:12px;font-family:Arial;writing-mode:lr-tb;fill:#000000;fill-opacity:1;fill-rule:nonzero;stroke:none"
         x="0"
         y="0">pdv</tspan></text>
  </g>
</svg>
