<?xml version="1.0" encoding="UTF-8" standalone="no"?>
<!-- Created with Inkscape (http://www.inkscape.org/) -->

<svg
   version="1.1"
   id="svg1"
   width="66.559998"
   height="149.43999"
   viewBox="0 0 66.559998 149.43999"
   xmlns="http://www.w3.org/2000/svg"
   xmlns:svg="http://www.w3.org/2000/svg">
  <defs
     id="defs1">
    <clipPath
       clipPathUnits="userSpaceOnUse"
       id="clipPath2">
      <path
         d="M 0,0 H 206.98242 V 464.99023 H 0 Z"
         transform="scale(0.31999999)"
         clip-rule="evenodd"
         id="path2" />
    </clipPath>
    <clipPath
       clipPathUnits="userSpaceOnUse"
       id="clipPath4">
      <path
         d="M 56.25,131.25 H 150 v 200 H 56.25 Z"
         transform="matrix(0.79839031,0,0,0.79839031,283.07144,120.21629)"
         clip-rule="evenodd"
         id="path4" />
    </clipPath>
    <clipPath
       clipPathUnits="userSpaceOnUse"
       id="clipPath6">
      <path
         d="M 56.25,131.25 H 150 v 200 H 56.25 Z"
         transform="matrix(0.79839031,0,0,0.79839031,283.07144,120.21629)"
         clip-rule="evenodd"
         id="path6" />
    </clipPath>
    <clipPath
       clipPathUnits="userSpaceOnUse"
       id="clipPath7">
      <path
         d="M 56.25,131.25 H 150 v 200 H 56.25 Z"
         transform="matrix(0.79839031,0,0,0.79839031,-57.412968,-152.28369)"
         clip-rule="evenodd"
         id="path7" />
    </clipPath>
    <clipPath
       clipPathUnits="userSpaceOnUse"
       id="clipPath8">
      <path
         d="M 56.25,131.25 H 150 v 200 H 56.25 Z"
         transform="matrix(0,0.79839031,-0.79839031,0,213.46931,-70.258572)"
         clip-rule="evenodd"
         id="path8" />
    </clipPath>
    <clipPath
       clipPathUnits="userSpaceOnUse"
       id="clipPath10">
      <path
         d="M 56.25,131.25 H 150 v 200 H 56.25 Z"
         transform="matrix(0.79839031,0,0,0.79839031,283.07144,120.21629)"
         clip-rule="evenodd"
         id="path10" />
    </clipPath>
    <clipPath
       clipPathUnits="userSpaceOnUse"
       id="clipPath12">
      <path
         d="M 56.25,131.25 H 150 v 200 H 56.25 Z"
         transform="matrix(0.79839031,0,0,0.79839031,283.07144,120.21629)"
         clip-rule="evenodd"
         id="path12" />
    </clipPath>
    <clipPath
       clipPathUnits="userSpaceOnUse"
       id="clipPath14">
      <path
         d="M 56.25,131.25 H 150 v 200 H 56.25 Z"
         transform="matrix(0.79839031,0,0,0.79839031,283.07144,120.21629)"
         clip-rule="evenodd"
         id="path14" />
    </clipPath>
    <clipPath
       clipPathUnits="userSpaceOnUse"
       id="clipPath16">
      <path
         d="M 56.25,131.25 H 150 v 200 H 56.25 Z"
         transform="matrix(0.79839031,0,0,0.79839031,283.57141,120.71631)"
         clip-rule="evenodd"
         id="path16" />
    </clipPath>
    <clipPath
       clipPathUnits="userSpaceOnUse"
       id="clipPath17">
      <path
         d="M 56.25,131.25 H 150 v 200 H 56.25 Z"
         transform="matrix(0.79839031,0,0,0.79839031,-79.256719,-187.28369)"
         clip-rule="evenodd"
         id="path17" />
    </clipPath>
  </defs>
  <g
     id="g1">
    <path
       id="path1"
       d="M 0,0 H 66 V 149 H 0 Z"
       style="fill:#ffffff;fill-opacity:1;fill-rule:nonzero;stroke:none"
       clip-path="url(#clipPath2)" />
    <path
       id="path3"
       d="M 339.73001,290.82999 H 359.56 c 0.56354,0 1.10565,0.10785 1.62634,0.32351 0.52069,0.21567 0.98032,0.52274 1.37885,0.92127 0.39846,0.3985 0.70556,0.85809 0.92126,1.37878 0.21567,0.52066 0.32352,1.06281 0.32355,1.62644 v 19.82998 c -3e-5,0.56357 -0.10788,1.10569 -0.32355,1.62638 -0.2157,0.52069 -0.5228,0.98028 -0.92126,1.37881 -0.39853,0.3985 -0.85816,0.7056 -1.37882,0.92127 -0.52072,0.21566 -1.06283,0.32351 -1.62637,0.32354 h -19.82999 c -0.5636,-3e-5 -1.10574,-0.10788 -1.62643,-0.32354 -0.52066,-0.21567 -0.98026,-0.52277 -1.37879,-0.92127 -0.39856,-0.39853 -0.70566,-0.85812 -0.92132,-1.37881 -0.21567,-0.52069 -0.32349,-1.06281 -0.32346,-1.62638 v -19.82998 c -3e-5,-0.56363 0.10782,-1.10578 0.32349,-1.62644 0.21563,-0.52069 0.52273,-0.98028 0.92129,-1.37878 0.39853,-0.39853 0.85813,-0.7056 1.37879,-0.92127 0.52069,-0.21566 1.06283,-0.32351 1.62643,-0.32351 z"
       style="fill:#ffffff;fill-opacity:1;fill-rule:nonzero;stroke:none"
       transform="matrix(0.40080645,0,0,0.40080645,-113.45686,-48.183465)"
       clip-path="url(#clipPath4)" />
    <path
       id="path5"
       d="m 337.48001,259.17001 h 28 c 0.79562,0 1.56098,0.15223 2.29605,0.4567 0.73508,0.30447 1.38391,0.73804 1.94654,1.30066 0.56259,0.56259 0.99612,1.21142 1.30059,1.9465 0.30451,0.73511 0.45679,1.50049 0.45682,2.29614 V 344 c -3e-5,0.79562 -0.15231,1.56097 -0.45679,2.29605 -0.3045,0.73508 -0.73803,1.38394 -1.30062,1.94656 -0.56263,0.5626 -1.21146,0.99616 -1.94654,1.30063 -0.73507,0.30448 -1.50043,0.45673 -2.29605,0.45676 h -28 c -0.79568,-3e-5 -1.5611,-0.15228 -2.29617,-0.45676 -0.73508,-0.30447 -1.38391,-0.73803 -1.9465,-1.30063 -0.56263,-0.56262 -0.99616,-1.21148 -1.30063,-1.94656 -0.30448,-0.73508 -0.45673,-1.50043 -0.4567,-2.29605 v -78.82999 c -3e-5,-0.79565 0.15222,-1.56103 0.4567,-2.29614 0.30447,-0.73508 0.738,-1.38391 1.30063,-1.9465 0.56259,-0.56262 1.21142,-0.99616 1.9465,-1.30063 0.73507,-0.30447 1.50049,-0.45673 2.29617,-0.45673 z"
       style="fill:#ffffff;fill-opacity:1;fill-rule:nonzero;stroke:#000000;stroke-width:1;stroke-linecap:butt;stroke-linejoin:miter;stroke-miterlimit:10;stroke-dasharray:none;stroke-opacity:1"
       transform="matrix(0.40080645,0,0,0.40080645,-113.45686,-48.183465)"
       clip-path="url(#clipPath6)" />
    <text
       id="text6"
       xml:space="preserve"
       transform="matrix(0.40080645,0,0,0.40080645,23.011488,61.036285)"
       clip-path="url(#clipPath7)"><tspan
         id="tspan6"
         style="font-variant:normal;font-weight:normal;font-size:12px;font-family:Arial;writing-mode:lr-tb;fill:#000000;fill-opacity:1;fill-rule:nonzero;stroke:none"
         x="0"
         y="0">pdh</tspan></text>
    <text
       id="text7"
       xml:space="preserve"
       transform="matrix(0,-0.40080645,0.40080645,0,28.160089,85.559878)"
       clip-path="url(#clipPath8)"><tspan
         id="tspan7"
         style="font-variant:normal;font-weight:normal;font-size:12px;font-family:Arial;writing-mode:lr-tb;fill:#000000;fill-opacity:1;fill-rule:nonzero;stroke:none"
         x="0"
         y="0">port-label</tspan></text>
    <path
       id="path9"
       d="M 350.48001,259 V 229"
       style="fill:none;stroke:#000000;stroke-width:1;stroke-linecap:butt;stroke-linejoin:miter;stroke-miterlimit:10;stroke-dasharray:none;stroke-opacity:1"
       transform="matrix(0.40080645,0,0,0.40080645,-113.45686,-48.183465)"
       clip-path="url(#clipPath10)" />
    <path
       id="path11"
       d="M 351.48001,380 V 350"
       style="fill:none;stroke:#000000;stroke-width:1;stroke-linecap:butt;stroke-linejoin:miter;stroke-miterlimit:10;stroke-dasharray:none;stroke-opacity:1"
       transform="matrix(0.40080645,0,0,0.40080645,-113.45686,-48.183465)"
       clip-path="url(#clipPath12)" />
    <path
       id="path13"
       d="m 361,298.12 h 37.48001 v 11.76001 H 361 Z"
       style="fill:none;stroke:#ffffff;stroke-width:1;stroke-linecap:butt;stroke-linejoin:miter;stroke-miterlimit:10;stroke-dasharray:none;stroke-opacity:1"
       transform="matrix(0.40080645,0,0,0.40080645,-113.45686,-48.183465)"
       clip-path="url(#clipPath14)" />
    <path
       id="path15"
       d="m 363,297 h 33 v 15 h -33 z"
       style="fill:#ffffff;fill-opacity:1;fill-rule:nonzero;stroke:none"
       transform="matrix(0.40080645,0,0,0.40080645,-113.65725,-48.383875)"
       clip-path="url(#clipPath16)" />
    <text
       id="text16"
       xml:space="preserve"
       transform="matrix(0.40080645,0,0,0.40080645,31.766604,75.064511)"
       clip-path="url(#clipPath17)"><tspan
         id="tspan16"
         style="font-variant:normal;font-weight:normal;font-size:12px;font-family:Arial;writing-mode:lr-tb;fill:#000000;fill-opacity:1;fill-rule:nonzero;stroke:none"
         x="0"
         y="0">port-r*</tspan></text>
  </g>
</svg>
