<?xml version="1.0" encoding="UTF-8" standalone="no"?>
<!-- Created with Inkscape (http://www.inkscape.org/) -->

<svg
   version="1.1"
   id="svg1"
   width="92.159996"
   height="65.279999"
   viewBox="0 0 92.159996 65.279999"
   xmlns="http://www.w3.org/2000/svg"
   xmlns:svg="http://www.w3.org/2000/svg">
  <defs
     id="defs1">
    <clipPath
       clipPathUnits="userSpaceOnUse"
       id="clipPath2">
      <path
         d="M 0,0 H 287.98828 V 204.00391 H 0 Z"
         transform="scale(0.31999999)"
         clip-rule="evenodd"
         id="path2" />
    </clipPath>
    <clipPath
       clipPathUnits="userSpaceOnUse"
       id="clipPath4">
      <path
         d="m 56.25,40.625 h 175 v 125 h -175 z"
         transform="matrix(0.57123964,0,0,0.57123964,45.579538,4.5082638)"
         clip-rule="evenodd"
         id="path4" />
    </clipPath>
    <clipPath
       clipPathUnits="userSpaceOnUse"
       id="clipPath6">
      <path
         d="m 56.25,40.625 h 175 v 125 h -175 z"
         transform="matrix(0.57123964,0,0,0.57123964,45.579538,4.5082638)"
         clip-rule="evenodd"
         id="path6" />
    </clipPath>
    <clipPath
       clipPathUnits="userSpaceOnUse"
       id="clipPath8">
      <path
         d="m 56.25,40.625 h 175 v 125 h -175 z"
         transform="matrix(0.57123964,0,0,0.57123964,46.079547,5.008264)"
         clip-rule="evenodd"
         id="path8" />
    </clipPath>
    <clipPath
       clipPathUnits="userSpaceOnUse"
       id="clipPath9">
      <path
         d="m 56.25,40.625 h 175 v 125 h -175 z"
         transform="matrix(0.57123964,0,0,0.57123964,-37.061078,-79.991736)"
         clip-rule="evenodd"
         id="path9" />
    </clipPath>
  </defs>
  <g
     id="g1">
    <path
       id="path1"
       d="M 0,0 H 92 V 65 H 0 Z"
       style="fill:#ffffff;fill-opacity:1;fill-rule:nonzero;stroke:none"
       clip-path="url(#clipPath2)" />
    <path
       id="path3"
       d="M 173,60 H 132.69"
       style="fill:none;stroke:#000000;stroke-width:1;stroke-linecap:butt;stroke-linejoin:miter;stroke-miterlimit:10;stroke-dasharray:none;stroke-opacity:1"
       transform="matrix(0.56018519,0,0,0.56018519,-25.532982,-2.5254626)"
       clip-path="url(#clipPath4)" />
    <path
       id="path5"
       d="m 161,60 c -2e-5,1.060863 -0.203,2.081348 -0.60899,3.061459 -0.40598,0.980114 -0.98404,1.845249 -1.73418,2.595394 -0.75015,0.750137 -1.61528,1.328193 -2.59538,1.734169 C 155.08135,67.797005 154.06087,67.999992 153,68 c -1.06087,-8e-6 -2.08136,-0.202995 -3.06148,-0.608971 -0.98011,-0.405983 -1.84524,-0.984039 -2.59538,-1.734176 -0.75015,-0.750145 -1.32822,-1.61528 -1.73419,-2.595394 C 145.20297,62.081348 144.99998,61.060863 145,60 c -2e-5,-1.060871 0.20297,-2.081364 0.60895,-3.061478 0.40597,-0.980114 0.98404,-1.845241 1.73419,-2.595382 0.75014,-0.750149 1.61527,-1.328209 2.59538,-1.734185 C 150.91864,52.202984 151.93913,52 153,52 c 1.06087,0 2.08135,0.202984 3.06145,0.608955 0.9801,0.405976 1.84523,0.984036 2.59538,1.734185 0.75014,0.750141 1.3282,1.615268 1.73418,2.595382 C 160.797,57.918636 160.99998,58.939129 161,60 Z"
       style="fill:#000000;fill-opacity:1;fill-rule:nonzero;stroke:#000000;stroke-width:1;stroke-linecap:butt;stroke-linejoin:miter;stroke-miterlimit:10;stroke-dasharray:none;stroke-opacity:1"
       transform="matrix(0.56018519,0,0,0.56018519,-25.532982,-2.5254626)"
       clip-path="url(#clipPath6)" />
    <path
       id="path7"
       d="m 83,74 h 59 V 89 H 83 Z"
       style="fill:#ffffff;fill-opacity:1;fill-rule:nonzero;stroke:none"
       transform="matrix(0.56018519,0,0,0.56018519,-25.81308,-2.8055553)"
       clip-path="url(#clipPath8)" />
    <text
       id="text8"
       xml:space="preserve"
       transform="matrix(0.56018519,0,0,0.56018519,20.761067,44.810186)"
       clip-path="url(#clipPath9)"><tspan
         id="tspan8"
         style="font-variant:normal;font-weight:normal;font-size:12px;font-family:Arial;writing-mode:lr-tb;fill:#000000;fill-opacity:1;fill-rule:nonzero;stroke:none"
         x="0"
         y="0">proxy-label</tspan></text>
  </g>
</svg>
