<?xml version="1.0" encoding="UTF-8" standalone="no"?>
<!-- Created with Inkscape (http://www.inkscape.org/) -->

<svg
   version="1.1"
   id="svg1"
   width="92.159996"
   height="38.719997"
   viewBox="0 0 92.159996 38.719997"
   xmlns="http://www.w3.org/2000/svg"
   xmlns:svg="http://www.w3.org/2000/svg">
  <defs
     id="defs1">
    <clipPath
       clipPathUnits="userSpaceOnUse"
       id="clipPath2">
      <path
         d="M 0,0 H 287.98828 V 120.01953 H 0 Z"
         transform="scale(0.31999999)"
         clip-rule="evenodd"
         id="path2" />
    </clipPath>
    <clipPath
       clipPathUnits="userSpaceOnUse"
       id="clipPath4">
      <path
         d="m 56.25,21.875 h 175 v 75 h -175 z"
         transform="matrix(0.5712692,0,0,0.5712692,45.575316,105.21828)"
         clip-rule="evenodd"
         id="path4" />
    </clipPath>
    <clipPath
       clipPathUnits="userSpaceOnUse"
       id="clipPath6">
      <path
         d="m 56.25,21.875 h 175 v 75 h -175 z"
         transform="matrix(0.5712692,0,0,0.5712692,45.575316,105.21828)"
         clip-rule="evenodd"
         id="path6" />
    </clipPath>
    <clipPath
       clipPathUnits="userSpaceOnUse"
       id="clipPath8">
      <path
         d="m 56.25,21.875 h 175 v 75 h -175 z"
         transform="matrix(0.5712692,0,0,0.5712692,46.075316,105.71827)"
         clip-rule="evenodd"
         id="path8" />
    </clipPath>
    <clipPath
       clipPathUnits="userSpaceOnUse"
       id="clipPath9">
      <path
         d="m 56.25,21.875 h 175 v 75 h -175 z"
         transform="matrix(0.5712692,0,0,0.5712692,-37.06531,-33.281727)"
         clip-rule="evenodd"
         id="path9" />
    </clipPath>
  </defs>
  <g
     id="g1">
    <path
       id="path1"
       d="M 0,0 H 92 V 38 H 0 Z"
       style="fill:#ffffff;fill-opacity:1;fill-rule:nonzero;stroke:none"
       clip-path="url(#clipPath2)" />
    <path
       id="path3"
       d="M 173,150 H 132.69"
       style="fill:none;stroke:#000000;stroke-width:1;stroke-linecap:butt;stroke-linejoin:miter;stroke-miterlimit:10;stroke-dasharray:none;stroke-opacity:1"
       transform="matrix(0.5601562,0,0,0.5601562,-25.529296,-58.938673)"
       clip-path="url(#clipPath4)" />
    <path
       id="path5"
       d="m 161,150 c -2e-5,1.06087 -0.203,2.08135 -0.60899,3.06146 -0.40598,0.9801 -0.98404,1.84523 -1.73418,2.59538 -0.75015,0.75014 -1.61528,1.32821 -2.59538,1.73418 -0.9801,0.40598 -2.00058,0.60896 -3.06145,0.60898 -1.06087,-2e-5 -2.08136,-0.203 -3.06148,-0.60898 -0.98011,-0.40597 -1.84524,-0.98404 -2.59538,-1.73418 -0.75015,-0.75015 -1.32822,-1.61528 -1.73419,-2.59538 C 145.20297,152.08135 144.99998,151.06087 145,150 c -2e-5,-1.06088 0.20297,-2.08138 0.60895,-3.06149 0.40597,-0.98012 0.98404,-1.84523 1.73419,-2.59537 0.75014,-0.75014 1.61527,-1.3282 2.59538,-1.73418 C 150.91864,142.20299 151.93913,142 153,142 c 1.06087,0 2.08135,0.20299 3.06145,0.60896 0.9801,0.40598 1.84523,0.98404 2.59538,1.73418 0.75014,0.75014 1.3282,1.61525 1.73418,2.59537 0.40599,0.98011 0.60897,2.00061 0.60899,3.06149 z"
       style="fill:#000000;fill-opacity:1;fill-rule:nonzero;stroke:#000000;stroke-width:1;stroke-linecap:butt;stroke-linejoin:miter;stroke-miterlimit:10;stroke-dasharray:none;stroke-opacity:1"
       transform="matrix(0.5601562,0,0,0.5601562,-25.529296,-58.938673)"
       clip-path="url(#clipPath6)" />
    <path
       id="path7"
       d="m 83,128 h 59 v 15 H 83 Z"
       style="fill:#ffffff;fill-opacity:1;fill-rule:nonzero;stroke:none"
       transform="matrix(0.5601562,0,0,0.5601562,-25.809374,-59.218746)"
       clip-path="url(#clipPath8)" />
    <text
       id="text8"
       xml:space="preserve"
       transform="matrix(0.5601562,0,0,0.5601562,20.762363,18.642966)"
       clip-path="url(#clipPath9)"><tspan
         id="tspan8"
         style="font-variant:normal;font-weight:normal;font-size:12px;font-family:Arial;writing-mode:lr-tb;fill:#000000;fill-opacity:1;fill-rule:nonzero;stroke:none"
         x="0"
         y="0">proxy-label</tspan></text>
  </g>
</svg>
