<?xml version="1.0" encoding="UTF-8" standalone="no"?>
<!-- Created with Inkscape (http://www.inkscape.org/) -->

<svg
   version="1.1"
   id="svg1"
   width="286.72"
   height="128"
   viewBox="0 0 286.72 128"
   xmlns="http://www.w3.org/2000/svg"
   xmlns:svg="http://www.w3.org/2000/svg">
  <defs
     id="defs1">
    <clipPath
       clipPathUnits="userSpaceOnUse"
       id="clipPath2">
      <path
         d="M 0,0 H 893.99414 V 399.02344 H 0 Z"
         transform="scale(0.31999999)"
         clip-rule="evenodd"
         id="path2" />
    </clipPath>
    <clipPath
       clipPathUnits="userSpaceOnUse"
       id="clipPath4">
      <path
         d="M 56.25,21.875 H 837.5 V 375 H 56.25 Z"
         transform="matrix(0.3843779,0,0,0.3843779,385.65941,1927.8906)"
         clip-rule="evenodd"
         id="path4" />
    </clipPath>
    <clipPath
       clipPathUnits="userSpaceOnUse"
       id="clipPath5">
      <path
         d="M 56.25,21.875 H 837.5 V 375 H 56.25 Z"
         transform="matrix(0.3843779,0,0,0.3843779,-84.793683,-51.609487)"
         clip-rule="evenodd"
         id="path5" />
    </clipPath>
    <clipPath
       clipPathUnits="userSpaceOnUse"
       id="clipPath6">
      <path
         d="M 56.25,21.875 H 837.5 V 375 H 56.25 Z"
         transform="matrix(0.3843779,0,0,0.3843779,-136.8093,-79.609488)"
         clip-rule="evenodd"
         id="path6" />
    </clipPath>
    <clipPath
       clipPathUnits="userSpaceOnUse"
       id="clipPath7">
      <path
         d="M 56.25,21.875 H 837.5 V 375 H 56.25 Z"
         transform="matrix(0.3843779,0,0,0.3843779,-119.8093,-108.60949)"
         clip-rule="evenodd"
         id="path7" />
    </clipPath>
    <clipPath
       clipPathUnits="userSpaceOnUse"
       id="clipPath9">
      <path
         d="M 56.25,21.875 H 837.5 V 375 H 56.25 Z"
         transform="matrix(0.3843779,0,0,0.3843779,386.15945,1928.3905)"
         clip-rule="evenodd"
         id="path9" />
    </clipPath>
    <clipPath
       clipPathUnits="userSpaceOnUse"
       id="clipPath10">
      <path
         d="M 56.25,21.875 H 837.5 V 375 H 56.25 Z"
         transform="matrix(0.3843779,0,0,0.3843779,-26.153053,-78.609488)"
         clip-rule="evenodd"
         id="path10" />
    </clipPath>
    <clipPath
       clipPathUnits="userSpaceOnUse"
       id="clipPath12">
      <path
         d="M 56.25,21.875 H 837.5 V 375 H 56.25 Z"
         transform="matrix(0.3843779,0,0,0.3843779,386.15945,1928.3905)"
         clip-rule="evenodd"
         id="path12" />
    </clipPath>
    <clipPath
       clipPathUnits="userSpaceOnUse"
       id="clipPath13">
      <path
         d="M 56.25,21.875 H 837.5 V 375 H 56.25 Z"
         transform="matrix(0.3843779,0,0,0.3843779,-269.4968,-78.609488)"
         clip-rule="evenodd"
         id="path13" />
    </clipPath>
    <clipPath
       clipPathUnits="userSpaceOnUse"
       id="clipPath15">
      <path
         d="M 56.25,21.875 H 837.5 V 375 H 56.25 Z"
         transform="matrix(0.3843779,0,0,0.3843779,386.15945,1928.3905)"
         clip-rule="evenodd"
         id="path15" />
    </clipPath>
    <clipPath
       clipPathUnits="userSpaceOnUse"
       id="clipPath16">
      <path
         d="M 56.25,21.875 H 837.5 V 375 H 56.25 Z"
         transform="matrix(0.3843779,0,0,0.3843779,-141.82493,-133.60949)"
         clip-rule="evenodd"
         id="path16" />
    </clipPath>
    <clipPath
       clipPathUnits="userSpaceOnUse"
       id="clipPath18">
      <path
         d="M 56.25,21.875 H 837.5 V 375 H 56.25 Z"
         transform="matrix(0.3843779,0,0,0.3843779,386.15945,1928.3905)"
         clip-rule="evenodd"
         id="path18" />
    </clipPath>
    <clipPath
       clipPathUnits="userSpaceOnUse"
       id="clipPath19">
      <path
         d="M 56.25,21.875 H 837.5 V 375 H 56.25 Z"
         transform="matrix(0.3843779,0,0,0.3843779,-143.4968,-25.609487)"
         clip-rule="evenodd"
         id="path19" />
    </clipPath>
  </defs>
  <g
     id="g1">
    <path
       id="path1"
       d="M 0,0 H 286 V 128 H 0 Z"
       style="fill:#ffffff;fill-opacity:1;fill-rule:nonzero;stroke:none"
       clip-path="url(#clipPath2)" />
    <path
       id="path3"
       d="m 470.13998,1951.03 h 172.47001 c 1.61395,2e-4 3.21234,0.1575 4.79528,0.4723 1.58295,0.3148 3.11994,0.781 4.61103,1.3986 1.49109,0.6175 2.90759,1.3747 4.24957,2.2715 1.34192,0.8966 2.5835,1.9155 3.72479,3.0567 1.14118,1.1413 2.1601,2.3828 3.05676,3.7248 0.89667,1.3419 1.65387,2.7584 2.27149,4.2495 0.61761,1.4911 1.08392,3.0282 1.3988,4.6111 0.31488,1.583 0.47229,3.1815 0.47229,4.7955 v 57.7102 c 0,1.6139 -0.15741,3.2123 -0.47229,4.795 -0.31488,1.5829 -0.78119,3.12 -1.3988,4.6111 -0.61762,1.491 -1.37476,2.9075 -2.27142,4.2495 -0.89667,1.3421 -1.91565,2.5835 -3.05683,3.7249 -1.14129,1.1411 -2.38287,2.1599 -3.72479,3.0566 -1.34198,0.8968 -2.75848,1.6538 -4.24957,2.2715 -1.49109,0.6177 -3.02808,1.084 -4.61103,1.3989 -1.58294,0.315 -3.18133,0.4724 -4.79528,0.4724 H 470.13998 c -1.61395,0 -3.2124,-0.1574 -4.79534,-0.4724 -1.58295,-0.3149 -3.11997,-0.7812 -4.61106,-1.3989 -1.49112,-0.6177 -2.90762,-1.3747 -4.24957,-2.2715 -1.34195,-0.8967 -2.58353,-1.9155 -3.72476,-3.0566 -1.14124,-1.1414 -2.16019,-2.3828 -3.05686,-3.7249 -0.89666,-1.342 -1.65381,-2.7585 -2.27142,-4.2495 -0.61765,-1.4911 -1.08386,-3.0281 -1.39871,-4.6109 -0.31488,-1.5829 -0.47229,-3.1813 -0.47226,-4.7952 V 1975.61 c -3e-5,-1.614 0.15738,-3.2125 0.47226,-4.7954 0.31485,-1.583 0.78109,-3.12 1.39874,-4.6111 0.61765,-1.4911 1.37479,-2.9076 2.27142,-4.2495 0.89667,-1.3419 1.91562,-2.5834 3.05689,-3.7246 1.14123,-1.1414 2.38281,-2.1603 3.72473,-3.0569 1.34195,-0.8966 2.75848,-1.6538 4.24954,-2.2715 1.49109,-0.6176 3.02811,-1.0837 4.61109,-1.3986 1.58291,-0.3148 3.18136,-0.4722 4.79531,-0.4724 z"
       style="fill:#ffffff;fill-opacity:1;fill-rule:nonzero;stroke:#000000;stroke-width:1;stroke-linecap:butt;stroke-linejoin:miter;stroke-miterlimit:10;stroke-dasharray:none;stroke-opacity:1"
       transform="matrix(0.83251401,0,0,0.83251401,-321.06686,-1604.9959)"
       clip-path="url(#clipPath4)" />
    <text
       id="text4"
       xml:space="preserve"
       transform="matrix(0.83251401,0,0,0.83251401,70.591929,42.965621)"
       clip-path="url(#clipPath5)"><tspan
         id="tspan4"
         style="font-variant:normal;font-weight:normal;font-size:12px;font-family:Arial;writing-mode:lr-tb;fill:#000000;fill-opacity:1;fill-rule:nonzero;stroke:none"
         x="0"
         y="0">requirement-name-compartment</tspan></text>
    <text
       id="text5"
       xml:space="preserve"
       transform="matrix(0.83251401,0,0,0.83251401,113.89566,66.276014)"
       clip-path="url(#clipPath6)"><tspan
         id="tspan5"
         style="font-variant:normal;font-weight:normal;font-size:12px;font-family:Arial;writing-mode:lr-tb;fill:#000000;fill-opacity:1;fill-rule:nonzero;stroke:none"
         x="0"
         y="0">general-view</tspan></text>
    <text
       id="text6"
       xml:space="preserve"
       transform="matrix(0.83251401,0,0,0.83251401,99.742923,90.41892)"
       clip-path="url(#clipPath7)"><tspan
         id="tspan6"
         style="font-variant:normal;font-weight:normal;font-size:12px;font-family:Arial;writing-mode:lr-tb;fill:#000000;fill-opacity:1;fill-rule:nonzero;stroke:none"
         x="0"
         y="0">compartment-stack</tspan></text>
    <path
       id="path8"
       d="m 412,1996 h 46 v 15 h -46 z"
       style="fill:#ffffff;fill-opacity:1;fill-rule:nonzero;stroke:none"
       transform="matrix(0.83251401,0,0,0.83251401,-321.48315,-1605.4121)"
       clip-path="url(#clipPath9)" />
    <text
       id="text9"
       xml:space="preserve"
       transform="matrix(0.83251401,0,0,0.83251401,21.772783,65.4435)"
       clip-path="url(#clipPath10)"><tspan
         id="tspan9"
         style="font-variant:normal;font-weight:normal;font-size:12px;font-family:Arial;writing-mode:lr-tb;fill:#000000;fill-opacity:1;fill-rule:nonzero;stroke:none"
         x="0"
         y="0">param-l*</tspan></text>
    <path
       id="path11"
       d="m 656,1996 h 46 v 15 h -46 z"
       style="fill:#ffffff;fill-opacity:1;fill-rule:nonzero;stroke:none"
       transform="matrix(0.83251401,0,0,0.83251401,-321.48315,-1605.4121)"
       clip-path="url(#clipPath12)" />
    <text
       id="text12"
       xml:space="preserve"
       transform="matrix(0.83251401,0,0,0.83251401,224.35986,65.4435)"
       clip-path="url(#clipPath13)"><tspan
         id="tspan12"
         style="font-variant:normal;font-weight:normal;font-size:12px;font-family:Arial;writing-mode:lr-tb;fill:#000000;fill-opacity:1;fill-rule:nonzero;stroke:none"
         x="0"
         y="0">param-r*</tspan></text>
    <path
       id="path14"
       d="m 528,2051 h 56 v 15 h -56 z"
       style="fill:#ffffff;fill-opacity:1;fill-rule:nonzero;stroke:none"
       transform="matrix(0.83251401,0,0,0.83251401,-321.48315,-1605.4121)"
       clip-path="url(#clipPath15)" />
    <g
       id="g15" />
    <g
       id="g16" />
    <text
       id="text16"
       xml:space="preserve"
       transform="matrix(0.83251401,0,0,0.83251401,118.07124,111.23177)"
       clip-path="url(#clipPath16)"><tspan
         id="tspan16"
         style="font-variant:normal;font-weight:normal;font-size:12px;font-family:Arial;writing-mode:lr-tb;fill:#000000;fill-opacity:1;fill-rule:nonzero;stroke:none"
         x="0"
         y="0"> param-b* </tspan></text>
    <path
       id="path17"
       d="m 530,1943 h 52 v 15 h -52 z"
       style="fill:#ffffff;fill-opacity:1;fill-rule:nonzero;stroke:none"
       transform="matrix(0.83251401,0,0,0.83251401,-321.48315,-1605.4121)"
       clip-path="url(#clipPath18)" />
    <g
       id="g18" />
    <g
       id="g19" />
    <text
       id="text19"
       xml:space="preserve"
       transform="matrix(0.83251401,0,0,0.83251401,119.4631,21.320257)"
       clip-path="url(#clipPath19)"><tspan
         id="tspan19"
         style="font-variant:normal;font-weight:normal;font-size:12px;font-family:Arial;writing-mode:lr-tb;fill:#000000;fill-opacity:1;fill-rule:nonzero;stroke:none"
         x="0"
         y="0"> param-t* </tspan></text>
  </g>
</svg>
