<?xml version="1.0" encoding="UTF-8" standalone="no"?>
<!-- Created with Inkscape (http://www.inkscape.org/) -->

<svg
   version="1.1"
   id="svg1"
   width="256"
   height="104"
   viewBox="0 0 256 104"
   xmlns="http://www.w3.org/2000/svg"
   xmlns:svg="http://www.w3.org/2000/svg">
  <defs
     id="defs1">
    <clipPath
       clipPathUnits="userSpaceOnUse"
       id="clipPath2">
      <path
         d="M 0,0 H 800.97656 V 326 H 0 Z"
         transform="scale(0.31999999)"
         clip-rule="evenodd"
         id="path2" />
    </clipPath>
    <clipPath
       clipPathUnits="userSpaceOnUse"
       id="clipPath4">
      <path
         d="m 56.25,21.875 h 687.5 V 306.25 H 56.25 Z"
         transform="matrix(0.39200169,0,0,0.39200169,415.70761,1580.2301)"
         clip-rule="evenodd"
         id="path4" />
    </clipPath>
    <clipPath
       clipPathUnits="userSpaceOnUse"
       id="clipPath5">
      <path
         d="m 56.25,21.875 h 687.5 V 306.25 H 56.25 Z"
         transform="matrix(0.39200169,0,0,0.39200169,-55.073647,-53.270035)"
         clip-rule="evenodd"
         id="path5" />
    </clipPath>
    <clipPath
       clipPathUnits="userSpaceOnUse"
       id="clipPath6">
      <path
         d="m 56.25,21.875 h 687.5 V 306.25 H 56.25 Z"
         transform="matrix(0.39200169,0,0,0.39200169,-104.76115,-82.270036)"
         clip-rule="evenodd"
         id="path6" />
    </clipPath>
  </defs>
  <g
     id="g1">
    <path
       id="path1"
       d="M 0,0 H 256 V 105 H 0 Z"
       style="fill:#ffffff;fill-opacity:1;fill-rule:nonzero;stroke:none"
       clip-path="url(#clipPath2)" />
    <path
       id="path3"
       d="m 464.57999,1591.03 h 215.28 c 1.61395,0 3.21234,0.1575 4.79522,0.4723 1.58295,0.3148 3.11994,0.7812 4.61109,1.3987 1.49109,0.6176 2.90759,1.3746 4.24957,2.2712 1.34198,0.8968 2.58356,1.9158 3.72479,3.0571 1.14124,1.1412 2.16016,2.3828 3.05676,3.7247 0.89667,1.3419 1.65381,2.7584 2.27143,4.2495 0.61761,1.4911 1.08386,3.0281 1.39874,4.6109 0.31494,1.5831 0.47241,3.1816 0.47241,4.7956 v 57.7101 c 0,1.6139 -0.15747,3.2123 -0.47235,4.7951 -0.31488,1.5829 -0.78113,3.1199 -1.39874,4.611 -0.61768,1.4911 -1.37482,2.9076 -2.27149,4.2496 -0.8966,1.3419 -1.91552,2.5835 -3.05676,3.7248 -1.14123,1.1411 -2.38281,2.16 -3.72479,3.0566 -1.34198,0.8967 -2.75848,1.6539 -4.24957,2.2716 -1.49115,0.6177 -3.02814,1.0839 -4.61109,1.3987 -1.58288,0.3149 -3.18127,0.4724 -4.79522,0.4725 h -215.28 c -1.61396,-1e-4 -3.21241,-0.1576 -4.79538,-0.4724 -1.58292,-0.3148 -3.11994,-0.7811 -4.61103,-1.3988 -1.49108,-0.6177 -2.90759,-1.3749 -4.24954,-2.2716 -1.34195,-0.8966 -2.58356,-1.9155 -3.72476,-3.0566 -1.14127,-1.1413 -2.16022,-2.383 -3.05685,-3.7249 -0.89664,-1.3419 -1.65378,-2.7584 -2.27143,-4.2495 -0.61764,-1.4911 -1.08389,-3.0282 -1.39874,-4.6111 -0.31485,-1.5829 -0.47229,-3.1811 -0.47226,-4.795 V 1615.61 c -3e-5,-1.614 0.15741,-3.2125 0.47226,-4.7956 0.31485,-1.5828 0.78107,-3.1198 1.39871,-4.611 0.61765,-1.4911 1.37479,-2.9075 2.27143,-4.2494 0.89666,-1.3419 1.91561,-2.5835 3.05685,-3.7247 1.1412,-1.1413 2.38281,-2.1603 3.72476,-3.0569 1.34195,-0.8966 2.75845,-1.6538 4.24954,-2.2714 1.49109,-0.6175 3.02811,-1.0839 4.61106,-1.3987 1.58297,-0.3148 3.18142,-0.4723 4.79538,-0.4723 z"
       style="fill:#ffffff;fill-opacity:1;fill-rule:nonzero;stroke:#000000;stroke-width:1;stroke-linecap:butt;stroke-linejoin:miter;stroke-miterlimit:10;stroke-dasharray:none;stroke-opacity:1"
       transform="matrix(0.81632297,0,0,0.81632297,-339.35167,-1289.9781)"
       clip-path="url(#clipPath4)" />
    <text
       id="text4"
       xml:space="preserve"
       transform="matrix(0.81632297,0,0,0.81632297,44.957883,43.485553)"
       clip-path="url(#clipPath5)"><tspan
         id="tspan4"
         style="font-variant:normal;font-weight:normal;font-size:12px;font-family:Arial;writing-mode:lr-tb;fill:#000000;fill-opacity:1;fill-rule:nonzero;stroke:none"
         x="0"
         y="0">require-constraint-name-compartment</tspan></text>
    <text
       id="text5"
       xml:space="preserve"
       transform="matrix(0.81632297,0,0,0.81632297,85.51893,67.15892)"
       clip-path="url(#clipPath6)"><tspan
         id="tspan5"
         style="font-variant:normal;font-weight:normal;font-size:12px;font-family:Arial;writing-mode:lr-tb;fill:#000000;fill-opacity:1;fill-rule:nonzero;stroke:none"
         x="0"
         y="0">compartment-stack</tspan></text>
  </g>
</svg>
