<?xml version="1.0" encoding="UTF-8" standalone="no"?>
<!-- Created with Inkscape (http://www.inkscape.org/) -->

<svg
   version="1.1"
   id="svg1"
   width="358.72"
   height="56"
   viewBox="0 0 358.72 56"
   xmlns="http://www.w3.org/2000/svg"
   xmlns:svg="http://www.w3.org/2000/svg">
  <defs
     id="defs1">
    <clipPath
       clipPathUnits="userSpaceOnUse"
       id="clipPath2">
      <path
         d="M 0,0 H 1118.9941 V 176 H 0 Z"
         transform="scale(0.31999999)"
         clip-rule="evenodd"
         id="path2" />
    </clipPath>
    <clipPath
       clipPathUnits="userSpaceOnUse"
       id="clipPath4">
      <path
         d="M 56.25,6.25 H 1062.5 V 171.875 H 56.25 Z"
         transform="matrix(0.37287638,0,0,0.37287638,257.34523,386.00429)"
         clip-rule="evenodd"
         id="path4" />
    </clipPath>
    <clipPath
       clipPathUnits="userSpaceOnUse"
       id="clipPath6">
      <path
         d="M 56.25,6.25 H 1062.5 V 171.875 H 56.25 Z"
         transform="matrix(0.37287638,0,0,0.37287638,257.34523,386.00429)"
         clip-rule="evenodd"
         id="path6" />
    </clipPath>
    <clipPath
       clipPathUnits="userSpaceOnUse"
       id="clipPath8">
      <path
         d="M 56.25,6.25 H 1062.5 V 171.875 H 56.25 Z"
         transform="matrix(0.37287638,0,0,0.37287638,257.84525,386.5043)"
         clip-rule="evenodd"
         id="path8" />
    </clipPath>
    <clipPath
       clipPathUnits="userSpaceOnUse"
       id="clipPath9">
      <path
         d="M 56.25,6.25 H 1062.5 V 171.875 H 56.25 Z"
         transform="matrix(0.37287638,0,0,0.37287638,-168.12351,-39.495701)"
         clip-rule="evenodd"
         id="path9" />
    </clipPath>
    <clipPath
       clipPathUnits="userSpaceOnUse"
       id="clipPath11">
      <path
         d="M 56.25,6.25 H 1062.5 V 171.875 H 56.25 Z"
         transform="matrix(0.37287638,0,0,0.37287638,257.84525,386.5043)"
         clip-rule="evenodd"
         id="path11" />
    </clipPath>
    <clipPath
       clipPathUnits="userSpaceOnUse"
       id="clipPath12">
      <path
         d="M 56.25,6.25 H 1062.5 V 171.875 H 56.25 Z"
         transform="matrix(0.37287638,0,0,0.37287638,-38.139136,-50.495702)"
         clip-rule="evenodd"
         id="path12" />
    </clipPath>
    <clipPath
       clipPathUnits="userSpaceOnUse"
       id="clipPath14">
      <path
         d="M 56.25,6.25 H 1062.5 V 171.875 H 56.25 Z"
         transform="matrix(0.37287638,0,0,0.37287638,257.84525,386.5043)"
         clip-rule="evenodd"
         id="path14" />
    </clipPath>
    <clipPath
       clipPathUnits="userSpaceOnUse"
       id="clipPath15">
      <path
         d="M 56.25,6.25 H 1062.5 V 171.875 H 56.25 Z"
         transform="matrix(0.37287638,0,0,0.37287638,-319.13914,-50.495702)"
         clip-rule="evenodd"
         id="path15" />
    </clipPath>
    <clipPath
       clipPathUnits="userSpaceOnUse"
       id="clipPath17">
      <path
         d="M 56.25,6.25 H 1062.5 V 171.875 H 56.25 Z"
         transform="matrix(0.37287638,0,0,0.37287638,257.84525,386.5043)"
         clip-rule="evenodd"
         id="path17" />
    </clipPath>
    <clipPath
       clipPathUnits="userSpaceOnUse"
       id="clipPath18">
      <path
         d="M 56.25,6.25 H 1062.5 V 171.875 H 56.25 Z"
         transform="matrix(0.37287638,0,0,0.37287638,-169.15476,-21.495701)"
         clip-rule="evenodd"
         id="path18" />
    </clipPath>
  </defs>
  <g
     id="g1">
    <path
       id="path1"
       d="M 0,0 H 358 V 57 H 0 Z"
       style="fill:#ffffff;fill-opacity:1;fill-rule:nonzero;stroke:none"
       clip-path="url(#clipPath2)" />
    <path
       id="path3"
       d="M 360,432 H 562.13"
       style="fill:none;stroke:#000000;stroke-width:1;stroke-linecap:butt;stroke-linejoin:miter;stroke-miterlimit:10;stroke-dasharray:none;stroke-opacity:1"
       transform="matrix(0.85819324,0,0,0.85819324,-220.85194,-331.26627)"
       clip-path="url(#clipPath4)" />
    <path
       id="path5"
       d="m 568.88,432 -9,4.5 2.25,-4.5 -2.25,-4.5 z"
       style="fill:none;stroke:#000000;stroke-width:1;stroke-linecap:butt;stroke-linejoin:miter;stroke-miterlimit:10;stroke-dasharray:none;stroke-opacity:1"
       transform="matrix(0.85819324,0,0,0.85819324,-220.85194,-331.26627)"
       clip-path="url(#clipPath6)" />
    <path
       id="path7"
       d="m 426,415 h 78 v 15 h -78 z"
       style="fill:#ffffff;fill-opacity:1;fill-rule:nonzero;stroke:none"
       transform="matrix(0.85819324,0,0,0.85819324,-221.28105,-331.69538)"
       clip-path="url(#clipPath8)" />
    <text
       id="text8"
       xml:space="preserve"
       transform="matrix(0.85819324,0,0,0.85819324,144.28246,33.894944)"
       clip-path="url(#clipPath9)"><tspan
         id="tspan8"
         style="font-variant:normal;font-weight:normal;font-size:12px;font-family:Arial;writing-mode:lr-tb;fill:#000000;fill-opacity:1;fill-rule:nonzero;stroke:none"
         x="0"
         y="0">message-label</tspan></text>
    <path
       id="path10"
       d="m 296,426 h 58 v 15 h -58 z"
       style="fill:#ffffff;fill-opacity:1;fill-rule:nonzero;stroke:none"
       transform="matrix(0.85819324,0,0,0.85819324,-221.28105,-331.69538)"
       clip-path="url(#clipPath11)" />
    <text
       id="text11"
       xml:space="preserve"
       transform="matrix(0.85819324,0,0,0.85819324,32.730749,43.33507)"
       clip-path="url(#clipPath12)"><tspan
         id="tspan11"
         style="font-variant:normal;font-weight:normal;font-size:12px;font-family:Arial;writing-mode:lr-tb;fill:#000000;fill-opacity:1;fill-rule:nonzero;stroke:none"
         x="0"
         y="0">&amp;sq-l-node</tspan></text>
    <path
       id="path13"
       d="m 577,426 h 58 v 15 h -58 z"
       style="fill:#ffffff;fill-opacity:1;fill-rule:nonzero;stroke:none"
       transform="matrix(0.85819324,0,0,0.85819324,-221.28105,-331.69538)"
       clip-path="url(#clipPath14)" />
    <text
       id="text14"
       xml:space="preserve"
       transform="matrix(0.85819324,0,0,0.85819324,273.88305,43.33507)"
       clip-path="url(#clipPath15)"><tspan
         id="tspan14"
         style="font-variant:normal;font-weight:normal;font-size:12px;font-family:Arial;writing-mode:lr-tb;fill:#000000;fill-opacity:1;fill-rule:nonzero;stroke:none"
         x="0"
         y="0">&amp;sq-l-node</tspan></text>
    <path
       id="path16"
       d="m 427,399 h 61 v 11 h -61 z"
       style="fill:#f8f9fa;fill-opacity:1;fill-rule:nonzero;stroke:none"
       transform="matrix(0.85819324,0,0,0.85819324,-221.28105,-331.69538)"
       clip-path="url(#clipPath17)" />
    <text
       id="text17"
       xml:space="preserve"
       transform="matrix(0.85819324,0,0,0.85819324,145.16747,18.447465)"
       clip-path="url(#clipPath18)"><tspan
         id="tspan17"
         style="font-variant:normal;font-weight:normal;font-size:10px;font-family:Arial;writing-mode:lr-tb;fill:#000000;fill-opacity:1;fill-rule:nonzero;stroke:none"
         x="0"
         y="0">'«message»'?</tspan></text>
  </g>
</svg>
