<?xml version="1.0" encoding="UTF-8" standalone="no"?>
<!-- Created with Inkscape (http://www.inkscape.org/) -->

<svg
   version="1.1"
   id="svg1"
   width="512"
   height="56"
   viewBox="0 0 512 56"
   xmlns="http://www.w3.org/2000/svg"
   xmlns:svg="http://www.w3.org/2000/svg">
  <defs
     id="defs1">
    <clipPath
       clipPathUnits="userSpaceOnUse"
       id="clipPath2">
      <path
         d="M 0,0 H 1599.0234 V 176 H 0 Z"
         transform="scale(0.31999999)"
         clip-rule="evenodd"
         id="path2" />
    </clipPath>
    <clipPath
       clipPathUnits="userSpaceOnUse"
       id="clipPath4">
      <path
         d="M 56.25,3.125 H 1540.625 V 175 H 56.25 Z"
         transform="matrix(0.36073416,0,0,0.36073416,168.05898,546.2454)"
         clip-rule="evenodd"
         id="path4" />
    </clipPath>
    <clipPath
       clipPathUnits="userSpaceOnUse"
       id="clipPath6">
      <path
         d="M 56.25,3.125 H 1540.625 V 175 H 56.25 Z"
         transform="matrix(0.36073416,0,0,0.36073416,168.05898,546.2454)"
         clip-rule="evenodd"
         id="path6" />
    </clipPath>
    <clipPath
       clipPathUnits="userSpaceOnUse"
       id="clipPath8">
      <path
         d="M 56.25,3.125 H 1540.625 V 175 H 56.25 Z"
         transform="matrix(0.36073416,0,0,0.36073416,168.55898,546.74541)"
         clip-rule="evenodd"
         id="path8" />
    </clipPath>
    <clipPath
       clipPathUnits="userSpaceOnUse"
       id="clipPath9">
      <path
         d="M 56.25,3.125 H 1540.625 V 175 H 56.25 Z"
         transform="matrix(0.36073416,0,0,0.36073416,-235.58165,-34.254586)"
         clip-rule="evenodd"
         id="path9" />
    </clipPath>
    <clipPath
       clipPathUnits="userSpaceOnUse"
       id="clipPath10">
      <path
         d="M 56.25,3.125 H 1540.625 V 175 H 56.25 Z"
         transform="matrix(0.36073416,0,0,0.36073416,-430.75352,-49.254586)"
         clip-rule="evenodd"
         id="path10" />
    </clipPath>
    <clipPath
       clipPathUnits="userSpaceOnUse"
       id="clipPath11">
      <path
         d="M 56.25,3.125 H 1540.625 V 175 H 56.25 Z"
         transform="matrix(0.36073416,0,0,0.36073416,-75.425399,-49.254586)"
         clip-rule="evenodd"
         id="path11" />
    </clipPath>
    <clipPath
       clipPathUnits="userSpaceOnUse"
       id="clipPath13">
      <path
         d="M 56.25,3.125 H 1540.625 V 175 H 56.25 Z"
         transform="matrix(0.36073416,0,0,0.36073416,168.55898,546.74541)"
         clip-rule="evenodd"
         id="path13" />
    </clipPath>
    <clipPath
       clipPathUnits="userSpaceOnUse"
       id="clipPath14">
      <path
         d="M 56.25,3.125 H 1540.625 V 175 H 56.25 Z"
         transform="matrix(0.36073416,0,0,0.36073416,-246.44102,-20.254585)"
         clip-rule="evenodd"
         id="path14" />
    </clipPath>
  </defs>
  <g
     id="g1">
    <path
       id="path1"
       d="M 0,0 H 512 V 57 H 0 Z"
       style="fill:#ffffff;fill-opacity:1;fill-rule:nonzero;stroke:none"
       clip-path="url(#clipPath2)" />
    <path
       id="path3"
       d="m 304,590.5 h 3 v 1 h -3 m 6,-1 h 3 v 1 h -3 m 6,-1 h 3 v 1 h -3 m 6,-1 h 3 v 1 h -3 m 6,-1 h 3 v 1 h -3 m 6,-1 h 3 v 1 h -3 m 6,-1 h 3 v 1 h -3 m 6,-1 h 3 v 1 h -3 m 6,-1 h 3 v 1 h -3 m 6,-1 h 3 v 1 h -3 m 6,-1 h 3 v 1 h -3 m 6,-1 h 3 v 1 h -3 m 6,-1 h 3 v 1 h -3 m 6,-1 h 3 v 1 h -3 m 6,-1 h 3 v 1 h -3 m 6,-1 h 3 v 1 h -3 m 6,-1 h 3 v 1 h -3 m 6,-1 h 3 v 1 h -3 m 6,-1 h 3 v 1 h -3 m 6,-1 h 3 v 1 h -3 m 6,-1 h 3 v 1 h -3 m 6,-1 h 3 v 1 h -3 m 6,-1 h 3 v 1 h -3 m 6,-1 h 3 v 1 h -3 m 6,-1 h 3 v 1 h -3 m 6,-1 h 3 v 1 h -3 m 6,-1 h 3 v 1 h -3 m 6,-1 h 3 v 1 h -3 m 6,-1 h 3 v 1 h -3 m 6,-1 h 3 v 1 h -3 m 6,-1 h 3 v 1 h -3 m 6,-1 h 3 v 1 h -3 m 6,-1 h 3 v 1 h -3 m 6,-1 h 3 v 1 h -3 m 6,-1 h 3 v 1 h -3 m 6,-1 h 3 v 1 h -3 m 6,-1 h 3 v 1 h -3 m 6,-1 h 3 v 1 h -3 m 6,-1 h 3 v 1 h -3 m 6,-1 h 3 v 1 h -3 m 6,-1 h 3 v 1 h -3 m 6,-1 h 3 v 1 h -3 m 6,-1 h 3 v 1 h -3 m 6,-1 h 3 v 1 h -3 m 6,-1 h 3 v 1 h -3 m 6,-1 h 3 v 1 h -3 m 6,-1 h 3 v 1 h -3 m 6,-1 h 3 v 1 h -3 m 6,-1 h 3 v 1 h -3 m 6,-1 h 3 v 1 h -3 m 6,-1 h 3 v 1 h -3"
       style="fill:#000000;fill-opacity:1;fill-rule:nonzero;stroke:none"
       transform="matrix(0.8870798,0,0,0.8870798,-149.08173,-484.56326)"
       clip-path="url(#clipPath4)" />
    <path
       id="path5"
       d="m 599.88,595.5 9,-4.5 -9,-4.5"
       style="fill:none;stroke:#000000;stroke-width:1;stroke-linecap:butt;stroke-linejoin:miter;stroke-miterlimit:10;stroke-dasharray:none;stroke-opacity:1"
       transform="matrix(0.8870798,0,0,0.8870798,-149.08173,-484.56326)"
       clip-path="url(#clipPath6)" />
    <path
       id="path7"
       d="m 404,570 h 89 v 15 h -89 z"
       style="fill:#ffffff;fill-opacity:1;fill-rule:nonzero;stroke:none"
       transform="matrix(0.8870798,0,0,0.8870798,-149.52527,-485.00681)"
       clip-path="url(#clipPath8)" />
    <text
       id="text8"
       xml:space="preserve"
       transform="matrix(0.8870798,0,0,0.8870798,208.97972,30.386551)"
       clip-path="url(#clipPath9)"><tspan
         id="tspan8"
         style="font-variant:normal;font-weight:normal;font-size:12px;font-family:Arial;writing-mode:lr-tb;fill:#000000;fill-opacity:1;fill-rule:nonzero;stroke:none"
         x="0"
         y="0">succession-label</tspan></text>
    <g
       id="g9" />
    <g
       id="g10" />
    <text
       id="text10"
       xml:space="preserve"
       transform="matrix(0.8870798,0,0,0.8870798,382.11275,43.692748)"
       clip-path="url(#clipPath10)"><tspan
         id="tspan10"
         style="font-variant:normal;font-weight:normal;font-size:12px;font-family:Arial;writing-mode:lr-tb;fill:#000000;fill-opacity:1;fill-rule:nonzero;stroke:none"
         x="0"
         y="0">    &amp;sq-l-node</tspan></text>
    <text
       id="text11"
       xml:space="preserve"
       transform="matrix(0.8870798,0,0,0.8870798,66.908348,43.692748)"
       clip-path="url(#clipPath11)"><tspan
         id="tspan11"
         style="font-variant:normal;font-weight:normal;font-size:12px;font-family:Arial;writing-mode:lr-tb;fill:#000000;fill-opacity:1;fill-rule:nonzero;stroke:none"
         x="0"
         y="0">&amp;sq-l-node</tspan></text>
    <path
       id="path12"
       d="m 415,558 h 70 v 11 h -70 z"
       style="fill:#f8f9fa;fill-opacity:1;fill-rule:nonzero;stroke:none"
       transform="matrix(0.8870798,0,0,0.8870798,-149.52527,-485.00681)"
       clip-path="url(#clipPath13)" />
    <text
       id="text13"
       xml:space="preserve"
       transform="matrix(0.8870798,0,0,0.8870798,218.61285,17.967433)"
       clip-path="url(#clipPath14)"><tspan
         id="tspan13"
         style="font-variant:normal;font-weight:normal;font-size:10px;font-family:Arial;writing-mode:lr-tb;fill:#000000;fill-opacity:1;fill-rule:nonzero;stroke:none"
         x="0"
         y="0">'«succession»'?</tspan></text>
  </g>
</svg>
