<?xml version="1.0" encoding="UTF-8" standalone="no"?>
<!-- Created with Inkscape (http://www.inkscape.org/) -->

<svg
   version="1.1"
   id="svg1"
   width="120"
   height="291.84"
   viewBox="0 0 120 291.84"
   xmlns="http://www.w3.org/2000/svg"
   xmlns:svg="http://www.w3.org/2000/svg">
  <defs
     id="defs1">
    <clipPath
       clipPathUnits="userSpaceOnUse"
       id="clipPath2">
      <path
         d="M 0,0 H 375 V 912.01172 H 0 Z"
         transform="scale(0.31999999)"
         clip-rule="evenodd"
         id="path2" />
    </clipPath>
    <clipPath
       clipPathUnits="userSpaceOnUse"
       id="clipPath4">
      <path
         d="m 56.25,143.75 h 262.5 v 625 H 56.25 Z"
         transform="matrix(0.48903852,0,0,0.48903852,95.961802,2890.6723)"
         clip-rule="evenodd"
         id="path4" />
    </clipPath>
    <clipPath
       clipPathUnits="userSpaceOnUse"
       id="clipPath6">
      <path
         d="m 56.25,143.75 h 262.5 v 625 H 56.25 Z"
         transform="matrix(0.48903852,0,0,0.48903852,95.961802,2890.6723)"
         clip-rule="evenodd"
         id="path6" />
    </clipPath>
    <clipPath
       clipPathUnits="userSpaceOnUse"
       id="clipPath8">
      <path
         d="m 56.25,143.75 h 262.5 v 625 H 56.25 Z"
         transform="matrix(0.48903852,0,0,0.48903852,96.461815,2891.1723)"
         clip-rule="evenodd"
         id="path8" />
    </clipPath>
    <clipPath
       clipPathUnits="userSpaceOnUse"
       id="clipPath9">
      <path
         d="m 56.25,143.75 h 262.5 v 625 H 56.25 Z"
         transform="matrix(0.48903852,0,0,0.48903852,-55.178808,-137.8277)"
         clip-rule="evenodd"
         id="path9" />
    </clipPath>
    <clipPath
       clipPathUnits="userSpaceOnUse"
       id="clipPath10">
      <path
         d="m 56.25,143.75 h 262.5 v 625 H 56.25 Z"
         transform="matrix(0.48903852,0,0,0.48903852,-55.522559,-152.82769)"
         clip-rule="evenodd"
         id="path10" />
    </clipPath>
    <clipPath
       clipPathUnits="userSpaceOnUse"
       id="clipPath12">
      <path
         d="m 56.25,143.75 h 262.5 v 625 H 56.25 Z"
         transform="matrix(0.48903852,0,0,0.48903852,96.461815,2891.1723)"
         clip-rule="evenodd"
         id="path12" />
    </clipPath>
    <clipPath
       clipPathUnits="userSpaceOnUse"
       id="clipPath13">
      <path
         d="m 56.25,143.75 h 262.5 v 625 H 56.25 Z"
         transform="matrix(0.48903852,0,0,0.48903852,-40.163184,-220.82769)"
         clip-rule="evenodd"
         id="path13" />
    </clipPath>
  </defs>
  <g
     id="g1">
    <path
       id="path1"
       d="M 0,0 H 120 V 292 H 0 Z"
       style="fill:#ffffff;fill-opacity:1;fill-rule:nonzero;stroke:none"
       clip-path="url(#clipPath2)" />
    <path
       id="path3"
       d="m 126,3009 h 122.23999 v 210 H 126 Z"
       style="fill:#ffffff;fill-opacity:1;fill-rule:nonzero;stroke:none"
       transform="matrix(0.65434516,0,0,0.65434516,-62.792141,-1891.4974)"
       clip-path="url(#clipPath4)" />
    <path
       id="path5"
       d="m 132,3008.5 h 3 v 1 h -3 z m 6,0 h 3 v 1 h -3 z m 6,0 h 3 v 1 h -3 z m 6,0 h 3 v 1 h -3 z m 6,0 h 3 v 1 h -3 z m 6,0 h 3 v 1 h -3 z m 6,0 h 3 v 1 h -3 z m 6,0 h 3 v 1 h -3 z m 6,0 h 3 v 1 h -3 z m 6,0 h 3 v 1 h -3 z m 6,0 h 3 v 1 h -3 z m 6,0 h 3 v 1 h -3 z m 6,0 h 3 v 1 h -3 z m 6,0 h 3 v 1 h -3 z m 6,0 h 3 v 1 h -3 z m 6,0 h 3 v 1 h -3 z m 6,0 h 3 v 1 h -3 z m 6,0 h 3 v 1 h -3 z m 6,0 h 3 v 1 h -3 z m 6,0 h 2.73999 v 1.26 h -1 V 3009 h 0.5 v 0.5 H 246 Z m 2.73999,4.26 v 3 h -1 v -3 z m 0,6 v 3 h -1 v -3 z m 0,6 v 3 h -1 v -3 z m 0,6 v 3 h -1 v -3 z m 0,6 v 3 h -1 v -3 z m 0,6 v 3 h -1 v -3 z m 0,6 v 3 h -1 v -3 z m 0,6 v 3 h -1 v -3 z m 0,6 v 3 h -1 v -3 z m 0,6 v 3 h -1 v -3 z m 0,6 v 3 h -1 v -3 z m 0,6 v 3 h -1 v -3 z m 0,6 v 3 h -1 v -3 z m 0,6 v 3 h -1 v -3 z m 0,6 v 3 h -1 v -3 z m 0,6 v 3 h -1 v -3 z m 0,6 v 3 h -1 v -3 z m 0,6 v 3 h -1 v -3 z m 0,6 v 3 h -1 v -3 z m 0,6 v 3 h -1 v -3 z m 0,6 v 3 h -1 v -3 z m 0,6 v 3 h -1 v -3 z m 0,6 v 3 h -1 v -3 z m 0,6 v 3 h -1 v -3 z m 0,6 v 3 h -1 v -3 z m 0,6 v 3 h -1 v -3 z m 0,6 v 3 h -1 v -3 z m 0,6 v 3 h -1 v -3 z m 0,6 v 3 h -1 v -3 z m 0,6 v 3 h -1 v -3 z m 0,6 v 3 h -1 v -3 z m 0,6 v 3 h -1 v -3 z m 0,6 v 3 h -1 v -3 z m 0,6 v 3 h -1 v -3 z m 0,6 v 2.74 h -1.26001 v -1 h 0.76001 v 0.5 h -0.5 v -2.24 z m -4.26001,2.74 h -3 v -1 h 3 z m -6,0 h -3 v -1 h 3 z m -6,0 h -3 v -1 h 3 z m -6,0 h -3 v -1 h 3 z m -6,0 h -3 v -1 h 3 z m -6,0 h -3 v -1 h 3 z m -6,0 h -3 v -1 h 3 z m -6,0 h -3 v -1 h 3 z m -6,0 h -3 v -1 h 3 z m -6,0 h -3 v -1 h 3 z m -6,0 h -3 v -1 h 3 z m -6,0 h -3 v -1 h 3 z m -6,0 h -3 v -1 h 3 z m -6,0 h -3 v -1 h 3 z m -6,0 h -3 v -1 h 3 z m -6,0 h -3 v -1 h 3 z m -6,0 h -3 v -1 h 3 z m -6,0 h -3 v -1 h 3 z m -6,0 h -3 v -1 h 3 z m -6,0 h -3 v -1 h 3 z M 125.5,3217.48 v -3 h 1 v 3 z m 0,-6 v -3 h 1 v 3 z m 0,-6 v -3 h 1 v 3 z m 0,-6 v -3 h 1 v 3 z m 0,-6 v -3 h 1 v 3 z m 0,-6 v -3 h 1 v 3 z m 0,-6 v -3 h 1 v 3 z m 0,-6 v -3 h 1 v 3 z m 0,-6 v -3 h 1 v 3 z m 0,-6 v -3 h 1 v 3 z m 0,-6 v -3 h 1 v 3 z m 0,-6 v -3 h 1 v 3 z m 0,-6 v -3 h 1 v 3 z m 0,-6 v -3 h 1 v 3 z m 0,-6 v -3 h 1 v 3 z m 0,-6 v -3 h 1 v 3 z m 0,-6 v -3 h 1 v 3 z m 0,-6 v -3 h 1 v 3 z m 0,-6 v -3 h 1 v 3 z m 0,-6 v -3 h 1 v 3 z m 0,-6 v -3 h 1 v 3 z m 0,-6 v -3 h 1 v 3 z m 0,-6 v -3 h 1 v 3 z m 0,-6 v -3 h 1 v 3 z m 0,-6 v -3 h 1 v 3 z m 0,-6 v -3 h 1 v 3 z m 0,-6 v -3 h 1 v 3 z m 0,-6 v -3 h 1 v 3 z m 0,-6 v -3 h 1 v 3 z m 0,-6 v -3 h 1 v 3 z m 0,-6 v -3 h 1 v 3 z m 0,-6 v -3 h 1 v 3 z m 0,-6 v -3 h 1 v 3 z m 0,-6 v -3 h 1 v 3 z m 0,-6 v -3 h 1 v 3 z m 0.5,-4.98 h 3 v 1 h -3 z"
       style="fill:#000000;fill-opacity:1;fill-rule:nonzero;stroke:none"
       transform="matrix(0.65434516,0,0,0.65434516,-62.792141,-1891.4974)"
       clip-path="url(#clipPath6)" />
    <path
       id="path7"
       d="m 128,3018 h 118 v 29 H 128 Z"
       style="fill:#ffffff;fill-opacity:1;fill-rule:nonzero;stroke:none"
       transform="matrix(0.65434516,0,0,0.65434516,-63.119322,-1891.8246)"
       clip-path="url(#clipPath8)" />
    <text
       id="text8"
       xml:space="preserve"
       transform="matrix(0.65434516,0,0,0.65434516,36.105986,90.186887)"
       clip-path="url(#clipPath9)"><tspan
         id="tspan8"
         style="font-variant:normal;font-weight:normal;font-size:12px;font-family:Arial;writing-mode:lr-tb;fill:#000000;fill-opacity:1;fill-rule:nonzero;stroke:none"
         x="0"
         y="0">usage-name-</tspan></text>
    <text
       id="text9"
       xml:space="preserve"
       transform="matrix(0.65434516,0,0,0.65434516,36.330918,100.00206)"
       clip-path="url(#clipPath10)"><tspan
         id="tspan9"
         style="font-variant:normal;font-weight:normal;font-size:12px;font-family:Arial;writing-mode:lr-tb;fill:#000000;fill-opacity:1;fill-rule:nonzero;stroke:none"
         x="0"
         y="0">compartment</tspan></text>
    <path
       id="path11"
       d="m 137,3101 h 100 v 15 H 137 Z"
       style="fill:#ffffff;fill-opacity:1;fill-rule:nonzero;stroke:none"
       transform="matrix(0.65434516,0,0,0.65434516,-63.119322,-1891.8246)"
       clip-path="url(#clipPath12)" />
    <text
       id="text12"
       xml:space="preserve"
       transform="matrix(0.65434516,0,0,0.65434516,26.280585,144.49753)"
       clip-path="url(#clipPath13)"><tspan
         id="tspan12"
         style="font-variant:normal;font-weight:normal;font-size:12px;font-family:Arial;writing-mode:lr-tb;fill:#000000;fill-opacity:1;fill-rule:nonzero;stroke:none"
         x="0"
         y="0">&amp;action-flow-node*</tspan></text>
  </g>
</svg>
