<?xml version="1.0" encoding="UTF-8" standalone="no"?>
<!-- Created with Inkscape (http://www.inkscape.org/) -->

<svg
   version="1.1"
   id="svg1"
   width="153.28"
   height="78.719994"
   viewBox="0 0 153.28 78.719994"
   xmlns="http://www.w3.org/2000/svg"
   xmlns:svg="http://www.w3.org/2000/svg">
  <defs
     id="defs1">
    <clipPath
       clipPathUnits="userSpaceOnUse"
       id="clipPath2">
      <path
         d="M 0,0 H 479.98047 V 245.99609 H 0 Z"
         transform="scale(0.31999999)"
         clip-rule="evenodd"
         id="path2" />
    </clipPath>
    <clipPath
       clipPathUnits="userSpaceOnUse"
       id="clipPath4">
      <path
         d="M 56.25,28.125 H 421.875 V 218.75 H 56.25 Z"
         transform="matrix(0.44580474,0,0,0.44580474,9.5224272,-693.93138)"
         clip-rule="evenodd"
         id="path4" />
    </clipPath>
    <clipPath
       clipPathUnits="userSpaceOnUse"
       id="clipPath6">
      <path
         d="M 56.25,28.125 H 421.875 V 218.75 H 56.25 Z"
         transform="matrix(0.44580474,0,0,0.44580474,9.5224272,-693.93138)"
         clip-rule="evenodd"
         id="path6" />
    </clipPath>
    <clipPath
       clipPathUnits="userSpaceOnUse"
       id="clipPath7">
      <path
         d="M 56.25,28.125 H 421.875 V 218.75 H 56.25 Z"
         transform="matrix(0.44580474,0,0,0.44580474,-28.977573,-65.431375)"
         clip-rule="evenodd"
         id="path7" />
    </clipPath>
    <clipPath
       clipPathUnits="userSpaceOnUse"
       id="clipPath8">
      <path
         d="M 56.25,28.125 H 421.875 V 218.75 H 56.25 Z"
         transform="matrix(0.44580474,0,0,0.44580474,-28.977573,-80.431375)"
         clip-rule="evenodd"
         id="path8" />
    </clipPath>
    <clipPath
       clipPathUnits="userSpaceOnUse"
       id="clipPath9">
      <path
         d="M 56.25,28.125 H 421.875 V 218.75 H 56.25 Z"
         transform="matrix(0.44580474,0,0,0.44580474,-83.836949,-26.431374)"
         clip-rule="evenodd"
         id="path9" />
    </clipPath>
    <clipPath
       clipPathUnits="userSpaceOnUse"
       id="clipPath10">
      <path
         d="M 56.25,28.125 H 421.875 V 218.75 H 56.25 Z"
         transform="matrix(0.44580474,0,0,0.44580474,-67.790074,-41.431374)"
         clip-rule="evenodd"
         id="path10" />
    </clipPath>
  </defs>
  <g
     id="g1">
    <path
       id="path1"
       d="M 0,0 H 154 V 79 H 0 Z"
       style="fill:#ffffff;fill-opacity:1;fill-rule:nonzero;stroke:none"
       clip-path="url(#clipPath2)" />
    <path
       id="path3"
       d="m 37,-679 h 139 l 19,19 v 61 H 37 Z"
       style="fill:#ffffff;fill-opacity:1;fill-rule:nonzero;stroke:#000000;stroke-width:1;stroke-linecap:butt;stroke-linejoin:miter;stroke-miterlimit:10;stroke-dasharray:none;stroke-opacity:1"
       transform="matrix(0.71780301,0,0,0.71780301,-6.8352269,498.10603)"
       clip-path="url(#clipPath4)" />
    <path
       id="path5"
       d="m 176,-679 v 19 h 19"
       style="fill:none;stroke:#000000;stroke-width:1;stroke-linecap:butt;stroke-linejoin:miter;stroke-miterlimit:10;stroke-dasharray:none;stroke-opacity:1"
       transform="matrix(0.71780301,0,0,0.71780301,-6.8352269,498.10603)"
       clip-path="url(#clipPath6)" />
    <g
       id="g6" />
    <text
       id="text6"
       xml:space="preserve"
       transform="matrix(0.71780301,0,0,0.71780301,20.800189,46.966838)"
       clip-path="url(#clipPath7)"><tspan
         id="tspan6"
         style="font-variant:normal;font-weight:normal;font-size:12px;font-family:Arial;writing-mode:lr-tb;fill:#000000;fill-opacity:1;fill-rule:nonzero;stroke:none"
         x="0"
         y="0"> language-string</tspan></text>
    <g
       id="g7" />
    <text
       id="text7"
       xml:space="preserve"
       transform="matrix(0.71780301,0,0,0.71780301,20.800189,57.733883)"
       clip-path="url(#clipPath8)"><tspan
         id="tspan7"
         style="font-variant:normal;font-weight:normal;font-size:12px;font-family:Arial;writing-mode:lr-tb;fill:#000000;fill-opacity:1;fill-rule:nonzero;stroke:none"
         x="0"
         y="0"> text-block</tspan></text>
    <text
       id="text8"
       xml:space="preserve"
       transform="matrix(0.71780301,0,0,0.71780301,60.178414,18.97252)"
       clip-path="url(#clipPath9)"><tspan
         id="tspan8"
         style="font-variant:normal;font-weight:normal;font-size:12px;font-family:Arial;writing-mode:lr-tb;fill:#000000;fill-opacity:1;fill-rule:nonzero;stroke:none"
         x="0"
         y="0">'«rep»'</tspan></text>
    <text
       id="text9"
       xml:space="preserve"
       transform="matrix(0.71780301,0,0,0.71780301,48.659919,29.739565)"
       clip-path="url(#clipPath10)"><tspan
         id="tspan9"
         style="font-variant:normal;font-weight:normal;font-size:12px;font-family:Arial;writing-mode:lr-tb;fill:#000000;fill-opacity:1;fill-rule:nonzero;stroke:none"
         x="0"
         y="0">Identification</tspan></text>
  </g>
</svg>
