<?xml version="1.0" encoding="UTF-8" standalone="no"?>
<!-- Created with Inkscape (http://www.inkscape.org/) -->

<svg
   version="1.1"
   id="svg1"
   width="286.72"
   height="128"
   viewBox="0 0 286.72 128"
   xmlns="http://www.w3.org/2000/svg"
   xmlns:svg="http://www.w3.org/2000/svg">
  <defs
     id="defs1">
    <clipPath
       clipPathUnits="userSpaceOnUse"
       id="clipPath2">
      <path
         d="M 0,0 H 893.99414 V 399.02344 H 0 Z"
         transform="scale(0.31999999)"
         clip-rule="evenodd"
         id="path2" />
    </clipPath>
    <clipPath
       clipPathUnits="userSpaceOnUse"
       id="clipPath4">
      <path
         d="M 56.25,21.875 H 837.5 V 375 H 56.25 Z"
         transform="matrix(0.3843779,0,0,0.3843779,383.65944,2496.8604)"
         clip-rule="evenodd"
         id="path4" />
    </clipPath>
    <clipPath
       clipPathUnits="userSpaceOnUse"
       id="clipPath5">
      <path
         d="M 56.25,21.875 H 837.5 V 375 H 56.25 Z"
         transform="matrix(0.3843779,0,0,0.3843779,-92.465567,-51.639562)"
         clip-rule="evenodd"
         id="path5" />
    </clipPath>
    <clipPath
       clipPathUnits="userSpaceOnUse"
       id="clipPath6">
      <path
         d="M 56.25,21.875 H 837.5 V 375 H 56.25 Z"
         transform="matrix(0.3843779,0,0,0.3843779,-128.15306,-79.639562)"
         clip-rule="evenodd"
         id="path6" />
    </clipPath>
    <clipPath
       clipPathUnits="userSpaceOnUse"
       id="clipPath7">
      <path
         d="M 56.25,21.875 H 837.5 V 375 H 56.25 Z"
         transform="matrix(0.3843779,0,0,0.3843779,-119.80932,-108.63956)"
         clip-rule="evenodd"
         id="path7" />
    </clipPath>
    <clipPath
       clipPathUnits="userSpaceOnUse"
       id="clipPath9">
      <path
         d="M 56.25,21.875 H 837.5 V 375 H 56.25 Z"
         transform="matrix(0.3843779,0,0,0.3843779,384.15943,2497.3605)"
         clip-rule="evenodd"
         id="path9" />
    </clipPath>
    <clipPath
       clipPathUnits="userSpaceOnUse"
       id="clipPath10">
      <path
         d="M 56.25,21.875 H 837.5 V 375 H 56.25 Z"
         transform="matrix(0.3843779,0,0,0.3843779,-26.153067,-78.639562)"
         clip-rule="evenodd"
         id="path10" />
    </clipPath>
    <clipPath
       clipPathUnits="userSpaceOnUse"
       id="clipPath12">
      <path
         d="M 56.25,21.875 H 837.5 V 375 H 56.25 Z"
         transform="matrix(0.3843779,0,0,0.3843779,384.15943,2497.3605)"
         clip-rule="evenodd"
         id="path12" />
    </clipPath>
    <clipPath
       clipPathUnits="userSpaceOnUse"
       id="clipPath13">
      <path
         d="M 56.25,21.875 H 837.5 V 375 H 56.25 Z"
         transform="matrix(0.3843779,0,0,0.3843779,-269.49682,-78.639562)"
         clip-rule="evenodd"
         id="path13" />
    </clipPath>
    <clipPath
       clipPathUnits="userSpaceOnUse"
       id="clipPath15">
      <path
         d="M 56.25,21.875 H 837.5 V 375 H 56.25 Z"
         transform="matrix(0.3843779,0,0,0.3843779,384.15943,2497.3605)"
         clip-rule="evenodd"
         id="path15" />
    </clipPath>
    <clipPath
       clipPathUnits="userSpaceOnUse"
       id="clipPath16">
      <path
         d="M 56.25,21.875 H 837.5 V 375 H 56.25 Z"
         transform="matrix(0.3843779,0,0,0.3843779,-141.82495,-133.63956)"
         clip-rule="evenodd"
         id="path16" />
    </clipPath>
    <clipPath
       clipPathUnits="userSpaceOnUse"
       id="clipPath18">
      <path
         d="M 56.25,21.875 H 837.5 V 375 H 56.25 Z"
         transform="matrix(0.3843779,0,0,0.3843779,384.15943,2497.3605)"
         clip-rule="evenodd"
         id="path18" />
    </clipPath>
    <clipPath
       clipPathUnits="userSpaceOnUse"
       id="clipPath19">
      <path
         d="M 56.25,21.875 H 837.5 V 375 H 56.25 Z"
         transform="matrix(0.3843779,0,0,0.3843779,-143.49682,-25.639561)"
         clip-rule="evenodd"
         id="path19" />
    </clipPath>
  </defs>
  <g
     id="g1">
    <path
       id="path1"
       d="M 0,0 H 286 V 128 H 0 Z"
       style="fill:#ffffff;fill-opacity:1;fill-rule:nonzero;stroke:none"
       clip-path="url(#clipPath2)" />
    <path
       id="path3"
       d="m 468.13998,2520 h 172.47001 c 1.61389,0 3.21234,0.1575 4.79528,0.4724 1.58295,0.3147 3.11994,0.781 4.61103,1.3987 1.49102,0.6174 2.90759,1.3745 4.24957,2.2712 1.34192,0.8968 2.5835,1.9156 3.72479,3.0569 1.14124,1.1414 2.16016,2.3828 3.05676,3.7249 0.89667,1.3418 1.65387,2.7583 2.27149,4.2495 0.61761,1.4912 1.0838,3.0283 1.39868,4.6113 0.31488,1.5828 0.47235,3.1812 0.47241,4.7952 v 57.7099 c -6e-5,1.6141 -0.15753,3.2122 -0.47241,4.795 -0.31488,1.583 -0.78107,3.1201 -1.39868,4.611 -0.61768,1.4913 -1.37482,2.9078 -2.27149,4.2498 -0.89666,1.342 -1.91558,2.5835 -3.05682,3.7249 -1.14123,1.1411 -2.38281,2.1601 -3.72479,3.0568 -1.34198,0.8965 -2.75849,1.6536 -4.24951,2.2713 -1.49109,0.6177 -3.02814,1.084 -4.61109,1.3987 -1.58294,0.3151 -3.18133,0.4726 -4.79522,0.4726 H 468.13998 c -1.61395,0 -3.2124,-0.1575 -4.79534,-0.4726 -1.58295,-0.3147 -3.11997,-0.781 -4.61106,-1.3987 -1.49112,-0.6177 -2.90762,-1.3748 -4.24954,-2.2713 -1.34195,-0.8967 -2.58353,-1.9157 -3.72476,-3.0568 -1.14124,-1.1414 -2.16019,-2.3829 -3.05683,-3.7249 -0.89666,-1.342 -1.6538,-2.7585 -2.27142,-4.2498 -0.61764,-1.4909 -1.08389,-3.028 -1.39877,-4.611 -0.31485,-1.5828 -0.47229,-3.1809 -0.47226,-4.795 v -57.7099 c -3e-5,-1.614 0.15741,-3.2124 0.47226,-4.7952 0.31485,-1.583 0.78106,-3.1201 1.39871,-4.6113 0.61764,-1.4912 1.37479,-2.9077 2.27145,-4.2495 0.89667,-1.3421 1.91562,-2.5835 3.05689,-3.7249 1.1412,-1.1413 2.38281,-2.1601 3.72476,-3.0569 1.34192,-0.8967 2.75842,-1.6538 4.24954,-2.2712 1.49109,-0.6177 3.02811,-1.084 4.61103,-1.3987 1.58294,-0.3149 3.18139,-0.4724 4.79534,-0.4724 z"
       style="fill:#ffffff;fill-opacity:1;fill-rule:nonzero;stroke:#000000;stroke-width:1;stroke-linecap:butt;stroke-linejoin:miter;stroke-miterlimit:10;stroke-dasharray:none;stroke-opacity:1"
       transform="matrix(0.83251401,0,0,0.83251401,-319.40186,-2078.6713)"
       clip-path="url(#clipPath4)" />
    <text
       id="text4"
       xml:space="preserve"
       transform="matrix(0.83251401,0,0,0.83251401,76.97888,42.990659)"
       clip-path="url(#clipPath5)"><tspan
         id="tspan4"
         style="font-variant:normal;font-weight:normal;font-size:12px;font-family:Arial;writing-mode:lr-tb;fill:#000000;fill-opacity:1;fill-rule:nonzero;stroke:none"
         x="0"
         y="0">use-case-name-compartment</tspan></text>
    <text
       id="text5"
       xml:space="preserve"
       transform="matrix(0.83251401,0,0,0.83251401,106.68922,66.301051)"
       clip-path="url(#clipPath6)"><tspan
         id="tspan5"
         style="font-variant:normal;font-weight:normal;font-size:12px;font-family:Arial;writing-mode:lr-tb;fill:#000000;fill-opacity:1;fill-rule:nonzero;stroke:none"
         x="0"
         y="0">action-flow-view</tspan></text>
    <text
       id="text6"
       xml:space="preserve"
       transform="matrix(0.83251401,0,0,0.83251401,99.742935,90.443957)"
       clip-path="url(#clipPath7)"><tspan
         id="tspan6"
         style="font-variant:normal;font-weight:normal;font-size:12px;font-family:Arial;writing-mode:lr-tb;fill:#000000;fill-opacity:1;fill-rule:nonzero;stroke:none"
         x="0"
         y="0">compartment-stack</tspan></text>
    <path
       id="path8"
       d="m 410,2565 h 46 v 15 h -46 z"
       style="fill:#ffffff;fill-opacity:1;fill-rule:nonzero;stroke:none"
       transform="matrix(0.83251401,0,0,0.83251401,-319.81811,-2079.0876)"
       clip-path="url(#clipPath9)" />
    <text
       id="text9"
       xml:space="preserve"
       transform="matrix(0.83251401,0,0,0.83251401,21.772795,65.468537)"
       clip-path="url(#clipPath10)"><tspan
         id="tspan9"
         style="font-variant:normal;font-weight:normal;font-size:12px;font-family:Arial;writing-mode:lr-tb;fill:#000000;fill-opacity:1;fill-rule:nonzero;stroke:none"
         x="0"
         y="0">param-l*</tspan></text>
    <path
       id="path11"
       d="m 654,2565 h 46 v 15 h -46 z"
       style="fill:#ffffff;fill-opacity:1;fill-rule:nonzero;stroke:none"
       transform="matrix(0.83251401,0,0,0.83251401,-319.81811,-2079.0876)"
       clip-path="url(#clipPath12)" />
    <text
       id="text12"
       xml:space="preserve"
       transform="matrix(0.83251401,0,0,0.83251401,224.35988,65.468537)"
       clip-path="url(#clipPath13)"><tspan
         id="tspan12"
         style="font-variant:normal;font-weight:normal;font-size:12px;font-family:Arial;writing-mode:lr-tb;fill:#000000;fill-opacity:1;fill-rule:nonzero;stroke:none"
         x="0"
         y="0">param-r*</tspan></text>
    <path
       id="path14"
       d="m 526,2620 h 56 v 15 h -56 z"
       style="fill:#ffffff;fill-opacity:1;fill-rule:nonzero;stroke:none"
       transform="matrix(0.83251401,0,0,0.83251401,-319.81811,-2079.0876)"
       clip-path="url(#clipPath15)" />
    <g
       id="g15" />
    <g
       id="g16" />
    <text
       id="text16"
       xml:space="preserve"
       transform="matrix(0.83251401,0,0,0.83251401,118.07126,111.25681)"
       clip-path="url(#clipPath16)"><tspan
         id="tspan16"
         style="font-variant:normal;font-weight:normal;font-size:12px;font-family:Arial;writing-mode:lr-tb;fill:#000000;fill-opacity:1;fill-rule:nonzero;stroke:none"
         x="0"
         y="0"> param-b* </tspan></text>
    <path
       id="path17"
       d="m 528,2512 h 52 v 15 h -52 z"
       style="fill:#ffffff;fill-opacity:1;fill-rule:nonzero;stroke:none"
       transform="matrix(0.83251401,0,0,0.83251401,-319.81811,-2079.0876)"
       clip-path="url(#clipPath18)" />
    <g
       id="g18" />
    <g
       id="g19" />
    <text
       id="text19"
       xml:space="preserve"
       transform="matrix(0.83251401,0,0,0.83251401,119.46311,21.345294)"
       clip-path="url(#clipPath19)"><tspan
         id="tspan19"
         style="font-variant:normal;font-weight:normal;font-size:12px;font-family:Arial;writing-mode:lr-tb;fill:#000000;fill-opacity:1;fill-rule:nonzero;stroke:none"
         x="0"
         y="0"> param-t* </tspan></text>
  </g>
</svg>
