<?xml version="1.0" encoding="UTF-8" standalone="no"?>
<!-- Created with Inkscape (http://www.inkscape.org/) -->

<svg
   version="1.1"
   id="svg1"
   width="272"
   height="16"
   viewBox="0 0 272 16"
   xmlns="http://www.w3.org/2000/svg"
   xmlns:svg="http://www.w3.org/2000/svg">
  <defs
     id="defs1">
    <clipPath
       clipPathUnits="userSpaceOnUse"
       id="clipPath2">
      <path
         d="M 0,0 H 849.02344 V 50.976563 H 0 Z"
         transform="scale(0.31999999)"
         clip-rule="evenodd"
         id="path2" />
    </clipPath>
    <clipPath
       clipPathUnits="userSpaceOnUse"
       id="clipPath4">
      <path
         d="M 56.25,0 H 790.625 V 50 H 56.25 Z"
         transform="matrix(0.38900557,0,0,0.38900557,95.849996,2197.7842)"
         clip-rule="evenodd"
         id="path4" />
    </clipPath>
    <clipPath
       clipPathUnits="userSpaceOnUse"
       id="clipPath6">
      <path
         d="M 56.25,0 H 790.625 V 50 H 56.25 Z"
         transform="matrix(0.38900557,0,0,0.38900557,96.349989,2198.2842)"
         clip-rule="evenodd"
         id="path6" />
    </clipPath>
    <clipPath
       clipPathUnits="userSpaceOnUse"
       id="clipPath7">
      <path
         d="M 56.25,0 H 790.625 V 50 H 56.25 Z"
         transform="matrix(0.38900557,0,0,0.38900557,-108.49376,-13.715849)"
         clip-rule="evenodd"
         id="path7" />
    </clipPath>
    <clipPath
       clipPathUnits="userSpaceOnUse"
       id="clipPath8">
      <path
         d="M 56.25,0 H 790.625 V 50 H 56.25 Z"
         transform="matrix(0.38900557,0,0,0.38900557,-110.79064,-13.715849)"
         clip-rule="evenodd"
         id="path8" />
    </clipPath>
    <clipPath
       clipPathUnits="userSpaceOnUse"
       id="clipPath9">
      <path
         d="M 56.25,0 H 790.625 V 50 H 56.25 Z"
         transform="matrix(0.38900557,0,0,0.38900557,-211.50939,-13.715849)"
         clip-rule="evenodd"
         id="path9" />
    </clipPath>
    <clipPath
       clipPathUnits="userSpaceOnUse"
       id="clipPath10">
      <path
         d="M 56.25,0 H 790.625 V 50 H 56.25 Z"
         transform="matrix(0.38900557,0,0,0.38900557,-217.5094,-13.715849)"
         clip-rule="evenodd"
         id="path10" />
    </clipPath>
  </defs>
  <g
     id="g1">
    <path
       id="path1"
       d="M 0,0 H 272 V 16 H 0 Z"
       style="fill:#ffffff;fill-opacity:1;fill-rule:nonzero;stroke:none"
       clip-path="url(#clipPath2)" />
    <path
       id="path3"
       d="M 120,2200 H 400"
       style="fill:none;stroke:#000000;stroke-width:1;stroke-linecap:butt;stroke-linejoin:miter;stroke-miterlimit:10;stroke-dasharray:none;stroke-opacity:1"
       transform="matrix(0.8226103,0,0,0.8226103,-78.847194,-1807.9199)"
       clip-path="url(#clipPath4)" />
    <path
       id="path5"
       d="m 205,2201 h 111 v 14 H 205 Z"
       style="fill:#ffffff;fill-opacity:1;fill-rule:nonzero;stroke:none"
       transform="matrix(0.8226103,0,0,0.8226103,-79.258493,-1808.3312)"
       clip-path="url(#clipPath6)" />
    <text
       id="text6"
       xml:space="preserve"
       transform="matrix(0.8226103,0,0,0.8226103,89.248086,11.282799)"
       clip-path="url(#clipPath7)"><tspan
         id="tspan6"
         style="font-variant:normal;font-weight:normal;font-size:12px;font-family:Arial;writing-mode:lr-tb;fill:#000000;fill-opacity:1;fill-rule:nonzero;stroke:none"
         x="0"
         y="0">'</tspan></text>
    <text
       id="text7"
       xml:space="preserve"
       transform="matrix(0.8226103,0,0,0.8226103,91.137523,11.282799)"
       clip-path="url(#clipPath8)"><tspan
         id="tspan7"
         style="font-style:italic;font-variant:normal;font-weight:normal;font-size:12px;font-family:Arial;writing-mode:lr-tb;fill:#000000;fill-opacity:1;fill-rule:nonzero;stroke:none"
         x="0"
         y="0">verification method</tspan></text>
    <text
       id="text8"
       xml:space="preserve"
       transform="matrix(0.8226103,0,0,0.8226103,173.9898,11.282799)"
       clip-path="url(#clipPath9)"><tspan
         id="tspan8"
         style="font-style:italic;font-variant:normal;font-weight:normal;font-size:12px;font-family:Arial;writing-mode:lr-tb;fill:#000000;fill-opacity:1;fill-rule:nonzero;stroke:none"
         x="0"
         y="0">s</tspan></text>
    <text
       id="text9"
       xml:space="preserve"
       transform="matrix(0.8226103,0,0,0.8226103,178.92547,11.282799)"
       clip-path="url(#clipPath10)"><tspan
         id="tspan9"
         style="font-variant:normal;font-weight:normal;font-size:12px;font-family:Arial;writing-mode:lr-tb;fill:#000000;fill-opacity:1;fill-rule:nonzero;stroke:none"
         x="0"
         y="0">'</tspan></text>
  </g>
</svg>
